<svg xmlns="http://www.w3.org/2000/svg" xmlns:xlink="http://www.w3.org/1999/xlink" width="168.621" height="148" viewBox="0 0 168.621 148">
  <defs>
    <clipPath id="clip-path">
      <rect id="Rettangolo_758" data-name="Rettangolo 758" width="148.549" height="99.032" fill="none"/>
    </clipPath>
  </defs>
  <g id="Raggruppa_1992" data-name="Raggruppa 1992" transform="translate(-536.986 -811.645)">
    <path id="Tracciato_1335" data-name="Tracciato 1335" d="M308,63.238l-.581,1.246a37.438,37.438,0,0,0-7.721-.667l-.36-1.344a4.429,4.429,0,0,0-5.418-3.128l-8.933,2.394a4.428,4.428,0,0,0-3.128,5.417l.364,1.357a37.209,37.209,0,0,0-6.318,4.446l-1.172-.821a4.424,4.424,0,0,0-6.161,1.086l-5.3,7.575a4.429,4.429,0,0,0,1.086,6.161l1.192.834a37.2,37.2,0,0,0-1.975,7.434l-1.473.129a4.423,4.423,0,0,0-4.021,4.792l.806,9.213a4.423,4.423,0,0,0,4.792,4.022l1.489-.13a37.017,37.017,0,0,0,3.245,6.949l-1.065,1.065a4.429,4.429,0,0,0,0,6.256l6.539,6.539a4.428,4.428,0,0,0,6.256,0L281.2,133a37.035,37.035,0,0,0,6.944,3.243l-.131,1.5a4.428,4.428,0,0,0,4.021,4.792l9.213.806a4.423,4.423,0,0,0,4.792-4.021l.13-1.485a37.231,37.231,0,0,0,7.423-1.97l.848,1.21a4.423,4.423,0,0,0,6.161,1.086l7.576-5.3a4.428,4.428,0,0,0,1.086-6.161l-.83-1.185a37.212,37.212,0,0,0,4.442-6.3l1.382.37a4.429,4.429,0,0,0,5.417-3.128l2.394-8.933a4.429,4.429,0,0,0-3.128-5.418l-1.353-.363a37.4,37.4,0,0,0-.659-7.712l1.261-.588a4.423,4.423,0,0,0,2.139-5.879l-3.908-8.381a4.423,4.423,0,0,0-5.879-2.14l-1.241.579a37.575,37.575,0,0,0-5.483-5.488l.58-1.244a4.424,4.424,0,0,0-2.14-5.879L313.877,61.1A4.429,4.429,0,0,0,308,63.238m4.174,4.6.466-1,6.018,2.806-.465,1a4.4,4.4,0,0,0,.875,4.99,4.518,4.518,0,0,0,.449.393,31.872,31.872,0,0,1,5.884,5.89,4.4,4.4,0,0,0,5.386,1.328l1-.465,2.806,6.018-1.014.473a4.4,4.4,0,0,0-2.447,4.967,31.672,31.672,0,0,1,.706,8.279A4.4,4.4,0,0,0,335.1,107l1.094.293-1.719,6.414-1.118-.3a4.4,4.4,0,0,0-5.068,2.232,31.485,31.485,0,0,1-4.767,6.765,4.453,4.453,0,0,0-.379,5.542l.677.966-5.44,3.809-.692-.988a4.4,4.4,0,0,0-5.316-1.548A31.5,31.5,0,0,1,304.4,132.3a4.4,4.4,0,0,0-3.85,4l-.107,1.218-6.615-.579.108-1.233a4.4,4.4,0,0,0-3.086-4.606,31.293,31.293,0,0,1-7.455-3.482,4.4,4.4,0,0,0-5.517.593l-.875.875-4.7-4.7.875-.875a4.4,4.4,0,0,0,.594-5.517,31.3,31.3,0,0,1-3.483-7.459,4.4,4.4,0,0,0-4.606-3.087l-1.22.107-.579-6.615,1.206-.106a4.4,4.4,0,0,0,4-3.849,31.493,31.493,0,0,1,2.12-7.983,4.4,4.4,0,0,0-1.547-5.317l-.968-.678,3.809-5.44.953.668a4.453,4.453,0,0,0,5.54-.377,31.474,31.474,0,0,1,6.778-4.77,4.4,4.4,0,0,0,2.236-5.07l-.293-1.095,6.414-1.719.291,1.084a4.4,4.4,0,0,0,4.481,3.273,31.683,31.683,0,0,1,8.286.715,4.4,4.4,0,0,0,4.972-2.447" transform="translate(368.3 731.389) rotate(9)" fill="#00e275"/>
    <path id="Tracciato_1339" data-name="Tracciato 1339" d="M36.295,2.939l-.422.905a27.208,27.208,0,0,0-5.611-.484L30,2.383A3.219,3.219,0,0,0,26.063.11l-6.492,1.74A3.218,3.218,0,0,0,17.3,5.787l.264.986A27.042,27.042,0,0,0,12.97,10l-.852-.6a3.215,3.215,0,0,0-4.478.789L3.786,15.7a3.219,3.219,0,0,0,.789,4.477l.866.606a27.033,27.033,0,0,0-1.435,5.4l-1.071.094A3.215,3.215,0,0,0,.013,29.765L.6,36.46a3.215,3.215,0,0,0,3.483,2.923l1.082-.095a26.9,26.9,0,0,0,2.358,5.05l-.774.774a3.219,3.219,0,0,0,0,4.547L11.5,54.411a3.218,3.218,0,0,0,4.546,0l.774-.774a26.915,26.915,0,0,0,5.047,2.357l-.1,1.093a3.218,3.218,0,0,0,2.922,3.483l6.7.586a3.215,3.215,0,0,0,3.483-2.923l.094-1.079a27.058,27.058,0,0,0,5.395-1.432l.616.88a3.215,3.215,0,0,0,4.477.79l5.506-3.855a3.218,3.218,0,0,0,.789-4.477l-.6-.861a27.044,27.044,0,0,0,3.228-4.581l1,.269a3.219,3.219,0,0,0,3.937-2.273l1.74-6.492a3.219,3.219,0,0,0-2.273-3.937l-.983-.264a27.181,27.181,0,0,0-.479-5.6l.917-.427a3.215,3.215,0,0,0,1.555-4.272l-2.84-6.091a3.214,3.214,0,0,0-4.272-1.555l-.9.421A27.307,27.307,0,0,0,47.792,9.4l.422-.9a3.215,3.215,0,0,0-1.555-4.272l-6.091-2.84a3.219,3.219,0,0,0-4.272,1.555m3.033,3.345.339-.727L44.041,7.6l-.338.726a3.194,3.194,0,0,0,.636,3.626,3.283,3.283,0,0,0,.326.286,23.163,23.163,0,0,1,4.276,4.28,3.2,3.2,0,0,0,3.914.965l.725-.338,2.039,4.374-.737.344a3.2,3.2,0,0,0-1.778,3.61,23.018,23.018,0,0,1,.513,6.017,3.2,3.2,0,0,0,2.378,3.259l.8.213-1.249,4.662-.812-.218a3.2,3.2,0,0,0-3.683,1.622A22.881,22.881,0,0,1,47.58,45.94a3.236,3.236,0,0,0-.275,4.027l.492.7-3.953,2.768-.5-.718A3.2,3.2,0,0,0,39.478,51.6a22.9,22.9,0,0,1-5.794,1.537,3.2,3.2,0,0,0-2.8,2.908l-.077.885L26,56.505l.079-.9a3.2,3.2,0,0,0-2.243-3.348,22.742,22.742,0,0,1-5.418-2.53,3.2,3.2,0,0,0-4.009.431l-.636.636-3.412-3.412L11,46.75a3.2,3.2,0,0,0,.431-4.009A22.745,22.745,0,0,1,8.9,37.32a3.2,3.2,0,0,0-3.348-2.243l-.886.078-.421-4.808.877-.077a3.2,3.2,0,0,0,2.908-2.8,22.888,22.888,0,0,1,1.541-5.8,3.2,3.2,0,0,0-1.125-3.864l-.7-.493,2.768-3.953.693.485a3.237,3.237,0,0,0,4.026-.274A22.873,22.873,0,0,1,20.152,10.1,3.2,3.2,0,0,0,21.776,6.42l-.213-.8,4.661-1.249.211.788a3.2,3.2,0,0,0,3.257,2.378,23.025,23.025,0,0,1,6.022.52,3.2,3.2,0,0,0,3.613-1.778" transform="translate(600.151 926.438) rotate(180)" fill="#00e275"/>
    <g id="Tracciato_1336" data-name="Tracciato 1336" transform="translate(368.3 731.389) rotate(9)" fill="none">
      <path d="M308,63.238l-.581,1.246a37.438,37.438,0,0,0-7.721-.667l-.36-1.344a4.429,4.429,0,0,0-5.418-3.128l-8.933,2.394a4.428,4.428,0,0,0-3.128,5.417l.364,1.357a37.209,37.209,0,0,0-6.318,4.446l-1.172-.821a4.424,4.424,0,0,0-6.161,1.086l-5.3,7.575a4.429,4.429,0,0,0,1.086,6.161l1.192.834a37.2,37.2,0,0,0-1.975,7.434l-1.473.129a4.423,4.423,0,0,0-4.021,4.792l.806,9.213a4.423,4.423,0,0,0,4.792,4.022l1.489-.13a37.017,37.017,0,0,0,3.245,6.949l-1.065,1.065a4.429,4.429,0,0,0,0,6.256l6.539,6.539a4.428,4.428,0,0,0,6.256,0L281.2,133a37.035,37.035,0,0,0,6.944,3.243l-.131,1.5a4.428,4.428,0,0,0,4.021,4.792l9.213.806a4.423,4.423,0,0,0,4.792-4.021l.13-1.485a37.231,37.231,0,0,0,7.423-1.97l.848,1.21a4.423,4.423,0,0,0,6.161,1.086l7.576-5.3a4.428,4.428,0,0,0,1.086-6.161l-.83-1.185a37.212,37.212,0,0,0,4.442-6.3l1.382.37a4.429,4.429,0,0,0,5.417-3.128l2.394-8.933a4.429,4.429,0,0,0-3.128-5.418l-1.353-.363a37.4,37.4,0,0,0-.659-7.712l1.261-.588a4.423,4.423,0,0,0,2.139-5.879l-3.908-8.381a4.423,4.423,0,0,0-5.879-2.14l-1.241.579a37.575,37.575,0,0,0-5.483-5.488l.58-1.244a4.424,4.424,0,0,0-2.14-5.879L313.877,61.1A4.429,4.429,0,0,0,308,63.238Zm4.174,4.6.466-1,6.018,2.806-.465,1a4.4,4.4,0,0,0,.875,4.99,4.518,4.518,0,0,0,.449.393,31.872,31.872,0,0,1,5.884,5.89,4.4,4.4,0,0,0,5.386,1.328l1-.465,2.806,6.018-1.014.473a4.4,4.4,0,0,0-2.447,4.967,31.672,31.672,0,0,1,.706,8.279A4.4,4.4,0,0,0,335.1,107l1.094.293-1.719,6.414-1.118-.3a4.4,4.4,0,0,0-5.068,2.232,31.485,31.485,0,0,1-4.767,6.765,4.453,4.453,0,0,0-.379,5.542l.677.966-5.44,3.809-.692-.988a4.4,4.4,0,0,0-5.316-1.548A31.5,31.5,0,0,1,304.4,132.3a4.4,4.4,0,0,0-3.85,4l-.107,1.218-6.615-.579.108-1.233a4.4,4.4,0,0,0-3.086-4.606,31.293,31.293,0,0,1-7.455-3.482,4.4,4.4,0,0,0-5.517.593l-.875.875-4.7-4.7.875-.875a4.4,4.4,0,0,0,.594-5.517,31.3,31.3,0,0,1-3.483-7.459,4.4,4.4,0,0,0-4.606-3.087l-1.22.107-.579-6.615,1.206-.106a4.4,4.4,0,0,0,4-3.849,31.493,31.493,0,0,1,2.12-7.983,4.4,4.4,0,0,0-1.547-5.317l-.968-.678,3.809-5.44.953.668a4.453,4.453,0,0,0,5.54-.377,31.474,31.474,0,0,1,6.778-4.77,4.4,4.4,0,0,0,2.236-5.07l-.293-1.095,6.414-1.719.291,1.084a4.4,4.4,0,0,0,4.481,3.273,31.683,31.683,0,0,1,8.286.715A4.4,4.4,0,0,0,312.171,67.84Z" stroke="none"/>
      <path d="M 295.0618896484375 59.19375610351562 C 294.6838989257812 59.19375610351562 294.3001403808594 59.24259948730469 293.9180908203125 59.344970703125 L 284.9849548339844 61.73855590820312 C 282.6289672851562 62.37008666992188 281.2259521484375 64.80027770996094 281.8572387695312 67.15602111816406 L 282.2210693359375 68.513427734375 C 279.9716491699219 69.76849365234375 277.8534545898438 71.25888061523438 275.9028930664062 72.95919799804688 L 274.7307739257812 72.138427734375 C 273.7628173828125 71.46060180664062 272.5887145996094 71.20008850097656 271.4249877929688 71.40556335449219 C 270.2613220214844 71.61074829101562 269.247314453125 72.2567138671875 268.5697021484375 73.22467041015625 L 263.2650756835938 80.80013275146484 C 261.8660888671875 82.79801940917969 262.3531494140625 85.56140899658203 264.351318359375 86.96115875244141 L 265.5428771972656 87.79537200927734 C 264.6304626464844 90.19521331787109 263.9680480957031 92.68740081787109 263.56787109375 95.22966003417969 L 262.0944213867188 95.35865020751953 C 260.9172973632812 95.46149444580078 259.8507385253906 96.01680755615234 259.0912170410156 96.92176055908203 C 258.3314819335938 97.82695007324219 257.9699096679688 98.97393798828125 258.072998046875 100.1508255004883 L 258.8790893554688 109.3633499145508 C 258.9819030761719 110.5407257080078 259.5372314453125 111.6067886352539 260.4424438476562 112.3670349121094 C 261.3475646972656 113.1265563964844 262.4945373535156 113.488151550293 263.6714477539062 113.3850479125977 L 265.1608581542969 113.2548065185547 C 265.9993286132812 115.6780319213867 267.0870361328125 118.0076217651367 268.4053955078125 120.203483581543 L 267.3400573730469 121.2685470581055 C 265.6153564453125 122.993537902832 265.6153564453125 125.7997512817383 267.34033203125 127.5247116088867 L 273.8795776367188 134.0640106201172 C 275.6043395996094 135.7887573242188 278.4108581542969 135.7889404296875 280.135498046875 134.0640106201172 L 281.2005615234375 132.9989471435547 C 283.3952026367188 134.3162689208984 285.7233276367188 135.4034881591797 288.144775390625 136.2416839599609 L 288.0135498046875 137.7450256347656 C 287.8008728027344 140.1752319335938 289.6050415039062 142.3250427246094 292.0347290039062 142.5374450683594 L 301.2477416992188 143.3435211181641 C 302.4248657226562 143.4463806152344 303.5715942382812 143.0848083496094 304.4768371582031 142.3252868652344 C 305.3820190429688 141.5657653808594 305.9370727539062 140.4989624023438 306.0399169921875 139.3220825195312 L 306.169921875 137.8371734619141 C 308.7077026367188 137.437744140625 311.1966552734375 136.777099609375 313.5929565429688 135.8674011230469 L 314.440673828125 137.0779113769531 C 315.1179809570312 138.0458679199219 316.1325073242188 138.6920776367188 317.2962036132812 138.8972473144531 C 318.4597778320312 139.1024475097656 319.6340026855469 138.8422241210938 320.6016845703125 138.1643829345703 L 328.1776733398438 132.8597412109375 C 330.175537109375 131.4607238769531 330.6629028320312 128.6968383789062 329.2636413574219 126.6989593505859 L 328.4338989257812 125.5141220092773 C 330.1317138671875 123.5680084228516 331.6211242675781 121.4545593261719 332.8757019042969 119.2101440429688 L 334.2572631835938 119.5801849365234 C 336.6129455566406 120.2111892700195 339.043212890625 118.807991027832 339.6747131347656 116.4519882202148 L 342.0682983398438 107.5190963745117 C 342.6993408203125 105.1631088256836 341.2960815429688 102.7329254150391 338.9400939941406 102.1011505126953 L 337.5869445800781 101.7385711669922 C 337.6344909667969 99.1510009765625 337.4136047363281 96.56516265869141 336.927978515625 94.02638244628906 L 338.1893005371094 93.43819427490234 C 339.2601013183594 92.93867492675781 340.0723876953125 92.05239868164062 340.4765625 90.94175720214844 C 340.8807373046875 89.83137512207031 340.8279418945312 88.63009643554688 340.3286437988281 87.55956268310547 L 336.4202575683594 79.17826080322266 C 335.9214477539062 78.10697174072266 335.0346984863281 77.29466247558594 333.924072265625 76.89049530029297 C 332.813720703125 76.48635864257812 331.6124572753906 76.53887939453125 330.5416259765625 77.03842163085938 L 329.3005065917969 77.61714935302734 C 327.67041015625 75.60679626464844 325.8301391601562 73.76454162597656 323.8178100585938 72.12896728515625 L 324.3980102539062 70.88461303710938 C 325.20458984375 69.15415954589844 324.7917175292969 67.16224670410156 323.5132446289062 65.88401794433594 C 323.1588745117188 65.5296630859375 322.73779296875 65.22982788085938 322.2581787109375 65.0059814453125 L 313.8766174316406 61.09783935546875 C 311.6658325195312 60.067138671875 309.0286560058594 61.02685546875 307.9977416992188 63.2376708984375 L 307.4167785644531 64.4832763671875 C 304.87548828125 63.99468994140625 302.2867126464844 63.77130126953125 299.6961059570312 63.816650390625 L 299.3360290527344 62.47268676757812 C 298.8067321777344 60.49897766113281 297.0146789550781 59.19375610351562 295.0618896484375 59.19375610351562 M 298.7045593261719 69.57601928710938 C 298.7738342285156 69.57601928710938 298.8433227539062 69.57444763183594 298.9132080078125 69.57127380371094 C 301.6959838867188 69.44473266601562 304.4835510253906 69.68533325195312 307.1994018554688 70.28671264648438 C 309.2438049316406 70.73892211914062 311.2885131835938 69.73284912109375 312.1713256835938 67.83982849121094 L 312.6377563476562 66.83975219726562 L 318.6558227539062 69.64622497558594 L 318.1904296875 70.64456176757812 C 317.3923034667969 72.3563232421875 317.7598266601562 74.32907104492188 319.0650024414062 75.63420104980469 C 319.2041625976562 75.77338409423828 319.3538208007812 75.90488433837891 319.5141906738281 76.02764892578125 C 321.7190551757812 77.71949768066406 323.7122192382812 79.71540069580078 325.3978271484375 81.91748809814453 C 326.6717834472656 83.58443450927734 328.8879089355469 84.12926483154297 330.7834167480469 83.24502563476562 L 331.780517578125 82.78034973144531 L 334.5867004394531 88.79843139648438 L 333.5722045898438 89.27158355712891 C 331.681640625 90.15362548828125 330.6753540039062 92.19608306884766 331.1250610351562 94.23904418945312 C 331.7227478027344 96.95213317871094 331.9605407714844 99.73744964599609 331.83154296875 102.5182571411133 C 331.7349243164062 104.6165084838867 333.0803833007812 106.4607620239258 335.1041870117188 107.0028839111328 L 336.1986389160156 107.2959747314453 L 334.4798889160156 113.7102584838867 L 333.3620300292969 113.4106826782227 C 331.3467712402344 112.8710784912109 329.2626647949219 113.788948059082 328.2939453125 115.6431579589844 C 327.0151977539062 118.0897979736328 325.4110107421875 120.3661117553711 323.5264587402344 122.408088684082 C 322.1232299804688 123.9283447265625 321.9635925292969 126.2586822509766 323.1473999023438 127.9497985839844 L 323.8242797851562 128.9162445068359 L 318.3846435546875 132.7250213623047 L 317.693115234375 131.7374114990234 C 316.4970703125 130.0281066894531 314.3106079101562 129.3923797607422 312.3775024414062 130.1892395019531 C 309.8295288085938 131.2393493652344 307.1468505859375 131.9510498046875 304.4043579101562 132.3046722412109 C 302.320068359375 132.5728759765625 300.737060546875 134.2186584472656 300.5545043945312 136.3061828613281 L 300.4478759765625 137.5241394042969 L 293.8326416015625 136.9451751708984 L 293.9407348632812 135.7120208740234 C 294.1227722167969 133.6296997070312 292.853759765625 131.7359008789062 290.8543701171875 131.1056365966797 C 288.2254638671875 130.2776336669922 285.7170715332031 129.1059875488281 283.399169921875 127.6238098144531 C 281.630859375 126.4932556152344 279.362548828125 126.7370376586914 277.8823852539062 128.2172241210938 L 277.007568359375 129.092041015625 L 272.31201171875 124.3967590332031 L 273.1868286132812 123.5219573974609 C 274.6669921875 122.0417633056641 274.9110412597656 119.7731857299805 273.7804870605469 118.0053863525391 C 272.2973327636719 115.6859970092773 271.1254272460938 113.1763610839844 270.2971801757812 110.5459594726562 C 269.6676330566406 108.5458297729492 267.7733459472656 107.27685546875 265.6907958984375 107.4590835571289 L 264.4710693359375 107.5659255981445 L 263.8923645019531 100.9506759643555 L 265.0986328125 100.845085144043 C 267.1859130859375 100.6625442504883 268.8314514160156 99.07952117919922 269.1001586914062 96.99571990966797 C 269.4544982910156 94.24951171875 270.1676940917969 91.56381988525391 271.2205505371094 89.01284790039062 C 272.0189208984375 87.07871246337891 271.3819274902344 84.89029693603516 269.6731262207031 83.69549560546875 L 268.7046813964844 83.01742553710938 L 272.5134887695312 77.57779693603516 L 273.4669799804688 78.24542236328125 C 275.1565246582031 79.42852783203125 277.4867248535156 79.26990509033203 279.0069580078125 77.86815643310547 C 281.0534057617188 75.98107147216797 283.3336791992188 74.37613677978516 285.7845458984375 73.09791564941406 C 287.6412353515625 72.12971496582031 288.5606384277344 70.044921875 288.020263671875 68.02809143066406 L 287.7269287109375 66.93339538574219 L 294.1411743164062 65.21466064453125 L 294.4317932128906 66.29864501953125 C 294.9556274414062 68.25328063964844 296.6949157714844 69.57601928710938 298.7045593261719 69.57601928710938 M 295.0618896484375 57.19375610351562 C 297.9176940917969 57.19375610351562 300.434326171875 59.08932495117188 301.2303161621094 61.82075500488281 C 302.9102172851562 61.85835266113281 304.5909729003906 62.00361633300781 306.25146484375 62.2545166015625 C 307.3297424316406 60.08016967773438 309.5746459960938 58.68368530273438 312.0137023925781 58.68368530273438 C 312.9546813964844 58.6837158203125 313.86572265625 58.88607788085938 314.7217102050781 59.28514099121094 L 323.1033630371094 63.19334411621094 C 323.7849731445312 63.51144409179688 324.3984680175781 63.94081115722656 324.9274597167969 64.46980285644531 C 326.7949523925781 66.33695983886719 327.3269653320312 69.17935180664062 326.2744445800781 71.58845520019531 C 327.5380249023438 72.70155334472656 328.7316284179688 73.89625549316406 329.8424987792969 75.15976715087891 C 330.6591186523438 74.802490234375 331.5216979980469 74.62140655517578 332.4086608886719 74.62140655517578 C 333.1576232910156 74.62140655517578 333.8976135253906 74.75252532958984 334.6080932617188 75.0111083984375 C 336.2214965820312 75.59823608398438 337.5090026855469 76.77835845947266 338.2333374023438 78.33406066894531 L 342.1412353515625 86.71429443359375 C 342.8664855957031 88.26930999755859 342.9427490234375 90.01363372802734 342.3559265136719 91.62583160400391 C 341.7845764160156 93.19589996337891 340.6507568359375 94.45801544189453 339.155517578125 95.19287872314453 C 339.4044494628906 96.85053253173828 339.5477905273438 98.52725219726562 339.5840454101562 100.2045364379883 C 342.9286499023438 101.1740646362305 344.9050598144531 104.6582565307617 344.0002136230469 108.0365447998047 L 341.6065673828125 116.9696197509766 C 340.8550720214844 119.7732849121094 338.3031311035156 121.7313003540039 335.400634765625 121.7313003540039 C 334.8728332519531 121.7313003540039 334.3451843261719 121.6655426025391 333.830810546875 121.535758972168 C 332.960693359375 122.9549179077148 331.9976196289062 124.3218994140625 330.951171875 125.6230773925781 C 331.8975524902344 127.0130386352539 332.2572937011719 128.6885986328125 331.9642028808594 130.3511657714844 C 331.6660766601562 132.0422210693359 330.728759765625 133.5149536132812 329.3248901367188 134.4980163574219 L 321.7488403320312 139.8027038574219 C 320.6628112792969 140.5634155273438 319.3919067382812 140.9656219482422 318.0738220214844 140.9656219482422 C 317.6990051269531 140.9656219482422 317.3205261230469 140.9324035644531 316.9488830566406 140.8668518066406 C 315.2739562988281 140.571533203125 313.8127136230469 139.6475219726562 312.8291320800781 138.2630157470703 C 311.2593383789062 138.7879180908203 309.653564453125 139.2141418457031 308.0285949707031 139.5372619628906 C 307.8701171875 141.2302551269531 307.0663757324219 142.7632293701172 305.7623901367188 143.8573913574219 C 304.6069946289062 144.8268280029297 303.1431884765625 145.3607025146484 301.6405334472656 145.3607025146484 C 301.4524536132812 145.3607025146484 301.2617492675781 145.3523559570312 301.0736694335938 145.3359375 L 291.8604125976562 144.5298309326172 C 290.1531677246094 144.3805847167969 288.60498046875 143.5739440917969 287.5011901855469 142.2584991455078 C 286.4013366699219 140.9477691650391 285.8755493164062 139.2900695800781 286.0195922851562 137.5890197753906 C 284.4822692871094 136.9864807128906 282.9816589355469 136.2857971191406 281.5335083007812 135.4943695068359 C 280.3236083984375 136.6960601806641 278.7172241210938 137.3576354980469 277.0076904296875 137.3576354980469 C 275.2904968261719 137.3576354980469 273.6773376464844 136.690185546875 272.4653625488281 135.4782409667969 L 265.9260864257812 128.9389190673828 C 263.4269714355469 126.4397888183594 263.4215087890625 122.3764801025391 265.9097900390625 119.8704376220703 C 265.1175842285156 118.4211044311523 264.4163818359375 116.9192123413086 263.8134155273438 115.3801879882812 C 263.6357727050781 115.3948516845703 263.4557495117188 115.4022979736328 263.278076171875 115.4022979736328 C 261.7756652832031 115.4022979736328 260.3120422363281 114.8684616088867 259.1568603515625 113.8991088867188 C 257.8418579101562 112.7947082519531 257.0358581542969 111.2458572387695 256.8866882324219 109.5373382568359 L 256.0806274414062 100.3251571655273 C 255.9308776855469 98.6158447265625 256.4560241699219 96.95046997070312 257.5592956542969 95.635986328125 C 258.6510925292969 94.33513641357422 260.1795043945312 93.53215789794922 261.8678588867188 93.37103271484375 C 262.1918334960938 91.74216461181641 262.6195983886719 90.1324462890625 263.1466369628906 88.55870819091797 C 260.2936401367188 86.51374816894531 259.6090087890625 82.53453826904297 261.6268005371094 79.65294647216797 L 266.9314270019531 72.07748413085938 C 267.9152526855469 70.672119140625 269.3877868652344 69.73391723632812 271.0776977539062 69.43594360351562 C 271.4491271972656 69.37037658691406 271.8278198242188 69.33709716796875 272.2028503417969 69.33709716796875 C 273.4868774414062 69.33709716796875 274.7263793945312 69.71896362304688 275.7942810058594 70.44248962402344 C 277.0991821289062 69.39393615722656 278.4710693359375 68.42868041992188 279.8952941894531 67.55702209472656 C 279.0550537109375 64.17283630371094 281.0849304199219 60.71336364746094 284.4671325683594 59.8067626953125 L 293.4004516601562 57.41311645507812 C 293.9436645507812 57.26756286621094 294.5026550292969 57.19375610351562 295.0618896484375 57.19375610351562 Z M 298.7045593261719 71.57600402832031 C 297.2736511230469 71.57600402832031 295.9219665527344 71.1204833984375 294.795654296875 70.25869750976562 C 293.8988037109375 69.57247924804688 293.2137451171875 68.68122863769531 292.7833557128906 67.64906311035156 L 290.1211853027344 68.36239624023438 C 290.4660034179688 71.010498046875 289.1426086425781 73.60238647460938 286.7092895507812 74.87126922607422 C 284.4149169921875 76.06788635253906 282.2796020507812 77.57086944580078 280.3627624511719 79.33846282958984 C 279.1751403808594 80.43348693847656 277.6238708496094 81.03650665283203 275.9946594238281 81.03650665283203 C 274.9513854980469 81.03650665283203 273.9429626464844 80.79015350341797 273.0360717773438 80.31838226318359 L 271.4612426757812 82.56751251220703 C 273.4546813964844 84.3701171875 274.12255859375 87.2242431640625 273.0692443847656 89.77594757080078 C 272.0837097167969 92.16383361816406 271.4156494140625 94.67904663085938 271.083740234375 97.25166320800781 C 270.7279968261719 100.0101470947266 268.7082214355469 102.163818359375 266.054931640625 102.7216796875 L 266.2931518554688 105.4449920654297 C 269.01806640625 105.5310821533203 271.3778686523438 107.3177719116211 272.2049255371094 109.9455261230469 C 272.9801940917969 112.4077072143555 274.0772399902344 114.7570114135742 275.4654235839844 116.9279251098633 C 276.9669189453125 119.2757034301758 276.7965698242188 122.2329864501953 275.1092834472656 124.3655166625977 L 277.0386962890625 126.2948226928711 C 278.1678466796875 125.4011688232422 279.5494079589844 124.9163970947266 281.0009765625 124.9163970947266 C 282.228515625 124.9163970947266 283.4303283691406 125.2699203491211 284.4764709472656 125.9387512207031 C 286.6466979980469 127.3264999389648 288.99462890625 128.4230346679688 291.4552001953125 129.1980133056641 C 294.1101379394531 130.0349273681641 295.8774108886719 132.4090881347656 295.95556640625 135.1233215332031 L 298.6754760742188 135.3613739013672 C 299.2295532226562 132.7018432617188 301.3859558105469 130.6765899658203 304.1491088867188 130.3210144042969 C 306.7174682617188 129.9898681640625 309.2296752929688 129.3233642578125 311.6154174804688 128.3401184082031 C 312.4065551757812 128.0140228271484 313.2372436523438 127.8486480712891 314.0843200683594 127.8486480712891 C 315.9025268554688 127.8486480712891 317.6274108886719 128.6287231445312 318.8357543945312 129.9676361083984 L 321.0825805664062 128.3944244384766 C 319.8481750488281 126.0261917114258 320.2086486816406 123.0538787841797 322.0568237304688 121.0515747070312 C 323.8219909667969 119.1389389038086 325.3241271972656 117.0075607299805 326.5214233398438 114.7167587280273 C 327.6361694335938 112.5830383300781 329.8135986328125 111.2573623657227 332.203857421875 111.2573623657227 C 332.4869689941406 111.2573623657227 332.7701416015625 111.2761764526367 333.0515441894531 111.3135604858398 L 333.7638549804688 108.6552124023438 C 331.2898559570312 107.627197265625 329.7070007324219 105.1771621704102 329.8336486816406 102.42626953125 C 329.9545288085938 99.82077026367188 329.7318725585938 97.211181640625 329.1719055175781 94.66931915283203 C 328.5835876464844 91.99669647216797 329.7138671875 89.32375335693359 331.9539184570312 87.88475799560547 L 330.7870788574219 85.38235473632812 C 330.1775817871094 85.57013702392578 329.5472412109375 85.66496276855469 328.9042358398438 85.66496276855469 C 326.8963012695312 85.66496276855469 325.0390625 84.74170684814453 323.8087768554688 83.13195037841797 C 322.2236633300781 81.0611572265625 320.3688354492188 79.20437622070312 318.2966613769531 77.61435699462891 C 318.0708923339844 77.44152069091797 317.8529357910156 77.2506103515625 317.6506652832031 77.04828643798828 C 316.7166137695312 76.11428833007812 316.1008605957031 74.93673706054688 315.8700561523438 73.64312744140625 C 315.6902465820312 72.6351318359375 315.7544250488281 71.61187744140625 316.0539245605469 70.63963317871094 L 313.5490417480469 69.47149658203125 C 313.0464172363281 70.24824523925781 312.3840637207031 70.90670776367188 311.6004638671875 71.40293884277344 C 310.5765380859375 72.05137634277344 309.3925170898438 72.39411926269531 308.1764221191406 72.39411926269531 C 307.7052917480469 72.39411926269531 307.2312316894531 72.34210205078125 306.7674255371094 72.239501953125 C 304.666748046875 71.77435302734375 302.5090637207031 71.53852844238281 300.3538513183594 71.53852844238281 C 299.9059448242188 71.53852844238281 299.4517822265625 71.54885864257812 299.0040283203125 71.5692138671875 C 298.9046936035156 71.57371520996094 298.8039245605469 71.57600402832031 298.7045593261719 71.57600402832031 Z" stroke="none" fill="#00570e"/>
    </g>
    <g id="Tracciato_1340" data-name="Tracciato 1340" transform="translate(600.151 926.438) rotate(180)" fill="none">
      <path d="M36.295,2.939l-.422.905a27.208,27.208,0,0,0-5.611-.484L30,2.383A3.219,3.219,0,0,0,26.063.11l-6.492,1.74A3.218,3.218,0,0,0,17.3,5.787l.264.986A27.042,27.042,0,0,0,12.97,10l-.852-.6a3.215,3.215,0,0,0-4.478.789L3.786,15.7a3.219,3.219,0,0,0,.789,4.477l.866.606a27.033,27.033,0,0,0-1.435,5.4l-1.071.094A3.215,3.215,0,0,0,.013,29.765L.6,36.46a3.215,3.215,0,0,0,3.483,2.923l1.082-.095a26.9,26.9,0,0,0,2.358,5.05l-.774.774a3.219,3.219,0,0,0,0,4.547L11.5,54.411a3.218,3.218,0,0,0,4.546,0l.774-.774a26.915,26.915,0,0,0,5.047,2.357l-.1,1.093a3.218,3.218,0,0,0,2.922,3.483l6.7.586a3.215,3.215,0,0,0,3.483-2.923l.094-1.079a27.058,27.058,0,0,0,5.395-1.432l.616.88a3.215,3.215,0,0,0,4.477.79l5.506-3.855a3.218,3.218,0,0,0,.789-4.477l-.6-.861a27.044,27.044,0,0,0,3.228-4.581l1,.269a3.219,3.219,0,0,0,3.937-2.273l1.74-6.492a3.219,3.219,0,0,0-2.273-3.937l-.983-.264a27.181,27.181,0,0,0-.479-5.6l.917-.427a3.215,3.215,0,0,0,1.555-4.272l-2.84-6.091a3.214,3.214,0,0,0-4.272-1.555l-.9.421A27.307,27.307,0,0,0,47.792,9.4l.422-.9a3.215,3.215,0,0,0-1.555-4.272l-6.091-2.84A3.219,3.219,0,0,0,36.295,2.939Zm3.033,3.345.339-.727L44.041,7.6l-.338.726a3.194,3.194,0,0,0,.636,3.626,3.283,3.283,0,0,0,.326.286,23.163,23.163,0,0,1,4.276,4.28,3.2,3.2,0,0,0,3.914.965l.725-.338,2.039,4.374-.737.344a3.2,3.2,0,0,0-1.778,3.61,23.018,23.018,0,0,1,.513,6.017,3.2,3.2,0,0,0,2.378,3.259l.8.213-1.249,4.662-.812-.218a3.2,3.2,0,0,0-3.683,1.622A22.881,22.881,0,0,1,47.58,45.94a3.236,3.236,0,0,0-.275,4.027l.492.7-3.953,2.768-.5-.718A3.2,3.2,0,0,0,39.478,51.6a22.9,22.9,0,0,1-5.794,1.537,3.2,3.2,0,0,0-2.8,2.908l-.077.885L26,56.505l.079-.9a3.2,3.2,0,0,0-2.243-3.348,22.742,22.742,0,0,1-5.418-2.53,3.2,3.2,0,0,0-4.009.431l-.636.636-3.412-3.412L11,46.75a3.2,3.2,0,0,0,.431-4.009A22.745,22.745,0,0,1,8.9,37.32a3.2,3.2,0,0,0-3.348-2.243l-.886.078-.421-4.808.877-.077a3.2,3.2,0,0,0,2.908-2.8,22.888,22.888,0,0,1,1.541-5.8,3.2,3.2,0,0,0-1.125-3.864l-.7-.493,2.768-3.953.693.485a3.237,3.237,0,0,0,4.026-.274A22.873,22.873,0,0,1,20.152,10.1,3.2,3.2,0,0,0,21.776,6.42l-.213-.8,4.661-1.249.211.788a3.2,3.2,0,0,0,3.257,2.378,23.025,23.025,0,0,1,6.022.52A3.2,3.2,0,0,0,39.328,6.283Z" stroke="none"/>
      <path d="M 26.8939094543457 0 C 26.61921310424805 0 26.34033203125 0.03549575805664062 26.06266784667969 0.1098976135253906 L 19.57058715820312 1.849414825439453 C 17.85837936401367 2.308364868164062 16.8387565612793 4.074497222900391 17.29754638671875 5.786506652832031 L 17.56194686889648 6.772994995117188 C 15.92719650268555 7.685108184814453 14.3878173828125 8.768226623535156 12.97025680541992 10.0039176940918 L 12.11843872070312 9.407424926757812 C 11.41497039794922 8.914829254150391 10.56166076660156 8.725502014160156 9.715988159179688 8.874828338623047 C 8.870296478271484 9.023944854736328 8.133377075195312 9.493396759033203 7.640926361083984 10.19683456420898 L 3.78582763671875 15.70224761962891 C 2.769138336181641 17.15419769287109 3.123088836669922 19.16246795654297 4.57525634765625 20.17971801757812 L 5.441207885742188 20.78597640991211 C 4.778118133544922 22.53003692626953 4.296707153320312 24.34121704101562 4.005886077880859 26.18877792358398 L 2.935066223144531 26.28251647949219 C 2.079608917236328 26.35726547241211 1.304489135742188 26.76083755493164 0.7525177001953125 27.41849517822266 C 0.20037841796875 28.07633590698242 -0.0623931884765625 28.90989685058594 0.0125274658203125 29.76518630981445 L 0.598358154296875 36.4603157043457 C 0.6730690002441406 37.31595611572266 1.076648712158203 38.09071731567383 1.734508514404297 38.64321899414062 C 2.392314910888672 39.19519805908203 3.225933074951172 39.45795822143555 4.081157684326172 39.38304901123047 L 5.163578033447266 39.28839874267578 C 5.772937774658203 41.04945373535156 6.563419342041016 42.74246597290039 7.521518707275391 44.33828735351562 L 6.747299194335938 45.1123161315918 C 5.493877410888672 46.36593627929688 5.493877410888672 48.40532684326172 6.74749755859375 49.65892791748047 L 11.49982833862305 54.41130828857422 C 12.75327682495117 55.66472625732422 14.7928581237793 55.6649055480957 16.0462760925293 54.41130828857422 L 16.82030868530273 53.63727569580078 C 18.41524887084961 54.59462738037109 20.1071891784668 55.38475799560547 21.86695861816406 55.9939079284668 L 21.77158737182617 57.08645629882812 C 21.61703872680664 58.85257720947266 22.92818832397461 60.41493606567383 24.6939582824707 60.56929779052734 L 31.38943862915039 61.15510559082031 C 32.24491882324219 61.2298583984375 33.07830810546875 60.96707534790039 33.73616027832031 60.41510772705078 C 34.39399719238281 59.86313629150391 34.79737854003906 59.08784484863281 34.87211608886719 58.23256683349609 L 34.96659851074219 57.15341567993164 C 36.81091690063477 56.86312484741211 38.61973571777344 56.38301849365234 40.3612174987793 55.72190856933594 L 40.977294921875 56.60162734985352 C 41.46952819824219 57.30507659912109 42.20681762695312 57.77470779418945 43.05253601074219 57.9238166809082 C 43.89820098876953 58.07293701171875 44.75151062011719 57.88382720947266 45.45475769042969 57.39121627807617 L 50.96055603027344 53.53611755371094 C 52.4124870300293 52.5193977355957 52.76667785644531 50.51076507568359 51.7497673034668 49.05881500244141 L 51.14675903320312 48.19774627685547 C 52.3806266784668 46.78342437744141 53.46305847167969 45.24749755859375 54.37481689453125 43.61638641357422 L 55.37884902954102 43.88530731201172 C 57.09086990356445 44.34388732910156 58.85699844360352 43.32412719726562 59.3159294128418 41.61191558837891 L 61.05544662475586 35.12002563476562 C 61.51406860351562 33.4078369140625 60.49424743652344 31.6417064666748 58.78205871582031 31.18257713317871 L 57.79867935180664 30.9190673828125 C 57.83321762084961 29.03856658935547 57.67269897460938 27.15934753417969 57.31975936889648 25.31431579589844 L 58.23641967773438 24.88685607910156 C 59.01461791992188 24.52382659912109 59.60494613647461 23.87973785400391 59.89867782592773 23.07258605957031 C 60.19240951538086 22.26561737060547 60.15403747558594 21.39261627197266 59.79117584228516 20.61460494995117 L 56.95078659057617 14.52356719970703 C 56.58828735351562 13.74501800537109 55.94384765625 13.15467834472656 55.13669586181641 12.86095809936523 C 54.32972717285156 12.56723403930664 53.45673751831055 12.60542678833008 52.67853546142578 12.96845626831055 L 51.77656555175781 13.3890380859375 C 50.5919075012207 11.92803573608398 49.25449752807617 10.58918762207031 47.79204559326172 9.400554656982422 L 48.21371841430664 8.496227264404297 C 48.79989624023438 7.238636016845703 48.49982833862305 5.791027069091797 47.57072830200195 4.862087249755859 C 47.31318664550781 4.604564666748047 47.00715637207031 4.386665344238281 46.65861892700195 4.223976135253906 L 40.56736755371094 1.383766174316406 C 38.96067810058594 0.6347122192382812 37.0441780090332 1.332199096679688 36.29494857788086 2.938877105712891 L 35.87273788452148 3.844104766845703 C 34.02587890625 3.489044189453125 32.14430618286133 3.326679229736328 30.26179695129395 3.359638214111328 L 30.00011825561523 2.382926940917969 C 29.61545372009277 0.9485549926757812 28.3130989074707 0 26.8939094543457 0 M 29.54119491577148 7.545211791992188 C 29.59154319763184 7.545211791992188 29.64204978942871 7.544071197509766 29.69283676147461 7.541767120361328 C 31.71500587463379 7.449840545654297 33.74105072021484 7.624656677246094 35.71476745605469 8.06170654296875 C 37.20051574707031 8.390335083007812 38.68650817871094 7.659217834472656 39.32806777954102 6.283454895019531 L 39.66703796386719 5.556667327880859 L 44.04061889648438 7.596237182617188 L 43.70240783691406 8.321765899658203 C 43.12237548828125 9.565788269042969 43.38946533203125 10.99946594238281 44.33799743652344 11.94794464111328 C 44.43912506103516 12.04910659790039 44.54787826538086 12.1446647644043 44.6644287109375 12.23388671875 C 46.26679992675781 13.46341705322266 47.71531677246094 14.91392517089844 48.9403190612793 16.51427459716797 C 49.86617660522461 17.7257080078125 51.47668838500977 18.12168884277344 52.85425567626953 17.47904586791992 L 53.57888793945312 17.141357421875 L 55.61826705932617 21.51494598388672 L 54.88097763061523 21.85879516601562 C 53.50703811645508 22.49981689453125 52.77572631835938 23.98415756225586 53.1025390625 25.46885681152344 C 53.53690719604492 27.44057464599609 53.709716796875 29.46476554870605 53.6159782409668 31.4857063293457 C 53.54575729370117 33.01058578491211 54.5235595703125 34.35088729858398 55.99433898925781 34.74486541748047 L 56.78972625732422 34.95786666870117 L 55.5406379699707 39.6193962097168 L 54.72823715209961 39.40168762207031 C 53.26362991333008 39.00951385498047 51.74903869628906 39.67658996582031 51.04505920410156 41.02411651611328 C 50.11573791503906 42.80217742919922 48.94990539550781 44.45647430419922 47.58031845092773 45.94045639038086 C 46.56052780151367 47.04529571533203 46.44451904296875 48.73885726928711 47.30484008789062 49.96785736083984 L 47.79674911499023 50.67020416259766 L 43.84354782104492 53.43820571899414 L 43.34098815917969 52.72046661376953 C 42.47176742553711 51.47825622558594 40.88280868530273 51.0162353515625 39.4779052734375 51.59534454345703 C 37.62619018554688 52.35850524902344 35.67657852172852 52.87573623657227 33.68348693847656 53.13271713256836 C 32.16874694824219 53.32763671875 31.01830863952637 54.52368545532227 30.8856372833252 56.04078674316406 L 30.80813789367676 56.92592620849609 L 26.00056838989258 56.50516510009766 L 26.07912826538086 55.60897827148438 C 26.21142959594727 54.09568786621094 25.28918838500977 52.71936798095703 23.83613586425781 52.26133728027344 C 21.92559814453125 51.65958786010742 20.10264587402344 50.80809783935547 18.41811752319336 49.7309455871582 C 17.13302993774414 48.90932846069336 15.48453903198242 49.08649826049805 14.40884780883789 50.16221618652344 L 13.77308654785156 50.79796600341797 L 10.36062622070312 47.38571548461914 L 10.99638748168945 46.74995422363281 C 12.07207870483398 45.67424774169922 12.24944686889648 44.02556610107422 11.42782592773438 42.74083709716797 C 10.34995651245117 41.05523681640625 9.498279571533203 39.23138427734375 8.896358489990234 37.31976699829102 C 8.438858032226562 35.86618423461914 7.062175750732422 34.94393920898438 5.5487060546875 35.076416015625 L 4.662277221679688 35.15404510498047 L 4.241718292236328 30.34646606445312 L 5.118358612060547 30.26973724365234 C 6.635269165039062 30.13708686828613 7.831146240234375 28.98662567138672 8.02642822265625 27.47224807739258 C 8.283946990966797 25.47646713256836 8.802257537841797 23.52466583251953 9.567409515380859 21.6707649230957 C 10.14762878417969 20.2651481628418 9.684688568115234 18.67474746704102 8.442836761474609 17.80642700195312 L 7.739028930664062 17.31363677978516 L 10.50704956054688 13.36044692993164 L 11.19997787475586 13.84563827514648 C 12.42787551879883 14.70545196533203 14.12127685546875 14.59016418457031 15.22611618041992 13.57146453857422 C 16.7133674621582 12.20004653930664 18.37052917480469 11.03366470336914 20.15168762207031 10.1047248840332 C 21.50101852416992 9.401096343994141 22.169189453125 7.885986328125 21.7764778137207 6.420276641845703 L 21.56329727172852 5.624717712402344 L 26.22478866577148 4.375637054443359 L 26.43600845336914 5.163406372070312 C 26.81669235229492 6.583946228027344 28.08070755004883 7.545211791992188 29.54119491577148 7.545211791992188 M 26.8939094543457 -2.000003814697266 C 29.07650375366211 -2.000003814697266 31.01508903503418 -0.6360435485839844 31.7738208770752 1.373916625976562 C 32.76186752319336 1.409088134765625 33.74936676025391 1.494453430175781 34.72840118408203 1.629264831542969 C 35.66104888916016 0.0671844482421875 37.36900329589844 -0.9172134399414062 39.21352767944336 -0.9172134399414062 C 39.97778701782227 -0.9171829223632812 40.71754837036133 -0.7528953552246094 41.41246032714844 -0.4289131164550781 L 47.50380706787109 2.411334991455078 C 48.05725860595703 2.669677734375 48.55531692504883 3.018287658691406 48.98488616943359 3.44781494140625 C 50.4052734375 4.867961883544922 50.8739013671875 6.983089447021484 50.22451019287109 8.852802276611328 C 50.95964813232422 9.517654418945312 51.66157150268555 10.22017669677734 52.32529830932617 10.95539855957031 C 52.87568664550781 10.76277542114258 53.44886016845703 10.66539764404297 54.03540802001953 10.66539764404297 C 54.64364624023438 10.66539764404297 55.24432754516602 10.77177810668945 55.82073974609375 10.98157501220703 C 57.13051605224609 11.45819473266602 58.17579650878906 12.41630554199219 58.76388931274414 13.67936706542969 L 61.60378646850586 19.76934814453125 C 62.19254684448242 21.0317268371582 62.25445938110352 22.44781494140625 61.77804946899414 23.75666809082031 C 61.36040878295898 24.9043083190918 60.57256698608398 25.84930801391602 59.53366851806641 26.46163558959961 C 59.66708374023438 27.43755340576172 59.75122833251953 28.42148971557617 59.78554153442383 29.40657997131348 C 62.26613616943359 30.33783149719238 63.68667602539062 33.02663803100586 62.98734664916992 35.63749694824219 L 61.24777603149414 42.12955474853516 C 60.63771820068359 44.40560913085938 58.56603622436523 45.99512481689453 56.20977783203125 45.99512481689453 C 55.91549682617188 45.99512481689453 55.62134552001953 45.969970703125 55.33074569702148 45.92011260986328 C 54.80992889404297 46.74463653564453 54.24641799926758 47.54452896118164 53.64399337768555 48.31441497802734 C 54.24948501586914 49.36968994140625 54.46475982666016 50.59311676025391 54.25060653686523 51.80790710449219 C 54.00860595703125 53.18063735961914 53.24759674072266 54.37620544433594 52.10775756835938 55.17438507080078 L 46.60188674926758 59.02953720092773 C 45.72039794921875 59.64700698852539 44.68835830688477 59.97350692749023 43.61766815185547 59.97350692749023 C 43.31352996826172 59.97350692749023 43.00652694702148 59.94656753540039 42.70520782470703 59.89342498779297 C 41.48008728027344 59.67742156982422 40.39583206176758 59.04713821411133 39.60906219482422 58.10227966308594 C 38.68901443481445 58.39624404907227 37.75311279296875 58.64469146728516 36.80769729614258 58.8459587097168 C 36.59905624389648 60.05845642089844 35.97507095336914 61.14728164672852 35.02169799804688 61.94722747802734 C 34.08378601074219 62.73418807983398 32.89519500732422 63.16758728027344 31.67486763000488 63.16758728027344 C 31.52237701416016 63.16758728027344 31.36777687072754 63.16083526611328 31.21534729003906 63.14751815795898 L 24.51963806152344 62.56168746948242 C 23.13351821899414 62.44051742553711 21.87660598754883 61.78569793701172 20.9805793762207 60.71787643432617 C 20.17625427246094 59.75934600830078 19.75014495849609 58.57210922241211 19.75908660888672 57.33638381958008 C 18.86839294433594 56.97330093383789 17.99544143676758 56.56569671630859 17.14555740356445 56.1160888671875 C 16.20531463623047 56.91561889648438 15.02315139770508 57.35143661499023 13.77314758300781 57.35143661499023 C 12.37922668457031 57.35143661499023 11.06963729858398 56.80952453613281 10.08562850952148 55.82552719116211 L 5.333278656005859 51.07313537597656 C 3.401962280273438 49.14184951782227 3.305046081542969 46.05994033813477 5.042655944824219 44.01317596435547 C 4.592357635498047 43.16209030151367 4.184162139892578 42.2877311706543 3.820602416992188 41.39551544189453 C 2.590522766113281 41.40149688720703 1.393180847167969 40.96764755249023 0.4489173889160156 40.17528533935547 C -0.6186714172363281 39.2786865234375 -1.272953033447266 38.02132415771484 -1.394062042236328 36.63428497314453 L -1.979862213134766 29.93952560424805 C -2.101413726806641 28.55188751220703 -1.675083160400391 27.19986724853516 -0.7794036865234375 26.13271713256836 C 0.018707275390625 25.18179321289062 1.104328155517578 24.55855941772461 2.313259124755859 24.34841156005859 C 2.515384674072266 23.39916229248047 2.76507568359375 22.45973205566406 3.060802459716797 21.53588104248047 C 1.016902923583984 19.81745147705078 0.5878753662109375 16.78244781494141 2.147537231445312 14.55507659912109 L 6.002647399902344 9.049648284912109 C 6.801338195800781 7.908756256103516 7.996799468994141 7.147117614746094 9.368686676025391 6.905216217041016 C 9.66973876953125 6.852054595947266 9.976936340332031 6.825065612792969 10.28130722045898 6.825065612792969 C 11.18893051147461 6.825065612792969 12.06888961791992 7.059768676757812 12.853271484375 7.507724761962891 C 13.62665939331055 6.903057098388672 14.43043518066406 6.337570190429688 15.25924682617188 5.815029144287109 C 14.81936645507812 3.198173522949219 16.43840026855469 0.6183815002441406 19.05277633666992 -0.08239364624023438 L 25.54503631591797 -1.821952819824219 C 25.98593902587891 -1.940105438232422 26.43976593017578 -2.000003814697266 26.8939094543457 -2.000003814697266 Z M 29.54119682312012 9.545207977294922 C 28.38019943237305 9.545207977294922 27.28304672241211 9.175266265869141 26.36833953857422 8.475387573242188 C 25.76890563964844 8.016738891601562 25.28597259521484 7.445430755615234 24.93903350830078 6.790721893310547 L 23.88577651977539 7.072948455810547 C 23.96076965332031 9.051261901855469 22.90455627441406 10.92478942871094 21.07643890380859 11.87809753417969 C 19.45180892944336 12.72539520263672 17.93959808349609 13.78983688354492 16.58191680908203 15.04177474975586 C 15.61758804321289 15.93091583251953 14.35865783691406 16.42054748535156 13.03694915771484 16.42054748535156 C 12.35456466674805 16.42054748535156 11.69036483764648 16.29057693481445 11.07269287109375 16.03953170776367 L 10.45396423339844 16.92317581176758 C 11.80195617675781 18.38957595825195 12.20743179321289 20.51682662963867 11.41609954833984 22.43387603759766 C 10.71817779541016 24.12488555908203 10.24507904052734 25.90617752075195 10.00998687744141 27.72818756103516 C 9.742687225341797 29.80104827880859 8.317378997802734 31.45319366455078 6.398052215576172 32.04628753662109 L 6.490615844726562 33.10442352294922 C 8.493885040283203 33.35494232177734 10.18254470825195 34.74449920654297 10.80409622192383 36.71932601928711 C 11.3530387878418 38.46268463134766 12.12981796264648 40.12618637084961 13.11278915405273 41.66337585449219 C 14.24105072021484 43.42759704589844 14.2062873840332 45.61579513549805 13.10799789428711 47.30457305908203 L 13.85418701171875 48.05071640014648 C 14.68939590454102 47.50788879394531 15.66119766235352 47.21683502197266 16.67523956298828 47.21683502197266 C 17.67190933227539 47.21683502197266 18.64712905883789 47.50352478027344 19.49545669555664 48.04590606689453 C 21.03213882446289 49.02851867675781 22.69466781616211 49.80495452880859 24.43696594238281 50.35371780395508 C 26.43154907226562 50.98245239257812 27.80886459350586 52.68067932128906 28.05310821533203 54.67716598510742 L 29.10648345947266 54.76935577392578 C 29.69737243652344 52.84536743164062 31.3516960144043 51.41628265380859 33.42823028564453 51.14907836914062 C 35.24711608886719 50.91455841064453 37.02628707885742 50.44254684448242 38.7158203125 49.74623870849609 C 39.35709762573242 49.48188781738281 40.03087615966797 49.34782409667969 40.71831512451172 49.34782409667969 C 42.03103637695312 49.34782409667969 43.28366851806641 49.84814834594727 44.23483276367188 50.72269439697266 L 45.11686706542969 50.10509872436523 C 44.3685302734375 48.26511383056641 44.72279357910156 46.08756637573242 46.11066818237305 44.58393859863281 C 47.36084747314453 43.22934722900391 48.42468643188477 41.71993637084961 49.27255630493164 40.09770584106445 C 50.17715835571289 38.36613464355469 51.94519805908203 37.29025650024414 53.88653564453125 37.29025650024414 C 53.95540237426758 37.29025650024414 54.02425384521484 37.2916259765625 54.09309005737305 37.29436492919922 L 54.3741569519043 36.24543762207031 C 52.61735916137695 35.31890869140625 51.52290344238281 33.46093368530273 51.61809539794922 31.39370727539062 C 51.70370864868164 29.54794692993164 51.54599761962891 27.69952774047852 51.14936828613281 25.89913558959961 C 50.70741271972656 23.89130783081055 51.4606819152832 21.88312911987305 53.01708221435547 20.66903305053711 L 52.55339050292969 19.67461776733398 C 52.20490646362305 19.74752044677734 51.84923934936523 19.78422546386719 51.48857879638672 19.78422546386719 C 49.85760879516602 19.78422546386719 48.34961700439453 19.03502655029297 47.35126876831055 17.72873687744141 C 46.22870635986328 16.26221466064453 44.91477966308594 14.94692611694336 43.44690704345703 13.82059478759766 C 43.26426696777344 13.6807861328125 43.08757781982422 13.52600479125977 42.92357635498047 13.36194610595703 C 42.16545867919922 12.60387802124023 41.66552734375 11.64766693115234 41.47807693481445 10.5969352722168 C 41.3603401184082 9.936958312988281 41.37130737304688 9.269153594970703 41.50729370117188 8.621627807617188 L 40.50957107543945 8.156349182128906 C 40.14611053466797 8.618965148925781 39.70639801025391 9.017490386962891 39.20559692382812 9.334636688232422 C 38.37386703491211 9.861354827880859 37.41228485107422 10.13976669311523 36.42480850219727 10.13976669311523 C 36.04275512695312 10.13976669311523 35.65851593017578 10.09761810302734 35.28276824951172 10.01449584960938 C 33.79480743408203 9.685005187988281 32.26645660400391 9.517986297607422 30.73977851867676 9.517986297607422 C 30.42236709594727 9.517986297607422 30.10067749023438 9.525295257568359 29.78365707397461 9.539707183837891 C 29.70290756225586 9.543357849121094 29.6214485168457 9.545207977294922 29.54119682312012 9.545207977294922 Z" stroke="none" fill="#00570e"/>
    </g>
    <path id="Tracciato_1337" data-name="Tracciato 1337" d="M346.125,168.405a2.864,2.864,0,0,0,2.906-2.821,15.059,15.059,0,1,1,15.058,15.285,2.864,2.864,0,0,0,0,5.727A20.787,20.787,0,1,0,343.3,165.5a2.864,2.864,0,0,0,2.821,2.906" transform="translate(315.153 657.705) rotate(9)" fill="#00e275"/>
    <path id="Tracciato_1341" data-name="Tracciato 1341" d="M2.05,16.986a2.081,2.081,0,0,0,2.112-2.05A10.944,10.944,0,1,1,15.105,26.044a2.081,2.081,0,0,0,0,4.162A15.107,15.107,0,1,0,0,14.874a2.081,2.081,0,0,0,2.05,2.112" transform="translate(584.723 910.903) rotate(180)" fill="#00e275"/>
    <g id="Tracciato_1338" data-name="Tracciato 1338" transform="translate(315.153 657.705) rotate(9)" fill="none">
      <path d="M346.125,168.405a2.864,2.864,0,0,0,2.906-2.821,15.059,15.059,0,1,1,15.058,15.285,2.864,2.864,0,0,0,0,5.727A20.787,20.787,0,1,0,343.3,165.5,2.864,2.864,0,0,0,346.125,168.405Z" stroke="none"/>
      <path d="M 364.0888061523438 186.5966796875 C 369.6407470703125 186.5966796875 374.8612060546875 184.4344177246094 378.7868041992188 180.5083618164062 C 386.8916625976562 172.4034729003906 386.8916625976562 159.2160491943359 378.7868041992188 151.1114044189453 C 370.682373046875 143.0065460205078 357.4950256347656 143.0065460205078 349.3901062011719 151.1114044189453 C 345.5462036132812 154.9553070068359 343.3847045898438 160.0647125244141 343.3040161132812 165.4991149902344 C 343.2803344726562 167.0806427001953 344.5436401367188 168.3812713623047 346.1249389648438 168.4051818847656 C 347.7076110839844 168.4304351806641 349.0071105957031 167.1658020019531 349.03076171875 165.5845184326172 C 349.0895385742188 161.6477508544922 350.6553649902344 157.946044921875 353.43994140625 155.1614837646484 C 359.3115844726562 149.2898101806641 368.8652954101562 149.2898406982422 374.7369384765625 155.1612396240234 C 380.60888671875 161.0329132080078 380.60888671875 170.5868530273438 374.7369384765625 176.4585266113281 C 371.8926391601562 179.3028411865234 368.1110229492188 180.8691864013672 364.0885620117188 180.8691864013672 C 362.5067749023438 180.8691864013672 361.2247924804688 182.1514129638672 361.2250366210938 183.7331848144531 C 361.2247924804688 185.3144683837891 362.5067749023438 186.5966796875 364.0888061523438 186.5966796875 M 364.0888061523438 188.5966796875 C 362.7894897460938 188.5966796875 361.5680236816406 188.0907745361328 360.6493530273438 187.1721343994141 C 359.7306823730469 186.2534484863281 359.2248229980469 185.0320281982422 359.2250366210938 183.7328643798828 C 359.2248229980469 182.4342193603516 359.7306213378906 181.2126922607422 360.6492004394531 180.2939300537109 C 361.5678100585938 179.3751678466797 362.7892456054688 178.8691864013672 364.0885620117188 178.8691864013672 C 367.5768127441406 178.8691864013672 370.8562316894531 177.5108184814453 373.3227233886719 175.0443115234375 C 375.7849426269531 172.5822296142578 377.1408996582031 169.3027191162109 377.1408996582031 165.8098907470703 C 377.1408996582031 162.3170471191406 375.7849426269531 159.0375366210938 373.32275390625 156.5754852294922 C 370.8607177734375 154.1135406494141 367.581298828125 152.7577056884766 364.0885620117188 152.7577056884766 C 360.5957336425781 152.7577056884766 357.3162231445312 154.1136322021484 354.8541564941406 156.5756988525391 C 352.4394226074219 158.9904174804688 351.0815124511719 162.2004089355469 351.0305480957031 165.6143798828125 C 351.0113220214844 166.9003601074219 350.4960327148438 168.1054382324219 349.57958984375 169.0076904296875 C 348.646484375 169.9263610839844 347.4056701660156 170.4240417480469 346.0947265625 170.4049530029297 C 343.4130859375 170.3644104003906 341.2640991210938 168.1502227783203 341.3042297363281 165.4691772460938 C 341.3927001953125 159.5123748779297 343.7620544433594 153.9110260009766 347.9758911132812 149.6971893310547 C 350.1473999023438 147.5256958007812 352.6830749511719 145.8439025878906 355.512451171875 144.6985626220703 C 358.2430114746094 143.5932159423828 361.1284484863281 143.0327606201172 364.088623046875 143.0327606201172 C 367.048828125 143.0327606201172 369.9342346191406 143.5932159423828 372.6647338867188 144.6985626220703 C 375.4940795898438 145.8439178466797 378.0296630859375 147.5257110595703 380.2010498046875 149.6972198486328 C 382.3724975585938 151.8686218261719 384.0542907714844 154.4042510986328 385.1996459960938 157.2336120605469 C 386.3049926757812 159.9641418457031 386.8654479980469 162.8495788574219 386.8654479980469 165.8097991943359 C 386.8654479980469 168.7699890136719 386.3049926757812 171.6554565429688 385.1996459960938 174.3860015869141 C 384.0543212890625 177.2154083251953 382.3725280761719 179.7510681152344 380.2010192871094 181.9225769042969 C 375.8976745605469 186.2264099121094 370.1755676269531 188.5966796875 364.0888061523438 188.5966796875 Z" stroke="none" fill="#00570e"/>
    </g>
    <g id="Tracciato_1342" data-name="Tracciato 1342" transform="translate(584.723 910.903) rotate(180)" fill="none">
      <path d="M2.05,16.986a2.081,2.081,0,0,0,2.112-2.05A10.944,10.944,0,1,1,15.105,26.044a2.081,2.081,0,0,0,0,4.162A15.107,15.107,0,1,0,0,14.874,2.081,2.081,0,0,0,2.05,16.986Z" stroke="none"/>
      <path d="M 15.10543346405029 30.20622825622559 C 19.1402645111084 30.20622825622559 22.93417358398438 28.63482856750488 25.78708457946777 25.78159713745117 C 31.67721366882324 19.89143753051758 31.67721366882324 10.30759811401367 25.78708457946777 4.417617797851562 C 19.89724159240723 -1.472521781921387 10.31341361999512 -1.472521781921387 4.423264026641846 4.417617797851562 C 1.629733920097351 7.211137771606445 0.0588839016854763 10.92435836791992 0.0002439013624098152 14.87375831604004 C -0.01696609891951084 16.02311706542969 0.9011238813400269 16.96833801269531 2.050323963165283 16.9857177734375 C 3.199486494064331 17.00301551818848 4.144924163818359 16.08500862121582 4.162113666534424 14.93581771850586 C 4.204823970794678 12.0748176574707 5.342773914337158 9.384628295898438 7.366454124450684 7.360978126525879 C 11.6336030960083 3.09379768371582 18.57669258117676 3.09379768371582 22.84387397766113 7.360797882080078 C 27.11126327514648 11.6279878616333 27.11126327514648 18.57122802734375 22.84387397766113 22.83840751647949 C 20.77679443359375 24.90549850463867 18.02853393554688 26.04382705688477 15.10525417327881 26.04382705688477 C 13.95568370819092 26.04382705688477 13.02401351928711 26.97567749023438 13.02420425415039 28.12521743774414 C 13.02401351928711 29.27439880371094 13.95568370819092 30.20622825622559 15.10543346405029 30.20622825622559 M 15.10543346405029 32.20622634887695 C 14.0151834487915 32.20622634887695 12.990234375 31.78171730041504 12.21939373016357 31.01089859008789 C 11.44848346710205 30.23999786376953 11.02402400970459 29.21505737304688 11.02420425415039 28.12488746643066 C 11.02402400970459 27.03529739379883 11.44842433929443 26.01029777526855 12.21923351287842 25.23935890197754 C 12.99004364013672 24.46840858459473 14.01498413085938 24.04382705688477 15.10525417327881 24.04382705688477 C 17.49432373046875 24.04382705688477 19.7403736114502 23.11348724365234 21.42965316772461 21.42419815063477 C 23.11582374572754 19.73811721801758 24.04441452026367 17.49200820922852 24.04441452026367 15.09960842132568 C 24.04441452026367 12.70719814300537 23.11582374572754 10.46109771728516 21.4296932220459 8.77504825592041 C 19.74365425109863 7.089067935943604 17.49758338928223 6.160567760467529 15.10524368286133 6.160567760467529 C 12.71283435821533 6.160567760467529 10.46672344207764 7.089128017425537 8.780673980712891 8.775188446044922 C 7.126823902130127 10.4290075302124 6.196794033050537 12.62749767303467 6.161893844604492 14.96566772460938 C 6.145753860473633 16.04474830627441 5.713374137878418 17.05593872070312 4.944404125213623 17.81301879882812 C 4.161434650421143 18.58388137817383 3.119840145111084 19.00197410583496 2.020113945007324 18.98548889160156 C -0.2300260961055756 18.95145797729492 -2.033215999603271 17.09350776672363 -1.999536156654358 14.84381771087646 C -1.933136105537415 10.37191772460938 -0.1543861031532288 6.166828155517578 3.009053945541382 3.003397941589355 C 4.639254093170166 1.373208045959473 6.543054103851318 0.1105579882860184 8.667553901672363 -0.7494519948959351 C 10.71741390228271 -1.579241991043091 12.88338375091553 -1.999981999397278 15.1052942276001 -1.999981999397278 C 17.32720375061035 -1.999981999397278 19.4931640625 -1.579241991043091 21.54298400878906 -0.7494419813156128 C 23.6674633026123 0.1105779930949211 25.57120323181152 1.373227953910828 27.20133399963379 3.003437995910645 C 28.83148384094238 4.633547782897949 30.0941333770752 6.537318229675293 30.95414352416992 8.661808013916016 C 31.78394317626953 10.71164798736572 32.20468521118164 12.87761783599854 32.20468521118164 15.09953784942627 C 32.20468521118164 17.32145881652832 31.78394317626953 19.4874382019043 30.95414352416992 21.53729820251465 C 30.0941333770752 23.66180801391602 28.83149337768555 25.56559753417969 27.20130348205566 27.19580841064453 C 23.97067451477051 30.42679786682129 19.67491340637207 32.20622634887695 15.10543346405029 32.20622634887695 Z" stroke="none" fill="#00570e"/>
    </g>
    <ellipse id="Ellisse_64" data-name="Ellisse 64" cx="50.5" cy="6.5" rx="50.5" ry="6.5" transform="translate(570 946.645)" fill="#9d9d9d"/>
  </g>
</svg>
