<svg xmlns="http://www.w3.org/2000/svg" width="109.213" height="93.544" viewBox="0 0 109.213 93.544">
  <g id="Raggruppa_1994" data-name="Raggruppa 1994" transform="translate(-1256.394 -1250.456)">
    <g id="Raggruppa_1935" data-name="Raggruppa 1935" transform="translate(1257.566 1270.205) rotate(-11)">
      <path id="Tracciato_1280" data-name="Tracciato 1280" d="M94.378,59.724H3.978A3.478,3.478,0,0,1,.5,56.247V3.978A3.478,3.478,0,0,1,3.978.5h90.4a3.478,3.478,0,0,1,3.478,3.478V56.247a3.478,3.478,0,0,1-3.478,3.478" transform="translate(-0.5 -0.5)" fill="#00e275"/>
      <rect id="Rettangolo_700" data-name="Rettangolo 700" width="97.356" height="59.224" rx="6" transform="translate(0 0)" fill="none" stroke="#00570e" stroke-width="2"/>
      <path id="Tracciato_1281" data-name="Tracciato 1281" d="M43.7,149.754H26.7a.476.476,0,0,1-.476-.476V145.8a.476.476,0,0,1,.476-.476H43.7a.476.476,0,0,1,.476.476v3.48a.476.476,0,0,1-.476.476" transform="translate(-19.719 -108.689)" fill="#f8f8f8"/>
      <path id="Tracciato_1282" data-name="Tracciato 1282" d="M41.708,44.476H27.945a2.221,2.221,0,0,1-2.218-2.218V34.765a2.221,2.221,0,0,1,2.218-2.218H41.708a2.221,2.221,0,0,1,2.218,2.218v7.493a2.221,2.221,0,0,1-2.218,2.218M27.945,32.8a1.968,1.968,0,0,0-1.965,1.965v7.493a1.968,1.968,0,0,0,1.965,1.965H41.708a1.968,1.968,0,0,0,1.965-1.965V34.765A1.968,1.968,0,0,0,41.708,32.8Z" transform="translate(-19.346 -24.441)" fill="#f8f8f8"/>
      <path id="Tracciato_1283" data-name="Tracciato 1283" d="M132.411,149.754H115.417a.476.476,0,0,1-.476-.476V145.8a.476.476,0,0,1,.476-.476h16.994a.476.476,0,0,1,.476.476v3.48a.476.476,0,0,1-.476.476" transform="translate(-85.993 -108.689)" fill="#f8f8f8"/>
      <path id="Tracciato_1284" data-name="Tracciato 1284" d="M221.125,149.754H204.131a.476.476,0,0,1-.476-.476V145.8a.476.476,0,0,1,.476-.476h16.994a.476.476,0,0,1,.476.476v3.48a.476.476,0,0,1-.476.476" transform="translate(-152.266 -108.689)" fill="#f8f8f8"/>
      <path id="Tracciato_1285" data-name="Tracciato 1285" d="M309.839,149.754H292.845a.476.476,0,0,1-.476-.476V145.8a.476.476,0,0,1,.476-.476h16.994a.476.476,0,0,1,.476.476v3.48a.476.476,0,0,1-.476.476" transform="translate(-218.539 -108.689)" fill="#f8f8f8"/>
      <path id="Tracciato_1286" data-name="Tracciato 1286" d="M243.325,183.872H203.809a.476.476,0,0,1-.476-.476v-3.48a.476.476,0,0,1,.476-.476h39.516a.476.476,0,0,1,.476.476v3.48a.476.476,0,0,1-.476.476" transform="translate(-152.025 -134.176)" fill="#f8f8f8"/>
      <path id="Tracciato_1287" data-name="Tracciato 1287" d="M309.075,51.112h-.759a1.871,1.871,0,0,0-1.869-1.869v-.759a2.631,2.631,0,0,1,2.628,2.628" transform="translate(-229.056 -36.346)" fill="#f8f8f8"/>
      <path id="Tracciato_1288" data-name="Tracciato 1288" d="M311.832,44h-.759a4.1,4.1,0,0,0-4.1-4.1v-.759A4.862,4.862,0,0,1,311.832,44" transform="translate(-229.452 -29.372)" fill="#f8f8f8"/>
      <path id="Tracciato_1289" data-name="Tracciato 1289" d="M315.557,35.8H314.8a6.4,6.4,0,0,0-6.391-6.391v-.759a7.159,7.159,0,0,1,7.15,7.15" transform="translate(-230.521 -21.528)" fill="#f8f8f8"/>
    </g>
    <ellipse id="Ellisse_63" data-name="Ellisse 63" cx="50.5" cy="6.5" rx="50.5" ry="6.5" transform="translate(1261 1331)" fill="#9d9d9d"/>
  </g>
</svg>
