<svg xmlns="http://www.w3.org/2000/svg" xmlns:xlink="http://www.w3.org/1999/xlink" width="127.664" height="133.621" viewBox="0 0 127.664 133.621">
  <defs>
    <clipPath id="clip-path">
      <rect id="Rettangolo_759" data-name="Rettangolo 759" width="126.002" height="106.178" fill="none"/>
    </clipPath>
  </defs>
  <g id="Raggruppa_1993" data-name="Raggruppa 1993" transform="translate(-1237.619 -829.379)">
    <ellipse id="Ellisse_65" data-name="Ellisse 65" cx="50.5" cy="6.5" rx="50.5" ry="6.5" transform="translate(1261 950)" fill="#9d9d9d"/>
    <path id="Tracciato_1343" data-name="Tracciato 1343" d="M51.756,123.924A41.259,41.259,0,1,0,1.728,93.8a41.411,41.411,0,0,0,50.029,30.127" transform="translate(1238.206 810.969)" fill="#00e275"/>
    <path id="Tracciato_1344" data-name="Tracciato 1344" d="M51.756,123.924A41.259,41.259,0,1,0,1.728,93.8,41.411,41.411,0,0,0,51.756,123.924Z" transform="translate(1238.206 810.969)" fill="none" stroke="#00570e" stroke-width="2"/>
    <path id="Tracciato_1345" data-name="Tracciato 1345" d="M56.822,122.662a32.567,32.567,0,1,0-39.488-23.78,32.686,32.686,0,0,0,39.488,23.78" transform="translate(1231.036 803.797)" fill="#0fc06f"/>
    <path id="Tracciato_1346" data-name="Tracciato 1346" d="M57.058,96.813a6.535,6.535,0,0,0-1.72,6.315,6.067,6.067,0,0,0,4.468,4.763,17.091,17.091,0,0,0,4.432.514c.383.006.76.008,1.13.013L66.7,113.8a2.944,2.944,0,0,1-1.209-.331,2.733,2.733,0,0,1-1.057-1.027,1.17,1.17,0,0,0-1.279-.548l-2.222.551-1.062.263a1.731,1.731,0,0,0-1.042,2.619,6.811,6.811,0,0,0,3.491,2.7,10.484,10.484,0,0,0,4.428.5c.36-.027.726-.071,1.1-.129l.423,1.7a1.123,1.123,0,0,0,2.181-.541l-.414-1.671a9.926,9.926,0,0,0,5.463-3.609,6.756,6.756,0,0,0,1.281-3.979,6.855,6.855,0,0,0-.2-1.632,6.089,6.089,0,0,0-5.143-4.835,28.147,28.147,0,0,0-4.981-.395l-1.31-5.282a2.549,2.549,0,0,1,1.891,1.1,1.443,1.443,0,0,0,1.524.583l2.985-.74a1.827,1.827,0,0,0,1.04-2.836c-1.784-2.528-4.826-3.434-8.606-2.811l-.414-1.671a1.123,1.123,0,0,0-2.181.541L61.793,94q-.534.172-1.034.377a10.55,10.55,0,0,0-3.7,2.434M67.71,108.525c1.456.181,2.51.642,2.814,1.869a2.5,2.5,0,0,1-1.615,2.968Zm-3.618-5.253a5.417,5.417,0,0,1-1.211-.34,2.285,2.285,0,0,1-1.443-1.607,2.15,2.15,0,0,1,.509-2.157,2.991,2.991,0,0,1,.97-.634Z" transform="translate(1213.521 789.126)" fill="#00e275"/>
    <path id="Tracciato_1347" data-name="Tracciato 1347" d="M102.977,79.253A41.26,41.26,0,1,0,82.692,24.49a41.411,41.411,0,0,0,20.285,54.764" transform="translate(1202.753 829.997)" fill="#0fc06f"/>
    <path id="Tracciato_1348" data-name="Tracciato 1348" d="M102.977,79.253A41.26,41.26,0,1,0,82.692,24.49,41.411,41.411,0,0,0,102.977,79.253Z" transform="translate(1202.753 829.997)" fill="none" stroke="#00570e" stroke-width="2"/>
    <path id="Tracciato_1349" data-name="Tracciato 1349" d="M113.757,78.515A32.567,32.567,0,1,0,97.746,35.289a32.686,32.686,0,0,0,16.011,43.225" transform="translate(1195.593 822.832)" fill="#00e275"/>
    <path id="Tracciato_1350" data-name="Tracciato 1350" d="M142.492,51.128a6.534,6.534,0,0,0-5.285,3.861,6.067,6.067,0,0,0,.518,6.51,17.124,17.124,0,0,0,3.143,3.168c.3.244.589.48.874.716l-2.316,5.039a2.936,2.936,0,0,1-.738-1.013,2.74,2.74,0,0,1-.185-1.462,1.17,1.17,0,0,0-.658-1.227l-2.08-.956-.994-.457a1.731,1.731,0,0,0-2.449,1.4,6.815,6.815,0,0,0,1.039,4.292,10.5,10.5,0,0,0,3.149,3.153q.448.305.936.582l-.733,1.6a1.123,1.123,0,1,0,2.042.938l.719-1.564a9.928,9.928,0,0,0,6.521.59,6.758,6.758,0,0,0,3.485-2.309,6.9,6.9,0,0,0,.858-1.4,6.089,6.089,0,0,0-1-6.987,28.183,28.183,0,0,0-3.646-3.417l2.273-4.945a2.549,2.549,0,0,1,.79,2.042,1.443,1.443,0,0,0,.827,1.406l2.794,1.284a1.827,1.827,0,0,0,2.583-1.566c.183-3.088-1.628-5.7-4.97-7.568l.719-1.564a1.123,1.123,0,1,0-2.042-.938l-.719,1.564c-.349-.132-.7-.25-1.042-.351a10.554,10.554,0,0,0-4.411-.408m1.013,15.8c1.025,1.051,1.56,2.069,1.033,3.218a2.5,2.5,0,0,1-3.114,1.312Zm.452-6.362a5.431,5.431,0,0,1-.734-1.021,2.285,2.285,0,0,1-.124-2.157,2.15,2.15,0,0,1,1.744-1.367,3,3,0,0,1,1.153.11Z" transform="translate(1178.646 807.777)" fill="#0fc06f"/>
  </g>
</svg>
