<svg xmlns="http://www.w3.org/2000/svg" xmlns:xlink="http://www.w3.org/1999/xlink" width="122" height="82.289" viewBox="0 0 122 82.289">
  <defs>
    <linearGradient id="linear-gradient" x1="0.5" x2="0.5" y2="1" gradientUnits="objectBoundingBox">
      <stop offset="0" stop-color="#00e275"/>
      <stop offset="1" stop-color="#27bf76"/>
    </linearGradient>
  </defs>
  <g id="Raggruppa_1982" data-name="Raggruppa 1982" transform="translate(-446 -1188)">
    <circle id="Ellisse_34" data-name="Ellisse 34" cx="28" cy="28" r="28" transform="translate(446 1199)" fill="#edf6ff"/>
    <circle id="Ellisse_35" data-name="Ellisse 35" cx="13" cy="13" r="13" transform="translate(542 1229)" fill="#edf6ff"/>
    <g id="Raggruppa_1692" data-name="Raggruppa 1692" transform="translate(456 1188)">
      <path id="Tracciato_991" data-name="Tracciato 991" d="M157,134.867l-.3-.831a24.09,24.09,0,0,0,3.816-3.209l.775.448a2.85,2.85,0,0,0,3.888-1.042l2.975-5.154a2.85,2.85,0,0,0-1.042-3.888l-.783-.452a23.95,23.95,0,0,0,.852-4.9l.907-.16a2.846,2.846,0,0,0,2.309-3.3l-1.033-5.86a2.85,2.85,0,0,0-3.3-2.309l-.922.163a23.935,23.935,0,0,0-2.484-4.281l.612-.729a2.846,2.846,0,0,0-.351-4.01l-4.558-3.825a2.846,2.846,0,0,0-4.01.351l-.618.737a23.823,23.823,0,0,0-4.638-1.685v-.969a2.849,2.849,0,0,0-2.846-2.846H140.3a2.85,2.85,0,0,0-2.846,2.846v.969a23.836,23.836,0,0,0-4.635,1.684l-.624-.744a2.85,2.85,0,0,0-4.01-.351l-4.559,3.825a2.846,2.846,0,0,0-.351,4.01l.617.735a23.949,23.949,0,0,0-2.481,4.274l-.936-.165a2.846,2.846,0,0,0-3.3,2.309l-1.033,5.86a2.85,2.85,0,0,0,2.309,3.3l.917.162a23.929,23.929,0,0,0,.847,4.889l-.8.46a2.85,2.85,0,0,0-1.042,3.888l2.975,5.153a2.85,2.85,0,0,0,3.888,1.042l.781-.451a24.066,24.066,0,0,0,3.809,3.209l-.306.841a2.846,2.846,0,0,0,1.7,3.648l5.592,2.035a2.846,2.846,0,0,0,3.648-1.7l.3-.828a24.172,24.172,0,0,0,4.992,0l.3.83a2.846,2.846,0,0,0,3.648,1.7l5.592-2.035a2.85,2.85,0,0,0,1.7-3.648m-3.993-.2.243.667-4.015,1.461-.243-.666a2.828,2.828,0,0,0-2.668-1.872,2.9,2.9,0,0,0-.383.025,20.5,20.5,0,0,1-5.357,0,2.83,2.83,0,0,0-3.054,1.846l-.242.665-4.015-1.461.246-.677a2.833,2.833,0,0,0-1.147-3.373,20.378,20.378,0,0,1-4.088-3.445,2.831,2.831,0,0,0-3.529-.552l-.631.365-2.136-3.7.645-.372a2.833,2.833,0,0,0,1.29-3.322,20.253,20.253,0,0,1-.909-5.247,2.865,2.865,0,0,0-2.349-2.694l-.747-.132.742-4.208.764.135a2.832,2.832,0,0,0,3.123-1.714,20.259,20.259,0,0,1,2.665-4.59,2.831,2.831,0,0,0-.069-3.572l-.506-.6,3.273-2.746.512.61a2.832,2.832,0,0,0,3.5.692A20.143,20.143,0,0,1,138.9,94.38a2.831,2.831,0,0,0,2.24-2.78v-.8h4.273v.8a2.831,2.831,0,0,0,2.24,2.78,20.133,20.133,0,0,1,4.979,1.809,2.832,2.832,0,0,0,3.5-.691l.506-.6,3.273,2.746-.5.6a2.831,2.831,0,0,0-.069,3.572,20.255,20.255,0,0,1,2.667,4.6,2.832,2.832,0,0,0,3.123,1.715l.749-.132.742,4.208-.738.13a2.865,2.865,0,0,0-2.349,2.692,20.248,20.248,0,0,1-.913,5.254,2.833,2.833,0,0,0,1.289,3.324l.632.365-2.136,3.7-.625-.361a2.831,2.831,0,0,0-3.528.55,20.394,20.394,0,0,1-4.1,3.444,2.832,2.832,0,0,0-1.149,3.375" transform="translate(-97.495 -73.16)" fill="url(#linear-gradient)"/>
      <path id="Tracciato_992" data-name="Tracciato 992" d="M222.561,192.638a1.843,1.843,0,0,0-.039,2.606,9.69,9.69,0,1,1-13.805-.1,1.843,1.843,0,1,0-2.606-2.606,13.375,13.375,0,1,0,19.056.142,1.843,1.843,0,0,0-2.606-.039" transform="translate(-169.796 -161.231)" fill="url(#linear-gradient)"/>
      <path id="Tracciato_993" data-name="Tracciato 993" d="M259.052,174.884a9.759,9.759,0,0,1,5.631.286,1.843,1.843,0,1,0,1.25-3.467,13.443,13.443,0,0,0-7.769-.4,1.843,1.843,0,1,0,.888,3.577" transform="translate(-215.623 -143.528)" fill="url(#linear-gradient)"/>
      <path id="Tracciato_994" data-name="Tracciato 994" d="M376.667,152.464a1.843,1.843,0,0,0-3.413,1.39,37.105,37.105,0,0,1-17.811,47.169l2.6-5.2-5.032,1.679-3.949,7.9,7.9,3.949L362,207.68l-5.835-2.913a40.805,40.805,0,0,0,20.505-52.3" transform="translate(-293.13 -127.071)" fill="url(#linear-gradient)"/>
      <path id="Tracciato_995" data-name="Tracciato 995" d="M76.6,19.794a1.842,1.842,0,0,0,2.569-.439A37.029,37.029,0,0,1,109.447,3.684a36.9,36.9,0,0,1,26.707,11.359l-5.753-.912,3.119,4.291,8.727,1.381,1.381-8.727-3.119-4.291-1.016,6.433A40.781,40.781,0,0,0,90.418,4.705a41.1,41.1,0,0,0-14.254,12.52,1.842,1.842,0,0,0,.439,2.569" transform="translate(-63.675 0.001)" fill="url(#linear-gradient)"/>
      <path id="Tracciato_996" data-name="Tracciato 996" d="M46.339,217.673h-.028q-.268,0-.538,0a37.1,37.1,0,0,1-36.533-43.42l2.659,5.175,1.621-5.051-4.04-7.858-7.858,4.04L0,175.614l5.791-2.979a41.018,41.018,0,0,0-.779,7.967,40.751,40.751,0,0,0,40.761,40.761q.3,0,.593,0a1.843,1.843,0,0,0-.027-3.685" transform="translate(0 -139.841)" fill="url(#linear-gradient)"/>
    </g>
  </g>
</svg>
