<svg xmlns="http://www.w3.org/2000/svg" width="241.352" height="140.984" viewBox="0 0 241.352 140.984">
  <g id="Raggruppa_1979" data-name="Raggruppa 1979" transform="translate(-1359.827 -2417.332)">
    <path id="Tracciato_1317" data-name="Tracciato 1317" d="M0,6.986C5.686,6.986,5.686,0,11.371,0s5.686,6.986,11.371,6.986S28.428,0,34.114,0,39.8,6.986,45.485,6.986,51.171,0,56.856,0s5.686,6.986,11.372,6.986S73.914,0,79.6,0s5.686,6.986,11.373,6.986S96.659,0,102.345,0" transform="translate(1359.827 2481.501)" fill="none" stroke="#03d06d" stroke-width="2"/>
    <g id="Ellisse_61" data-name="Ellisse 61" transform="translate(1561.903 2417.332)" fill="none" stroke="#5dbc7c" stroke-width="2">
      <ellipse cx="14.5" cy="14.5" rx="14.5" ry="14.5" stroke="none"/>
      <ellipse cx="14.5" cy="14.5" rx="13.5" ry="13.5" fill="none"/>
    </g>
    <rect id="Rettangolo_736" data-name="Rettangolo 736" width="169.359" height="102.818" rx="5" transform="translate(1431.321 2454.998)" fill="none" stroke="#000" stroke-width="1"/>
    <path id="Tracciato_1316" data-name="Tracciato 1316" d="M1431.321,2464.334h169.12" fill="none" stroke="#000" stroke-width="1"/>
    <g id="Raggruppa_1850" data-name="Raggruppa 1850" transform="translate(6)">
      <g id="Rettangolo_737" data-name="Rettangolo 737" transform="translate(1446 2506)" fill="#c6def5" stroke="#000" stroke-width="1">
        <rect width="8" height="40" stroke="none"/>
        <rect x="0.5" y="0.5" width="7" height="39" fill="none"/>
      </g>
      <g id="Rettangolo_738" data-name="Rettangolo 738" transform="translate(1458 2519)" fill="#c6def5" stroke="#000" stroke-width="1">
        <rect width="8" height="27" stroke="none"/>
        <rect x="0.5" y="0.5" width="7" height="26" fill="none"/>
      </g>
      <g id="Rettangolo_739" data-name="Rettangolo 739" transform="translate(1470 2505)" fill="#c6def5" stroke="#000" stroke-width="1">
        <rect width="8" height="41" stroke="none"/>
        <rect x="0.5" y="0.5" width="7" height="40" fill="none"/>
      </g>
      <g id="Rettangolo_740" data-name="Rettangolo 740" transform="translate(1482 2505)" fill="#c6def5" stroke="#000" stroke-width="1">
        <rect width="8" height="41" stroke="none"/>
        <rect x="0.5" y="0.5" width="7" height="40" fill="none"/>
      </g>
      <g id="Rettangolo_744" data-name="Rettangolo 744" transform="translate(1530 2497)" fill="#c6def5" stroke="#000" stroke-width="1">
        <rect width="8" height="49" stroke="none"/>
        <rect x="0.5" y="0.5" width="7" height="48" fill="none"/>
      </g>
      <g id="Rettangolo_745" data-name="Rettangolo 745" transform="translate(1542 2492)" fill="#c6def5" stroke="#000" stroke-width="1">
        <rect width="8" height="54" stroke="none"/>
        <rect x="0.5" y="0.5" width="7" height="53" fill="none"/>
      </g>
      <g id="Rettangolo_741" data-name="Rettangolo 741" transform="translate(1494 2489)" fill="#c6def5" stroke="#000" stroke-width="1">
        <rect width="8" height="57" stroke="none"/>
        <rect x="0.5" y="0.5" width="7" height="56" fill="none"/>
      </g>
      <g id="Rettangolo_746" data-name="Rettangolo 746" transform="translate(1554 2489)" fill="#c6def5" stroke="#000" stroke-width="1">
        <rect width="8" height="57" stroke="none"/>
        <rect x="0.5" y="0.5" width="7" height="56" fill="none"/>
      </g>
      <g id="Rettangolo_742" data-name="Rettangolo 742" transform="translate(1506 2481)" fill="#c6def5" stroke="#000" stroke-width="1">
        <rect width="8" height="65" stroke="none"/>
        <rect x="0.5" y="0.5" width="7" height="64" fill="none"/>
      </g>
      <g id="Rettangolo_743" data-name="Rettangolo 743" transform="translate(1518 2481)" fill="#c6def5" stroke="#000" stroke-width="1">
        <rect width="8" height="65" stroke="none"/>
        <rect x="0.5" y="0.5" width="7" height="64" fill="none"/>
      </g>
      <g id="Rettangolo_747" data-name="Rettangolo 747" transform="translate(1566 2473)" fill="#c6def5" stroke="#000" stroke-width="1">
        <rect width="8" height="73" stroke="none"/>
        <rect x="0.5" y="0.5" width="7" height="72" fill="none"/>
      </g>
    </g>
    <g id="Ellisse_58" data-name="Ellisse 58" transform="translate(1440 2458)" fill="#fff" stroke="red" stroke-width="1">
      <circle cx="2" cy="2" r="2" stroke="none"/>
      <circle cx="2" cy="2" r="1.5" fill="none"/>
    </g>
    <g id="Ellisse_59" data-name="Ellisse 59" transform="translate(1446 2458)" fill="#fff" stroke="#ffba00" stroke-width="1">
      <circle cx="2" cy="2" r="2" stroke="none"/>
      <circle cx="2" cy="2" r="1.5" fill="none"/>
    </g>
    <g id="Ellisse_60" data-name="Ellisse 60" transform="translate(1452 2458)" fill="#fff" stroke="#03d06d" stroke-width="1">
      <circle cx="2" cy="2" r="2" stroke="none"/>
      <circle cx="2" cy="2" r="1.5" fill="none"/>
    </g>
  </g>
</svg>
