<svg xmlns="http://www.w3.org/2000/svg" xmlns:xlink="http://www.w3.org/1999/xlink" width="109" height="85.627" viewBox="0 0 109 85.627">
  <defs>
    <linearGradient id="linear-gradient" x1="0.5" x2="0.5" y2="1" gradientUnits="objectBoundingBox">
      <stop offset="0" stop-color="#00e275"/>
      <stop offset="1" stop-color="#27bf76"/>
    </linearGradient>
    <clipPath id="clip-path">
      <rect id="Rettangolo_524" data-name="Rettangolo 524" width="80.622" height="85.627" fill="url(#linear-gradient)"/>
    </clipPath>
  </defs>
  <g id="Raggruppa_1981" data-name="Raggruppa 1981" transform="translate(-910 -1185)">
    <circle id="Ellisse_37" data-name="Ellisse 37" cx="28" cy="28" r="28" transform="translate(1019 1255) rotate(180)" fill="#edf6ff"/>
    <circle id="Ellisse_36" data-name="Ellisse 36" cx="13" cy="13" r="13" transform="translate(936 1255) rotate(180)" fill="#edf6ff"/>
    <g id="Raggruppa_1694" data-name="Raggruppa 1694" transform="translate(920 1185)">
      <g id="Raggruppa_1693" data-name="Raggruppa 1693" clip-path="url(#clip-path)">
        <path id="Tracciato_997" data-name="Tracciato 997" d="M191.261,0c-.04.036-.075.095-.121.106a6.192,6.192,0,0,0-4.55,4.557c-.6,1.853-1.12,3.729-1.687,5.591-.076.251-.054.675-.315.695s-.3-.408-.421-.641a8.438,8.438,0,0,0-3.821-3.836,4.813,4.813,0,0,0-6.76,2.45,11.207,11.207,0,0,0-.833,3.306c-.358,2.677-.7,5.355-1.054,8.033-.014.11-.034.22-.049.331-.046.341-.183.4-.5.23a6.181,6.181,0,0,0-3.047-.744,4.383,4.383,0,0,0-4.12,2.627,7.962,7.962,0,0,0-.765,2.974c-.194,2.835-.35,5.672-.519,8.509q-.308,5.172-.61,10.345c-.034.584-.059,1.169-.06,1.754-.005,3.539.042,7.079-.017,10.617a27.509,27.509,0,0,0,1.094,7.911c.532,1.9,1.116,3.79,1.494,5.732.064.328.1.662.172.986a.389.389,0,0,1-.262.523,1.828,1.828,0,0,0-1.107,1.958c.007,3.177,0,6.353.006,9.53,0,1.475.618,2.084,2.084,2.084q16.408,0,32.816,0c1.441,0,2.04-.581,2.045-2.02.012-3.2,0-6.409.008-9.614a1.792,1.792,0,0,0-1.107-1.948c-.287-.11-.233-.318-.185-.551a5.8,5.8,0,0,1,1.535-2.914,14.478,14.478,0,0,1,2.053-1.7c1.062-.763,2.145-1.5,3.157-2.328a15.149,15.149,0,0,0,4.686-6.391,24.267,24.267,0,0,1,3.906-6.857c1.606-1.96,1.4-3.96-.481-5.682a2,2,0,0,0-.318-.27c-.364-.213-.321-.426-.082-.732a5.8,5.8,0,0,0,1.2-2.894,3.677,3.677,0,0,0-2.068-4,69.957,69.957,0,0,1-9.482-5.743c-1.007-.744-1.961-1.559-3.007-2.251a10.381,10.381,0,0,0-4.589-1.868,5.821,5.821,0,0,0-1.414,0c-.77.1-.776.094-.541-.686q1.537-5.114,3.078-10.227,1-3.317,1.987-6.635a8.268,8.268,0,0,0-.513-6.484A6.994,6.994,0,0,0,193.626.171c-.133-.035-.278-.035-.361-.171Zm-9.332,82.282q-7.224,0-14.449,0c-.723,0-.73-.009-.732-.732q-.007-2.759,0-5.519c0-.753.009-.758.8-.759q3.132,0,6.264,0a5.633,5.633,0,0,0,.833-.029,1.655,1.655,0,0,0,.326-3.186,2.528,2.528,0,0,0-.985-.129c-1.726,0-3.452-.014-5.178.009-.443.006-.634-.124-.692-.577a53.56,53.56,0,0,0-1.813-7.541,24.149,24.149,0,0,1-.945-6.84c.053-3.539.011-7.079.017-10.619,0-.585.026-1.17.06-1.754q.294-5.007.6-10.013c.173-2.893.342-5.786.522-8.678a4.687,4.687,0,0,1,.4-1.7,1.289,1.289,0,0,1,1.335-.8,2.529,2.529,0,0,1,2.569,3.113q-.947,7.163-1.927,14.323a2.613,2.613,0,0,0,0,1,1.668,1.668,0,0,0,3.29-.319q.579-4.221,1.141-8.444,1.37-10.31,2.735-20.62a6.545,6.545,0,0,1,.577-2.254,1.469,1.469,0,0,1,2.077-.8,3.76,3.76,0,0,1,1.373.93,6.041,6.041,0,0,1,1.7,5.127c-.3,2.4-.63,4.8-.943,7.207-.383,2.933-1.061,5.75-3.091,8.051a4.711,4.711,0,0,0-.5.769,10.09,10.09,0,0,0-1.417,4.752,1.609,1.609,0,0,0,1.424,1.685,1.65,1.65,0,0,0,1.81-1.264c.1-.375.128-.767.193-1.151a8.075,8.075,0,0,1,1.829-3.7,11.138,11.138,0,0,0,2.085-4.144c.369-1.37.8-2.723,1.2-4.083q2.6-8.718,5.2-17.436a5.752,5.752,0,0,1,.772-1.748,2.237,2.237,0,0,1,2.86-.855,3.985,3.985,0,0,1,2.189,2.292,5.514,5.514,0,0,1-.036,3.841c-1.929,6.392-3.869,12.78-5.75,19.186a1.751,1.751,0,0,1-1.325,1.374,6.838,6.838,0,0,0-3.08,1.926,1.633,1.633,0,0,0,.516,2.7,1.668,1.668,0,0,0,1.855-.366,4.1,4.1,0,0,1,1.521-1.006,14.547,14.547,0,0,0,3.367-1.629,4.318,4.318,0,0,1,4.523-.118,17.466,17.466,0,0,1,2.909,1.946,48.243,48.243,0,0,0,4.282,3.052c2.137,1.36,4.329,2.624,6.588,3.77.679.345.733.464.516,1.177a2.65,2.65,0,0,1-2.351,1.957,7.642,7.642,0,0,1-4.006-.532,30.117,30.117,0,0,1-3.894-2.085,14.955,14.955,0,0,0-3.075-1.479,4.9,4.9,0,0,0-5.115,1.09,38.707,38.707,0,0,0-2.845,2.824,10.065,10.065,0,0,0-1.685,2.477,4.771,4.771,0,0,0,.382,4.995,17.786,17.786,0,0,0,3.546,3.754,4.9,4.9,0,0,0,5.177.718,13.937,13.937,0,0,0,6.453-4.837c.289-.409.611-.8.907-1.2a5.579,5.579,0,0,1,3.811-2.18,3.513,3.513,0,0,1,3.025.869c.559.5.581.633.086,1.228a25.289,25.289,0,0,0-4.252,7.428,11.9,11.9,0,0,1-3.965,5.371c-1.213.933-2.467,1.813-3.7,2.724a9.638,9.638,0,0,0-4.114,6.528c-.075.527-.321.6-.772.591-1.67-.021-3.341-.009-5.011-.008a5.366,5.366,0,0,0-.667.015,1.673,1.673,0,0,0-1.506,1.709,1.642,1.642,0,0,0,1.6,1.61c.249.019.5.01.751.01,2.06,0,4.12,0,6.18,0,.72,0,.73.01.733.745.006,1.84,0,3.679,0,5.519,0,.056-.005.112,0,.167.039.41-.094.642-.556.582a4.588,4.588,0,0,0-.584,0H181.929m14.186-39.667a4.439,4.439,0,0,1,2.111.664c1.6.837,3.087,1.88,4.743,2.616.314.14.254.274.053.467a13.15,13.15,0,0,0-1.683,2.071,10.915,10.915,0,0,1-4.952,3.811,1.932,1.932,0,0,1-2.231-.308,20.418,20.418,0,0,1-2.623-2.8,1.579,1.579,0,0,1-.225-1.584,3.854,3.854,0,0,1,.516-.948A23.558,23.558,0,0,1,195.284,43a1.3,1.3,0,0,1,.831-.382" transform="translate(-162.009)" fill="url(#linear-gradient)"/>
        <path id="Tracciato_998" data-name="Tracciato 998" d="M354.183,432.6a1.676,1.676,0,0,0,1.661-1.625,1.7,1.7,0,0,0-1.678-1.7A1.676,1.676,0,0,0,352.516,431a1.649,1.649,0,0,0,1.666,1.608" transform="translate(-334.292 -357.343)" fill="url(#linear-gradient)"/>
        <path id="Tracciato_999" data-name="Tracciato 999" d="M104.113,98.629a1.924,1.924,0,0,0,1.548-.778l10.123-13.628a1.927,1.927,0,0,0-3.094-2.3L102.568,95.553a1.927,1.927,0,0,0,1.545,3.076" transform="translate(-52.666 -67.55)" fill="url(#linear-gradient)"/>
        <path id="Tracciato_1000" data-name="Tracciato 1000" d="M1.926,244.968H1.94l16.976-.116A1.927,1.927,0,1,0,18.889,241l-16.976.116a1.927,1.927,0,0,0,.013,3.854" transform="translate(59.792 -200.614)" fill="url(#linear-gradient)"/>
        <path id="Tracciato_1001" data-name="Tracciato 1001" d="M78.4,355.659a1.927,1.927,0,0,0,1.53-3.1L69.62,339.074a1.927,1.927,0,1,0-3.062,2.34L76.867,354.9a1.924,1.924,0,0,0,1.532.757" transform="translate(-10.79 -281.627)" fill="url(#linear-gradient)"/>
      </g>
    </g>
  </g>
</svg>
