<svg xmlns="http://www.w3.org/2000/svg" xmlns:xlink="http://www.w3.org/1999/xlink" width="178.552" height="97.48" viewBox="0 0 178.552 97.48">
  <defs>
    <linearGradient id="linear-gradient" x1="0.5" x2="0.5" y2="1" gradientUnits="objectBoundingBox">
      <stop offset="0" stop-color="#00e275"/>
      <stop offset="1" stop-color="#27bf76"/>
    </linearGradient>
    <clipPath id="clip-path">
      <rect id="Rettangolo_525" data-name="Rettangolo 525" width="83.549" height="82.844" fill="url(#linear-gradient)"/>
    </clipPath>
  </defs>
  <g id="Raggruppa_1983" data-name="Raggruppa 1983" transform="translate(-1335 -1188)">
    <circle id="Ellisse_39" data-name="Ellisse 39" cx="28" cy="28" r="28" transform="matrix(-0.848, 0.53, -0.53, -0.848, 1412.166, 1255.805)" fill="#edf6ff"/>
    <circle id="Ellisse_38" data-name="Ellisse 38" cx="13" cy="13" r="13" transform="matrix(-0.848, 0.53, -0.53, -0.848, 1513.552, 1227.363)" fill="#edf6ff"/>
    <g id="Raggruppa_1696" data-name="Raggruppa 1696" transform="translate(1379 1188)">
      <g id="Raggruppa_1695" data-name="Raggruppa 1695" clip-path="url(#clip-path)">
        <path id="Tracciato_1002" data-name="Tracciato 1002" d="M504.937,185a1.821,1.821,0,0,0-1.821,1.821v8.938a1.821,1.821,0,0,0,3.642,0V186.82A1.821,1.821,0,0,0,504.937,185" transform="translate(-423.217 -155.62)" fill="url(#linear-gradient)"/>
        <path id="Tracciato_1003" data-name="Tracciato 1003" d="M83.549,19.621a9.086,9.086,0,0,0-9.074-9.074h-.919a4.686,4.686,0,0,0,.184-1.309V4.788A4.793,4.793,0,0,0,68.953,0H30.6a4.793,4.793,0,0,0-4.786,4.788v4.45A4.686,4.686,0,0,0,26,10.546h-.92a9.085,9.085,0,0,0-9.074,9.074V39.545a22.023,22.023,0,0,0,6.017,43.209q.741,0,1.467-.049a9.049,9.049,0,0,0,1.59.14H74.475a9.086,9.086,0,0,0,9.074-9.074V47.7a1.826,1.826,0,1,0-3.653,0V73.77a5.429,5.429,0,0,1-5.422,5.422h-7.6a5.061,5.061,0,0,0,4.717-5.044V71.761a5.064,5.064,0,0,0-3.3-4.742,5.031,5.031,0,0,0,.3-1.715V62.917a5.046,5.046,0,0,0-.2-1.4h.8a5.061,5.061,0,0,0,5.055-5.056V54.073a5.028,5.028,0,0,0-1.356-3.441,5.033,5.033,0,0,0,1-3.017V45.227a5.061,5.061,0,0,0-5.055-5.055H66.449a5,5,0,0,0,.2-1.4V36.383a5.046,5.046,0,0,0-.2-1.4H68.82a5.061,5.061,0,0,0,5.056-5.055V27.539a5.061,5.061,0,0,0-5.056-5.055H36.007a5.061,5.061,0,0,0-5.056,5.055v2.387a5.046,5.046,0,0,0,.2,1.4H28.778a5.061,5.061,0,0,0-5.055,5.055v2.392q-.841-.064-1.7-.065a21.945,21.945,0,0,0-2.365.127V19.621A5.429,5.429,0,0,1,25.081,14.2H74.475A5.429,5.429,0,0,1,79.9,19.621V23.85a1.826,1.826,0,0,0,3.653,0ZM67.94,74.148a1.4,1.4,0,0,1-1.4,1.4H38.3a22.063,22.063,0,0,0,3.529-5.191H66.537a1.4,1.4,0,0,1,1.4,1.4ZM43.221,66.706a21.871,21.871,0,0,0,.81-5.191h19.5a1.4,1.4,0,0,1,1.4,1.4V65.3a1.4,1.4,0,0,1-1.4,1.4ZM70.59,56.458a1.4,1.4,0,0,1-1.4,1.4H43.858a21.763,21.763,0,0,0-1.34-5.193h26.67a1.4,1.4,0,0,1,1.4,1.4ZM68.834,43.825a1.4,1.4,0,0,1,1.4,1.4v2.387a1.4,1.4,0,0,1-1.4,1.4H40.664a22.212,22.212,0,0,0-4.544-5.191H68.834ZM34.6,27.539a1.4,1.4,0,0,1,1.4-1.4H68.82a1.4,1.4,0,0,1,1.4,1.4v2.387a1.4,1.4,0,0,1-1.4,1.4H36.007a1.4,1.4,0,0,1-1.4-1.4Zm-7.227,8.844a1.4,1.4,0,0,1,1.4-1.4H61.592a1.4,1.4,0,0,1,1.4,1.4V38.77a1.4,1.4,0,0,1-1.4,1.4H29.918a22.056,22.056,0,0,0-2.39-.767,1.4,1.4,0,0,1-.152-.635Zm-5.352,5.979a18.415,18.415,0,0,1,3.6.354,18.181,18.181,0,0,1,3.583,1.108,17.532,17.532,0,0,1,1.783.88,18.274,18.274,0,0,1,3.627,2.668,17.981,17.981,0,0,1,1.544,1.644s0,0,0,0a18.316,18.316,0,0,1,4.229,11.711c0,.262,0,.524-.017.783a18.262,18.262,0,0,1-2.714,8.844,18.459,18.459,0,0,1-4.583,5.033,18.267,18.267,0,0,1-9.347,3.629c-.562.054-1.132.081-1.707.081a18.369,18.369,0,0,1-6.017-35.726,18.349,18.349,0,0,1,6.017-1.013M70.087,9.238a1.135,1.135,0,0,1-1.134,1.134H67.66V6.416a1.826,1.826,0,0,0-3.653,0v3.956h-2.77V6.416a1.826,1.826,0,0,0-3.653,0v3.956h-2.77V6.416a1.826,1.826,0,1,0-3.653,0v3.956h-2.77V6.416a1.826,1.826,0,0,0-3.653,0v3.956H41.97V6.416a1.826,1.826,0,1,0-3.653,0v3.956h-2.77V6.416a1.826,1.826,0,1,0-3.653,0v3.956H30.6a1.135,1.135,0,0,1-1.134-1.134V4.788A1.136,1.136,0,0,1,30.6,3.653H68.953a1.136,1.136,0,0,1,1.134,1.135Z" fill="url(#linear-gradient)"/>
        <path id="Tracciato_1004" data-name="Tracciato 1004" d="M86.019,299.595a5.712,5.712,0,0,0-2.789,5,5.3,5.3,0,0,0,2.789,4.982,14.942,14.942,0,0,0,3.653,1.369c.324.086.643.167.956.249v4.848a2.563,2.563,0,0,1-.956-.535,2.389,2.389,0,0,1-.681-1.093,1.023,1.023,0,0,0-.97-.734H85.062a1.513,1.513,0,0,0-1.436,2,5.957,5.957,0,0,0,2.392,3.03,9.168,9.168,0,0,0,3.653,1.355q.467.079.956.121v1.535a.982.982,0,1,0,1.964,0v-1.5a8.678,8.678,0,0,0,5.395-1.912,5.908,5.908,0,0,0,1.925-3.106,6.015,6.015,0,0,0,.17-1.428,5.323,5.323,0,0,0-3.346-5.185,24.638,24.638,0,0,0-4.143-1.383v-4.758a2.23,2.23,0,0,1,1.373,1.333,1.261,1.261,0,0,0,1.17.815h2.689A1.6,1.6,0,0,0,99.3,302.4c-.982-2.52-3.372-3.929-6.711-4.2v-1.5a.982.982,0,1,0-1.964,0v1.5q-.488.033-.956.1a9.226,9.226,0,0,0-3.653,1.286m6.573,12.179c1.2.461,1.995,1.074,1.995,2.179a2.189,2.189,0,0,1-1.995,2.179Zm-1.964-5.218a4.752,4.752,0,0,1-.956-.543,2,2,0,0,1-.886-1.667,1.88,1.88,0,0,1,.886-1.723,2.621,2.621,0,0,1,.956-.333Z" transform="translate(-70.012 -248.757)" fill="url(#linear-gradient)"/>
      </g>
    </g>
  </g>
</svg>
