<svg xmlns="http://www.w3.org/2000/svg" xmlns:xlink="http://www.w3.org/1999/xlink" width="818.544" height="744.986" viewBox="0 0 818.544 744.986">
  <defs>
    <clipPath id="clip-path">
      <rect id="Rettangolo_518" data-name="Rettangolo 518" width="773.338" height="675.066" fill="none"/>
    </clipPath>
    <clipPath id="clip-path-3">
      <rect id="Rettangolo_516" data-name="Rettangolo 516" width="481.034" height="483.374" fill="none"/>
    </clipPath>
  </defs>
  <g id="Raggruppa_1697" data-name="Raggruppa 1697" transform="translate(-884.059 -106.014)">
    <ellipse id="Ellisse_33" data-name="Ellisse 33" cx="77.5" cy="10.5" rx="77.5" ry="10.5" transform="translate(1216 830)" fill="#6d8193"/>
    <g id="Raggruppa_1691" data-name="Raggruppa 1691" transform="matrix(0.998, 0.07, -0.07, 0.998, 931.149, 106.014)">
      <g id="Raggruppa_1690" data-name="Raggruppa 1690" clip-path="url(#clip-path)">
        <g id="Raggruppa_1689" data-name="Raggruppa 1689">
          <g id="Raggruppa_1688" data-name="Raggruppa 1688" clip-path="url(#clip-path)">
            <path id="Tracciato_905" data-name="Tracciato 905" d="M467.456,206.175h0a20.279,20.279,0,0,0-.489-11.475,18.6,18.6,0,0,0-7.23-8.5s1.246.434,3.115,1.083c1.858.674,4.381,1.464,6.83,2.437l9.641,4.292a23.727,23.727,0,0,0,.208,11.772,19.546,19.546,0,0,0,5.946,9.51,19.407,19.407,0,0,0,.844-11.271,17.95,17.95,0,0,0-2.13-5.129,15.4,15.4,0,0,0-3.847-4.427s.671.3,1.678.748c.987.489,2.258,1.23,3.55,1.932l5.148,2.842a22.116,22.116,0,0,0,3.533,4.856,20.3,20.3,0,0,0,4.252,3.784,21.019,21.019,0,0,0,11.307,3.207,20.5,20.5,0,0,0-7.367-9.294,18.37,18.37,0,0,0-5.266-2.524,22.23,22.23,0,0,0-6.188-.51l-3.223-1.779-3.3-1.822-1.862-1.028-2-.9-10.758-4.789c7.971,1.361,15.568-1.644,20.9-8.014a21.151,21.151,0,0,0-12.683.192,18.162,18.162,0,0,0-9.253,7.4l-10-3.477a66.67,66.67,0,0,0-6.989-2.018l-3.2-.829a23.106,23.106,0,0,0,5.9-.743,29.38,29.38,0,0,0,5.318-2.04,21.833,21.833,0,0,0,8.443-7.952,25.062,25.062,0,0,0-6.689-.16,17.049,17.049,0,0,0-5.862,1.9,18.752,18.752,0,0,0-8.2,8.71l-3.2-.827-7.166-1.28a72.1,72.1,0,0,0-7.194-1.081c-1.975-.2-3.293-.329-3.293-.329a23.478,23.478,0,0,0,5.747-1.634,21.429,21.429,0,0,0,4.966-2.662,22.442,22.442,0,0,0,7.281-9.153c-4.812.072-8.963,1.114-12.223,3.49a18.907,18.907,0,0,0-6.888,9.846l-3.291-.329c-1.977-.184-4.628-.173-7.272-.28l-3.887-.113-3.389.12-3.307.118a24.913,24.913,0,0,0,9.977-5.8,22.455,22.455,0,0,0,5.888-10.109,25.686,25.686,0,0,0-6.51,1.845,19.558,19.558,0,0,0-2.739,1.472,19.307,19.307,0,0,0-2.363,1.953,18.6,18.6,0,0,0-5.375,10.682l-1.544.058c-.98.094-2.38.228-4.058.391-3.367.242-7.818.909-12.252,1.663-4.417.858-8.8,1.876-12.033,2.864-3.247.925-5.349,1.779-5.349,1.779l.209.511s1.462-.577,3.729-1.287c2.258-.728,5.323-1.532,8.4-2.265,3.1-.64,6.2-1.318,8.558-1.615l3.914-.6a23.85,23.85,0,0,0,6.483,9.877,21.538,21.538,0,0,0,9.894,4.911,19.511,19.511,0,0,0-5.15-10.1c-2.6-2.7-6.033-4.137-10.119-4.824,0,0,1.313-.125,3.281-.316,1.97-.175,4.589-.51,7.23-.535,2.636-.075,5.272-.226,7.248-.22,1.977.06,3.3.1,3.3.1a22.859,22.859,0,0,0,4.946,10.634,19.991,19.991,0,0,0,9.1,6.341,19.275,19.275,0,0,0-3.629-10.689,17.9,17.9,0,0,0-3.983-3.878,19.5,19.5,0,0,0-5.313-2.373l3.295.1c1.982-.022,4.6.357,7.226.589a94.86,94.86,0,0,1,10.449,1.411,22.76,22.76,0,0,0,3.36,11.235,20.976,20.976,0,0,0,8.112,7.624,19.522,19.522,0,0,0-2.066-11.151,16.944,16.944,0,0,0-3.384-4.417,20.43,20.43,0,0,0-4.922-3.1l3.248.571a66,66,0,0,1,7.065,1.616l7.024,1.816a23.1,23.1,0,0,1,2.275.726l.856.3a23.212,23.212,0,0,0,1.731,11.7,18.527,18.527,0,0,0,2.929,4.626,24.045,24.045,0,0,0,4.115,4.014" transform="translate(263.524 116.092)" fill="#27bf76"/>
            <path id="Tracciato_906" data-name="Tracciato 906" d="M339.9,210.519s16.242-45.14,14.212-88.9S364.942,45,385.925,47.55s39.257,81.747-40.611,167.707Z" transform="translate(243.37 33.946)" fill="#00e275"/>
            <path id="Tracciato_907" data-name="Tracciato 907" d="M339.9,210.519s16.242-45.14,14.212-88.9S364.942,45,385.925,47.55s39.257,81.747-40.611,167.707Z" transform="translate(243.37 33.946)" fill="none" stroke="#00570e" stroke-width="1"/>
            <path id="Tracciato_908" data-name="Tracciato 908" d="M344.67,183.412l-1.634-1.026c.3-.468,29.49-47.514,30.62-99.412l1.927.041c-1.141,52.443-30.615,99.923-30.914,100.4" transform="translate(245.615 59.41)" fill="#fff"/>
            <path id="Tracciato_909" data-name="Tracciato 909" d="M343.582,168.619s29.124-15.183,59-17.84,50.979-14.413,47.312-28.412-59.075-19.094-110.025,43.015Z" transform="translate(243.348 81.217)" fill="#27bf76"/>
            <path id="Tracciato_910" data-name="Tracciato 910" d="M343.582,168.619s29.124-15.183,59-17.84,50.979-14.413,47.312-28.412-59.075-19.094-110.025,43.015Z" transform="translate(243.348 81.217)" fill="none" stroke="#00570e" stroke-width="1"/>
            <path id="Tracciato_911" data-name="Tracciato 911" d="M343.429,156.714l-1.236-1.481c.293-.245,29.85-24.671,65.4-30.294l.3,1.9c-35.013,5.538-64.177,29.627-64.469,29.87" transform="translate(245.012 89.457)" fill="#fff"/>
            <path id="Tracciato_912" data-name="Tracciato 912" d="M432.739,226.954c-3.106-13.071-9.318-32.992-28.4-47.87s-42.749-4.513-42.749-4.513-4.25,24.662,15.823,38.612,41.577,14.433,55.324,13.771" transform="translate(258.632 122.481)" fill="#27bf76"/>
            <path id="Tracciato_913" data-name="Tracciato 913" d="M432.739,226.954c-3.106-13.071-9.318-32.992-28.4-47.87s-42.749-4.513-42.749-4.513-4.25,24.662,15.823,38.612S418.992,227.616,432.739,226.954Z" transform="translate(258.632 122.481)" fill="none" stroke="#00570e" stroke-width="1"/>
            <path id="Tracciato_914" data-name="Tracciato 914" d="M211.345,352.953s22.31,21.577,17.745,51.875S175.034,431.366,171.2,377.58c0,0-13.045,52.776-46.31,48.359s-8.106-65.666,4.628-72.585c0,0-16.276,5.352-26.7-6.737s3.7-41.888,48.146-36.82,60.381,43.158,60.381,43.158" transform="translate(71.28 221.404)" fill="#00e275"/>
            <path id="Tracciato_915" data-name="Tracciato 915" d="M211.345,352.953s22.31,21.577,17.745,51.875S175.034,431.366,171.2,377.58c0,0-13.045,52.776-46.31,48.359s-8.106-65.666,4.628-72.585c0,0-16.276,5.352-26.7-6.737s3.7-41.888,48.146-36.82S211.345,352.953,211.345,352.953Z" transform="translate(71.28 221.404)" fill="none" stroke="#00570e" stroke-width="1"/>
            <path id="Tracciato_916" data-name="Tracciato 916" d="M190.056,358.026l-1.958-.057s-.017.764-.192,2.176c-.149,1.4-.477,3.411-.973,5.8a87.356,87.356,0,0,1-5.678,16.978,96.053,96.053,0,0,1-8.825,15.616c-1.323,2.066-2.644,3.633-3.5,4.779l-1.369,1.783,1.524,1.229s.508-.659,1.4-1.814c.87-1.167,2.212-2.763,3.562-4.867a98.132,98.132,0,0,0,9-15.924,89.359,89.359,0,0,0,5.807-17.369c.51-2.456.846-4.522,1-5.987.18-1.453.2-2.342.2-2.342" transform="translate(119.976 256.307)" fill="#00e275"/>
            <path id="Tracciato_917" data-name="Tracciato 917" d="M172.24,396.466c2.881-3.247,3.008-7.65.343-9.779s-6.867-1.527-9.4,1.337c-2.7,2.718-3,6.964-.674,9.471s6.684,2.052,9.726-1.028" transform="translate(115.24 275.954)" fill="#ffd200"/>
            <path id="Tracciato_918" data-name="Tracciato 918" d="M171.026,393.17a12.574,12.574,0,0,1-1.778,1.131,8.4,8.4,0,0,1-3.78.944,8.39,8.39,0,0,1,.82-3.7,15.828,15.828,0,0,1,.855-1.867,10.773,10.773,0,0,1-6.145-2.9,13.049,13.049,0,0,1,9.059-2.373,10.93,10.93,0,0,1,3.955,1.145,9.64,9.64,0,0,1,2.015,3.667c.75,2.384.767,5.778-1.666,10.027a11.64,11.64,0,0,1-3.334-6.076" transform="translate(115.275 275.185)" fill="#00e275"/>
            <path id="Tracciato_919" data-name="Tracciato 919" d="M149.577,395.96A47.486,47.486,0,0,1,168.221,363c17.884-13.78,34.7-8.149,34.7-8.149s1.158,17.7-16.724,31.48a47.487,47.487,0,0,1-36.623,9.628" transform="translate(107.098 253.26)" fill="#27bf76"/>
            <path id="Tracciato_920" data-name="Tracciato 920" d="M149.577,395.96A47.486,47.486,0,0,1,168.221,363c17.884-13.78,34.7-8.149,34.7-8.149s1.158,17.7-16.724,31.48A47.487,47.487,0,0,1,149.577,395.96Z" transform="translate(107.098 253.26)" fill="none" stroke="#00570e" stroke-width="1"/>
            <rect id="Rettangolo_512" data-name="Rettangolo 512" width="57.891" height="0.966" transform="translate(263.872 643.063) rotate(-37.615)" fill="#00e275"/>
            <path id="Tracciato_921" data-name="Tracciato 921" d="M211.841,396.31a37.821,37.821,0,0,1-26.25-14.849c-10.976-14.245-6.49-27.64-6.49-27.64s14.1-.923,25.071,13.321a37.821,37.821,0,0,1,7.669,29.167" transform="translate(127.588 253.329)" fill="#00e275"/>
            <path id="Tracciato_922" data-name="Tracciato 922" d="M211.841,396.31a37.821,37.821,0,0,1-26.25-14.849c-10.976-14.245-6.49-27.64-6.49-27.64s14.1-.923,25.071,13.321A37.821,37.821,0,0,1,211.841,396.31Z" transform="translate(127.588 253.329)" fill="none" stroke="#00570e" stroke-width="1"/>
            <path id="Tracciato_923" data-name="Tracciato 923" d="M197.871,132.233l10.1-16.211a179.01,179.01,0,0,0-17.756-45.217,144,144,0,0,0-24.374-31.768L152.2,48.619s1.793-3.885,3.712-7.737l3.813-7.653A182.62,182.62,0,0,0,128.6,10.989C123.669,8.277,119.352,6,115.338,4.24A63.14,63.14,0,0,0,105.087.564c-2.353,3.221-5,8.441-7.3,15.447a86.345,86.345,0,0,0-2.917,11.629,114.143,114.143,0,0,0-1.759,13.795l8.525,3.444,8.465,3.31-8.6.331-8.64.245a131.692,131.692,0,0,0,18.291,67.794,135.829,135.829,0,0,0,7.719,11.739c2.679,3.676,5.407,7.157,8.233,10.366l12.029-.741,11.993-.827-15.111,11.029a158.781,158.781,0,0,0,33.725,25.17c4.583,2.548,8.4,4.336,11.073,5.512,2.66,1.151,4.227,1.745,4.227,1.745l14.14-9.8,14.14-9.8s.086-.889.091-2.651c.01-1.745-.022-4.3-.194-7.532a186.9,186.9,0,0,0-3.348-26.255Z" transform="translate(66.486 0.404)" fill="#27bf76"/>
            <path id="Tracciato_924" data-name="Tracciato 924" d="M197.871,132.233l10.1-16.211a179.01,179.01,0,0,0-17.756-45.217,144,144,0,0,0-24.374-31.768L152.2,48.619s1.793-3.885,3.712-7.737l3.813-7.653A182.62,182.62,0,0,0,128.6,10.989C123.669,8.277,119.352,6,115.338,4.24A63.14,63.14,0,0,0,105.087.564c-2.353,3.221-5,8.441-7.3,15.447a86.345,86.345,0,0,0-2.917,11.629,114.143,114.143,0,0,0-1.759,13.795l8.525,3.444,8.465,3.31-8.6.331-8.64.245a131.692,131.692,0,0,0,18.291,67.794,135.829,135.829,0,0,0,7.719,11.739c2.679,3.676,5.407,7.157,8.233,10.366l12.029-.741,11.993-.827-15.111,11.029a158.781,158.781,0,0,0,33.725,25.17c4.583,2.548,8.4,4.336,11.073,5.512,2.66,1.151,4.227,1.745,4.227,1.745l14.14-9.8,14.14-9.8s.086-.889.091-2.651c.01-1.745-.022-4.3-.194-7.532a186.9,186.9,0,0,0-3.348-26.255Z" transform="translate(66.486 0.404)" fill="none" stroke="#00570e" stroke-width="1"/>
            <path id="Tracciato_925" data-name="Tracciato 925" d="M193.575,155.841c-5.332-7.8-18.466-27.118-34.54-52.106C142.92,78.748,123.812,48.113,106.81,17.155c12.467,33.1,29.464,65.455,44.467,91.322,14.993,25.932,28.053,45.438,33.529,53.438l4.384-3.037Z" transform="translate(76.476 12.283)" fill="#00e275"/>
            <path id="Tracciato_926" data-name="Tracciato 926" d="M194.2,128.251l10.56-6.347A115.012,115.012,0,0,0,207.8,90.63a93,93,0,0,0-4.8-25.508l-10.648,1.587,4.386-3.4,4.4-3.343a113.212,113.212,0,0,0-11.659-21.925c-4.05-5.913-7.873-10.363-10.756-12.673-4.518,2.428-12.086,9.33-18.435,20.254l3.954,4.393,3.955,4.316-5.069-2.262c-2.533-1.155-5.067-2.313-5.067-2.313a85.472,85.472,0,0,0-9.079,44.125,98.047,98.047,0,0,0,2.7,17.314l14.258,6.126-11.914,1.9a103.234,103.234,0,0,0,11.957,24.321c1.877,2.806,3.54,4.956,4.728,6.414s1.908,2.243,1.908,2.243l11-1.443,11-1.443a60.3,60.3,0,0,0,2.941-5.881,119.889,119.889,0,0,0,5.807-16.076Z" transform="translate(106.534 18.161)" fill="#00e275"/>
            <path id="Tracciato_927" data-name="Tracciato 927" d="M194.2,128.251l10.56-6.347A115.012,115.012,0,0,0,207.8,90.63a93,93,0,0,0-4.8-25.508l-10.648,1.587,4.386-3.4,4.4-3.343a113.212,113.212,0,0,0-11.659-21.925c-4.05-5.913-7.873-10.363-10.756-12.673-4.518,2.428-12.086,9.33-18.435,20.254l3.954,4.393,3.955,4.316-5.069-2.262c-2.533-1.155-5.067-2.313-5.067-2.313a85.472,85.472,0,0,0-9.079,44.125,98.047,98.047,0,0,0,2.7,17.314l14.258,6.126-11.914,1.9a103.234,103.234,0,0,0,11.957,24.321c1.877,2.806,3.54,4.956,4.728,6.414s1.908,2.243,1.908,2.243l11-1.443,11-1.443a60.3,60.3,0,0,0,2.941-5.881,119.889,119.889,0,0,0,5.807-16.076Z" transform="translate(106.534 18.161)" fill="none" stroke="#00570e" stroke-width="1"/>
            <path id="Tracciato_928" data-name="Tracciato 928" d="M175.724,142.035c-.762-6.051-2.588-21.006-4.508-40.077-1.939-19.082-3.969-42.284-4.988-65.042-2.214,22.694-1.9,46.238-.858,65.493,1.021,19.284,2.749,34.322,3.533,40.522l3.41-.448Z" transform="translate(117.833 26.432)" fill="#27bf76"/>
            <path id="Tracciato_929" data-name="Tracciato 929" d="M240.675,119.9s-27.816-13.768-32.685-44.017,43.42-41.726,63.436,8.345c0,0-3.629-54.243,29.4-60.155s27.7,60.088,17.673,70.552c0,0,13.876-10.051,27.484-1.706s9.213,41.031-34.662,49.723-70.65-22.742-70.65-22.742" transform="translate(148.676 16.971)" fill="#27bf76"/>
            <path id="Tracciato_930" data-name="Tracciato 930" d="M240.675,119.9s-27.816-13.768-32.685-44.017,43.42-41.726,63.436,8.345c0,0-3.629-54.243,29.4-60.155s27.7,60.088,17.673,70.552c0,0,13.876-10.051,27.484-1.706s9.213,41.031-34.662,49.723S240.675,119.9,240.675,119.9Z" transform="translate(148.676 16.971)" fill="none" stroke="#00570e" stroke-width="1"/>
            <path id="Tracciato_931" data-name="Tracciato 931" d="M172.115,61.718a47.494,47.494,0,0,0,18.644,32.959c17.884,13.78,34.7,8.148,34.7,8.148s1.158-17.7-16.724-31.478a47.487,47.487,0,0,0-36.623-9.628" transform="translate(123.235 43.77)" fill="#27bf76"/>
            <path id="Tracciato_932" data-name="Tracciato 932" d="M172.115,61.718a47.494,47.494,0,0,0,18.644,32.959c17.884,13.78,34.7,8.148,34.7,8.148s1.158-17.7-16.724-31.478A47.487,47.487,0,0,0,172.115,61.718Z" transform="translate(123.235 43.77)" fill="none" stroke="#00570e" stroke-width="1"/>
            <path id="Tracciato_933" data-name="Tracciato 933" d="M212.593,101.958l-1.958.057s-.017-.764-.192-2.176c-.149-1.4-.477-3.411-.973-5.8a87.319,87.319,0,0,0-5.678-16.978,96.153,96.153,0,0,0-8.825-15.617c-1.323-2.064-2.644-3.631-3.5-4.777L190.1,54.883l1.524-1.229s.508.659,1.4,1.814c.87,1.167,2.212,2.763,3.562,4.867a98.129,98.129,0,0,1,9,15.925,89.36,89.36,0,0,1,5.807,17.369c.51,2.456.846,4.522,1,5.987.18,1.453.2,2.342.2,2.342" transform="translate(136.112 38.416)" fill="#00e275"/>
            <path id="Tracciato_934" data-name="Tracciato 934" d="M194.778,49.056c2.881,3.247,3.008,7.65.343,9.78s-6.867,1.527-9.4-1.337c-2.7-2.718-3-6.964-.674-9.471s6.684-2.052,9.726,1.028" transform="translate(131.377 33.23)" fill="#ffd200"/>
            <path id="Tracciato_935" data-name="Tracciato 935" d="M193.564,52.856a12.578,12.578,0,0,0-1.778-1.131,8.4,8.4,0,0,0-3.78-.944,8.389,8.389,0,0,0,.82,3.7,15.833,15.833,0,0,0,.855,1.867,10.773,10.773,0,0,0-6.145,2.9,13.047,13.047,0,0,0,9.059,2.373,10.93,10.93,0,0,0,3.955-1.145,9.64,9.64,0,0,0,2.015-3.667c.748-2.384.767-5.778-1.666-10.025a11.63,11.63,0,0,0-3.334,6.075" transform="translate(131.413 33.495)" fill="#00e275"/>
            <path id="Tracciato_936" data-name="Tracciato 936" d="M234.378,61.228a37.821,37.821,0,0,0-26.25,14.849c-10.976,14.243-6.49,27.64-6.49,27.64s14.1.921,25.071-13.321a37.821,37.821,0,0,0,7.669-29.167" transform="translate(143.724 43.84)" fill="#00e275"/>
            <path id="Tracciato_937" data-name="Tracciato 937" d="M234.378,61.228a37.821,37.821,0,0,0-26.25,14.849c-10.976,14.243-6.49,27.64-6.49,27.64s14.1.921,25.071-13.321A37.821,37.821,0,0,0,234.378,61.228Z" transform="translate(143.724 43.84)" fill="none" stroke="#00570e" stroke-width="1"/>
            <path id="Tracciato_938" data-name="Tracciato 938" d="M208.432,314.445s-47.048,9.38-83.485,33.7-71.219,30.263-79.859,10.972S94.85,283.308,209.7,307.361Z" transform="translate(31.683 215.876)" fill="#27bf76"/>
            <path id="Tracciato_939" data-name="Tracciato 939" d="M208.432,314.445s-47.048,9.38-83.485,33.7-71.219,30.263-79.859,10.972S94.85,283.308,209.7,307.361Z" transform="translate(31.683 215.876)" fill="none" stroke="#00570e" stroke-width="1"/>
            <path id="Tracciato_940" data-name="Tracciato 940" d="M179.535,306.039l-.036,1.929c-.554-.012-55.918-.74-100.954,25.073l-.959-1.673c45.51-26.085,101.39-25.34,101.95-25.328" transform="translate(55.551 219.122)" fill="#fff"/>
            <path id="Tracciato_941" data-name="Tracciato 941" d="M445.969,131.945a217.451,217.451,0,0,0-30.615,4.446A101.113,101.113,0,0,0,379.8,152.034c-11.986,8.379-17.091,20.263-19.355,30.245a66.18,66.18,0,0,0-1.6,17.956,54.289,54.289,0,0,0,17.378,5.378c10.311,1.452,24,.379,36.5-9.435a86.076,86.076,0,0,0,25.6-33.17,96.731,96.731,0,0,0,7.643-31.063" transform="translate(256.875 94.473)" fill="#00e275"/>
            <path id="Tracciato_942" data-name="Tracciato 942" d="M445.969,131.945a217.451,217.451,0,0,0-30.615,4.446A101.113,101.113,0,0,0,379.8,152.034c-11.986,8.379-17.091,20.263-19.355,30.245a66.18,66.18,0,0,0-1.6,17.956,54.289,54.289,0,0,0,17.378,5.378c10.311,1.452,24,.379,36.5-9.435a86.076,86.076,0,0,0,25.6-33.17A96.731,96.731,0,0,0,445.969,131.945Z" transform="translate(256.875 94.473)" fill="none" stroke="#00570e" stroke-width="1"/>
            <path id="Tracciato_943" data-name="Tracciato 943" d="M319.363,157.168l-2.789-2.1s.832-1.1,2.2-3.242c1.378-2.118,3.25-5.229,5.333-9.059A215.454,215.454,0,0,0,337.065,113.5a255.473,255.473,0,0,0,8.928-30.8c1.071-4.247,1.6-7.866,2.119-10.366.475-2.511.746-3.945.746-3.945l3.437.59s-.275,1.452-.757,3.993c-.522,2.533-1.062,6.193-2.145,10.5a258.744,258.744,0,0,1-9.05,31.219,218.651,218.651,0,0,1-13.176,29.759c-2.128,3.911-4.043,7.1-5.471,9.287-1.4,2.193-2.335,3.442-2.335,3.442" transform="translate(226.668 48.962)" fill="#00e275"/>
            <path id="Tracciato_944" data-name="Tracciato 944" d="M353.189,66.965c-1.036,7.514-6.821,12.748-12.808,11.7-6.008-1.05-10.037-7.471-9.078-14.353.688-6.924,6.181-12.192,12.254-11.768s10.392,6.881,9.632,14.42" transform="translate(237.113 37.605)" fill="#fce300"/>
            <path id="Tracciato_945" data-name="Tracciato 945" d="M348.451,66.847a22.429,22.429,0,0,0-.537-3.7,14.958,14.958,0,0,0-2.994-6.226,14.936,14.936,0,0,0-4.153,5.354,28.156,28.156,0,0,0-1.532,3.336,19.392,19.392,0,0,0-11.027-5.081,22.98,22.98,0,0,0,7.3,15.247,19.049,19.049,0,0,0,6.2,3.94,17.465,17.465,0,0,0,7.257-1.628c4.022-1.79,8.659-5.644,11.549-13.644a20.46,20.46,0,0,0-12.067,2.4" transform="translate(234.998 40.756)" fill="#00e275"/>
            <path id="Tracciato_946" data-name="Tracciato 946" d="M319.631,338.858l1.954-2.607,3.01,2.351c1.888,1.51,4.575,3.674,7.712,6.37,6.3,5.359,14.469,12.776,22.209,20.637,7.765,7.837,15.041,16.149,20.254,22.589,2.528,3.284,4.635,6.021,6.111,7.937l2.188,3.109-2.66,1.882-2.154-3.061c-1.453-1.889-3.532-4.589-6.027-7.827-5.146-6.358-12.34-14.579-20.031-22.341-7.664-7.784-15.763-15.137-22-20.444-3.106-2.672-5.766-4.812-7.626-6.3l-2.938-2.294" transform="translate(228.857 240.757)" fill="#00e275"/>
            <path id="Tracciato_947" data-name="Tracciato 947" d="M355.872,390.4a13.4,13.4,0,0,1-1.9-8.6,9.769,9.769,0,0,1,3.978-7.017,9.276,9.276,0,0,1,8.1-1.114,13.645,13.645,0,0,1,7.435,6.063,16.162,16.162,0,0,1,1.206,2.33,14.9,14.9,0,0,1,.662,2.452,13.157,13.157,0,0,1,.039,4.683,8.875,8.875,0,0,1-4.7,6.586,10.255,10.255,0,0,1-8.149.264,12.186,12.186,0,0,1-3.7-2.179,18.516,18.516,0,0,1-2.974-3.468" transform="translate(253.39 267.225)" fill="#fce300"/>
            <path id="Tracciato_948" data-name="Tracciato 948" d="M360.577,385.744a22.944,22.944,0,0,0,2.553,2.236,20.739,20.739,0,0,0,2.651,1.718,10.48,10.48,0,0,0,2.967,1.227,10.4,10.4,0,0,0,.518-3.266,17.625,17.625,0,0,0-.386-3.169,23.776,23.776,0,0,0-.964-3.393,19.309,19.309,0,0,0,8.022-1.055,15.282,15.282,0,0,0,3.181-1.5c-5.543-6-11.218-7.272-15.3-7.2a15.7,15.7,0,0,0-6.722,1.519,18.535,18.535,0,0,0-3.69,5.857,22.589,22.589,0,0,0-.3,15.574,16.885,16.885,0,0,0,2.821-2.078,17.614,17.614,0,0,0,4.642-6.466" transform="translate(251.953 265.878)" fill="#00e275"/>
            <path id="Tracciato_949" data-name="Tracciato 949" d="M295.408,337.115l19-5.23s29.577,66.763,23.221,84.336-29.543,18.569-42.219-79.106" transform="translate(211.513 237.631)" fill="#00e275"/>
            <path id="Tracciato_950" data-name="Tracciato 950" d="M295.408,337.115l19-5.23s29.577,66.763,23.221,84.336S308.084,434.79,295.408,337.115Z" transform="translate(211.513 237.631)" fill="none" stroke="#00570e" stroke-width="1"/>
            <path id="Tracciato_951" data-name="Tracciato 951" d="M310.072,332.844l16.958-4.669s24.153.813,39.475,14.837,1.5,25.565-12.058,21.491-44.374-31.659-44.374-31.659" transform="translate(222.013 234.975)" fill="#00e275"/>
            <path id="Tracciato_952" data-name="Tracciato 952" d="M310.072,332.844l16.958-4.669s24.153.813,39.475,14.837,1.5,25.565-12.058,21.491S310.072,332.844,310.072,332.844Z" transform="translate(222.013 234.975)" fill="none" stroke="#00570e" stroke-width="1"/>
            <path id="Tracciato_953" data-name="Tracciato 953" d="M308.248,333.081l10.406-2.866s31.37,17.565,42.562,46.161-14.952,25.507-32.477,2.514a171.74,171.74,0,0,1-24.729-44.642Z" transform="translate(217.672 236.435)" fill="#27bf76"/>
            <path id="Tracciato_954" data-name="Tracciato 954" d="M308.248,333.081l10.406-2.866s31.37,17.565,42.562,46.161-14.952,25.507-32.477,2.514a171.74,171.74,0,0,1-24.729-44.642Z" transform="translate(217.672 236.435)" fill="none" stroke="#00570e" stroke-width="1"/>
            <path id="Tracciato_955" data-name="Tracciato 955" d="M310.374,335.923l-16.959,4.669s-20.333,13.062-26.317,32.952,11.8,22.729,21.361,12.29,21.915-49.912,21.915-49.912" transform="translate(190.382 240.522)" fill="#00e275"/>
            <path id="Tracciato_956" data-name="Tracciato 956" d="M310.374,335.923l-16.959,4.669s-20.333,13.062-26.317,32.952,11.8,22.729,21.361,12.29S310.374,335.923,310.374,335.923Z" transform="translate(190.382 240.522)" fill="none" stroke="#00570e" stroke-width="1"/>
            <path id="Tracciato_957" data-name="Tracciato 957" d="M305.517,335.42l-10.406,2.866s-17.958,31.147-12.934,61.44,25.9,14.26,29.186-14.464a171.719,171.719,0,0,0-1.608-51.008Z" transform="translate(201.405 239.327)" fill="#27bf76"/>
            <path id="Tracciato_958" data-name="Tracciato 958" d="M305.517,335.42l-10.406,2.866s-17.958,31.147-12.934,61.44,25.9,14.26,29.186-14.464a171.719,171.719,0,0,0-1.608-51.008Z" transform="translate(201.405 239.327)" fill="none" stroke="#00570e" stroke-width="1"/>
            <path id="Tracciato_959" data-name="Tracciato 959" d="M341.732,214.244l-.235-3.334s1.486-.1,3.979-.1c2.507-.027,6.07.091,10.33.41a156.527,156.527,0,0,1,30.77,5.495,144.454,144.454,0,0,1,28.99,11.708,98.127,98.127,0,0,1,8.918,5.208l3.274,2.155-1.876,2.766-3.192-2.1a95.239,95.239,0,0,0-8.7-5.083,141.282,141.282,0,0,0-28.326-11.441,153.236,153.236,0,0,0-30.111-5.376c-4.163-.312-7.641-.427-10.064-.4-2.433,0-3.758.089-3.758.089" transform="translate(244.513 150.939)" fill="#108f6e"/>
            <path id="Tracciato_960" data-name="Tracciato 960" d="M395.776,243.929a12.575,12.575,0,0,1-4.62-7.556,10.5,10.5,0,0,1,1.4-8.148,9.157,9.157,0,0,1,7.441-3.9,15.141,15.141,0,0,1,9.412,3.458,14.582,14.582,0,0,1,4.94,8.746,8.946,8.946,0,0,1-2.5,7.892,10.744,10.744,0,0,1-7.894,2.84,13.082,13.082,0,0,1-8.178-3.334" transform="translate(279.891 160.618)" fill="#fce300"/>
            <path id="Tracciato_961" data-name="Tracciato 961" d="M398.294,238.574a23.781,23.781,0,0,0,3.236,1.26c1.919.566,4.167,1.342,6.356,1.1a12.707,12.707,0,0,0-1.91-6.38,24.1,24.1,0,0,0-2.121-2.945,20.579,20.579,0,0,0,7.521-3.695,15.541,15.541,0,0,0,2.612-2.5,26.652,26.652,0,0,0-10.16-3.089,16.963,16.963,0,0,0-7.427,1.191,15.789,15.789,0,0,0-5.937,3.93,19.639,19.639,0,0,0-1.4,6.914,24.437,24.437,0,0,0,.861,6.915,21.62,21.62,0,0,0,3.933,7.971,17.706,17.706,0,0,0,2.064-2.933,17.433,17.433,0,0,0,2.372-7.736" transform="translate(278.56 159.147)" fill="#108f6e"/>
            <path id="Tracciato_962" data-name="Tracciato 962" d="M131.8,212.679l-1.22,3.38s-1.371-.494-3.882-1.27-6.1-1.84-10.471-2.95a259.6,259.6,0,0,0-32.47-6.126A239.762,239.762,0,0,0,50.79,204c-4.493.228-8.251.252-10.859.541l-4.1.407-.359-3.574,4.182-.415c2.66-.292,6.481-.321,11.056-.551a243.383,243.383,0,0,1,33.483,1.745,262.923,262.923,0,0,1,32.923,6.212c4.434,1.127,8.1,2.2,10.651,3s4.029,1.32,4.029,1.32" transform="translate(25.397 143.464)" fill="#27bf76"/>
            <path id="Tracciato_963" data-name="Tracciato 963" d="M30.492,196.8a15.912,15.912,0,0,1,10.523,1.651A10.272,10.272,0,0,1,46,206.027a10.739,10.739,0,0,1-2.917,8.359,13.911,13.911,0,0,1-8.4,4.746,18.88,18.88,0,0,1-4.992.141,13.439,13.439,0,0,1-4.5-1.429,11.4,11.4,0,0,1-5.817-6.873,9.72,9.72,0,0,1,1.91-8.71,14.506,14.506,0,0,1,3.882-3.423,14.013,14.013,0,0,1,5.333-2.033" transform="translate(13.62 140.735)" fill="#fce300"/>
            <path id="Tracciato_964" data-name="Tracciato 964" d="M32.343,204.724a25.935,25.935,0,0,0-3.516,1.675,13.252,13.252,0,0,0-5.184,4.884c1.9,1.361,4.434,1.913,6.541,2.409a25.478,25.478,0,0,0,3.71.489A19.117,19.117,0,0,0,32,222.72a18.822,18.822,0,0,0,.369,3.846,24.234,24.234,0,0,0,8.036-5.507A22.016,22.016,0,0,0,44.872,215a20.664,20.664,0,0,0,2.205-7.29,17.18,17.18,0,0,0-3.605-6.715A20.516,20.516,0,0,0,37.157,196a27.917,27.917,0,0,0-10.972-2.4,16.86,16.86,0,0,0,1.109,3.724,21.64,21.64,0,0,0,5.05,7.4" transform="translate(16.928 138.619)" fill="#27bf76"/>
            <path id="Tracciato_965" data-name="Tracciato 965" d="M253.678,99.693c-7.71-17.04-21.716-35.276-21.858-35.458l.765-.589c.141.184,14.215,18.5,21.97,35.648Z" transform="translate(165.984 45.572)" fill="#fff"/>
            <rect id="Rettangolo_513" data-name="Rettangolo 513" width="67.697" height="0.963" transform="translate(442.641 142.333) rotate(-80.255)" fill="#fff"/>
            <path id="Tracciato_966" data-name="Tracciato 966" d="M198.858,125.059s-11.461-25.136-35.1-25.127S136.7,124.9,150.527,143.424c0,0-22.689-15.749-55.3-14.49S38.5,154.3,45.591,181.243s43.487,33.088,53.886,30.251c0,0-35.925,25.526-21.743,48.686s58.612,0,58.612,0Z" transform="translate(31.753 71.552)" fill="#00e275"/>
            <path id="Tracciato_967" data-name="Tracciato 967" d="M198.858,125.059s-11.461-25.136-35.1-25.127S136.7,124.9,150.527,143.424c0,0-22.689-15.749-55.3-14.49S38.5,154.3,45.591,181.243s43.487,33.088,53.886,30.251c0,0-35.925,25.526-21.743,48.686s58.612,0,58.612,0Z" transform="translate(31.753 71.552)" fill="none" stroke="#00570e" stroke-width="1"/>
            <path id="Tracciato_968" data-name="Tracciato 968" d="M132.125,161.36c-.4-.168-40.626-16.752-61.188-18.8l.19-1.919c20.844,2.071,61.328,18.765,61.735,18.933Z" transform="translate(50.791 100.703)" fill="#fff"/>
            <path id="Tracciato_969" data-name="Tracciato 969" d="M71.8,158.346,70.66,156.79c8.072-5.919,24-11.844,24.674-12.093L96,146.5c-.161.062-16.348,6.083-24.2,11.842" transform="translate(50.593 103.604)" fill="#fff"/>
            <path id="Tracciato_970" data-name="Tracciato 970" d="M98.306,157.3c-.227-.623-5.541-15.3-6.009-21.268l1.924-.151c.448,5.709,5.843,20.611,5.9,20.76Z" transform="translate(66.085 97.291)" fill="#fff"/>
            <path id="Tracciato_971" data-name="Tracciato 971" d="M76.2,193.537l-.971-1.664C95.25,180.189,111.141,177.822,111.3,177.8l.273,1.91c-.154.021-15.7,2.349-35.37,13.828" transform="translate(53.864 127.306)" fill="#fff"/>
            <path id="Tracciato_972" data-name="Tracciato 972" d="M134.193,142.753c-.633-.688-15.58-17-19.659-30.257l1.843-.566c3.949,12.841,19.082,29.351,19.233,29.515Z" transform="translate(82.007 80.142)" fill="#fff"/>
            <path id="Tracciato_973" data-name="Tracciato 973" d="M115.373,224.05,113.789,212.3a146.357,146.357,0,0,0-19.938-1.4c-19.466-.065-38.574,3.468-54.459,9.92l-.705,8.328-4.007-6.279q-3.979,1.835-7.638,3.952l2.526,15.394-9.2-11.1c-7.23,5.213-12.8,11.18-16.237,17.908a32.219,32.219,0,0,0-2.922,21.6A35.19,35.19,0,0,0,9.814,287.48a41.773,41.773,0,0,0,7.178,6.226,53.044,53.044,0,0,0,8.856,4.88c12.781,5.6,29.433,7.648,47.4,6.336l4.259-13.514,5.927,12.434c4.062-.587,8.185-1.32,12.292-2.234l-1.143-8.089,6.725,6.761q2.384-.61,4.758-1.29c28.45-8.225,46.414-21.721,57.246-33.246s14.55-21.026,14.55-21.026-16.345-23.082-56.534-31.139Z" transform="translate(0.358 151.004)" fill="#27bf76"/>
            <path id="Tracciato_974" data-name="Tracciato 974" d="M115.373,224.05,113.789,212.3a146.357,146.357,0,0,0-19.938-1.4c-19.466-.065-38.574,3.468-54.459,9.92l-.705,8.328-4.007-6.279q-3.979,1.835-7.638,3.952l2.526,15.394-9.2-11.1c-7.23,5.213-12.8,11.18-16.237,17.908a32.219,32.219,0,0,0-2.922,21.6A35.19,35.19,0,0,0,9.814,287.48a41.773,41.773,0,0,0,7.178,6.226,53.044,53.044,0,0,0,8.856,4.88c12.781,5.6,29.433,7.648,47.4,6.336l4.259-13.514,5.927,12.434c4.062-.587,8.185-1.32,12.292-2.234l-1.143-8.089,6.725,6.761q2.384-.61,4.758-1.29c28.45-8.225,46.414-21.721,57.246-33.246s14.55-21.026,14.55-21.026-16.345-23.082-56.534-31.139Z" transform="translate(0.358 151.004)" fill="none" stroke="#00570e" stroke-width="1"/>
            <rect id="Rettangolo_514" data-name="Rettangolo 514" width="134.639" height="1.928" transform="translate(32.808 419.839) rotate(-10.67)" fill="#fff"/>
            <path id="Tracciato_975" data-name="Tracciato 975" d="M57.212,245.394c-9.428-.546-28.113-8.7-28.9-9.045l.774-1.766c.19.082,19.159,8.359,28.242,8.885Z" transform="translate(20.269 167.962)" fill="#fff"/>
            <path id="Tracciato_976" data-name="Tracciato 976" d="M50.353,257.765l-1.87-.467c2.016-8.062,12.448-18.83,12.891-19.284l1.381,1.345c-.1.108-10.511,10.85-12.4,18.406" transform="translate(34.714 170.419)" fill="#fff"/>
            <path id="Tracciato_977" data-name="Tracciato 977" d="M84.816,241.734C74,239.256,62.69,227.8,62.213,227.315l1.38-1.349c.112.115,11.389,11.537,21.654,13.889Z" transform="translate(44.545 161.793)" fill="#fff"/>
            <path id="Tracciato_978" data-name="Tracciato 978" d="M397.711,312.429l-2.535,11.29a142.517,142.517,0,0,0,17.769,8.034c17.788,6.658,36.469,9.9,53.188,9.378l3.468-7.38,1.538,7.1q4.262-.327,8.326-1.026l2.907-14.941,4.657,13.272c8.379-2.318,15.5-5.889,20.923-10.881a31.443,31.443,0,0,0,9.994-18.777,34.343,34.343,0,0,0-2.166-18.336,40.628,40.628,0,0,0-4.458-8.129,51.619,51.619,0,0,0-6.449-7.465c-9.8-9.453-24.336-16.971-41.224-21.858l-8.475,10.919-1.21-13.383c-3.914-.841-7.935-1.567-12-2.123l-1.7,7.791-3.861-8.465q-2.386-.25-4.791-.431c-28.817-2.116-49.824,4.146-63.64,11.018s-20.436,14.308-20.436,14.308S354.672,299,388.71,319.99Z" transform="translate(248.839 176.567)" fill="#27bf76"/>
            <path id="Tracciato_979" data-name="Tracciato 979" d="M397.711,312.429l-2.535,11.29a142.517,142.517,0,0,0,17.769,8.034c17.788,6.658,36.469,9.9,53.188,9.378l3.468-7.38,1.538,7.1q4.262-.327,8.326-1.026l2.907-14.941,4.657,13.272c8.379-2.318,15.5-5.889,20.923-10.881a31.443,31.443,0,0,0,9.994-18.777,34.343,34.343,0,0,0-2.166-18.336,40.628,40.628,0,0,0-4.458-8.129,51.619,51.619,0,0,0-6.449-7.465c-9.8-9.453-24.336-16.971-41.224-21.858l-8.475,10.919-1.21-13.383c-3.914-.841-7.935-1.567-12-2.123l-1.7,7.791-3.861-8.465q-2.386-.25-4.791-.431c-28.817-2.116-49.824,4.146-63.64,11.018s-20.436,14.308-20.436,14.308S354.672,299,388.71,319.99Z" transform="translate(248.839 176.567)" fill="none" stroke="#00570e" stroke-width="1"/>
            <rect id="Rettangolo_515" data-name="Rettangolo 515" width="1.93" height="131.361" transform="translate(608.087 454.119) rotate(-80.349)" fill="#fff"/>
            <path id="Tracciato_980" data-name="Tracciato 980" d="M427.108,291.542c-.146-.141-14.694-14.136-22.819-17.694l.771-1.767c8.444,3.695,22.783,17.49,23.389,18.075Z" transform="translate(289.473 194.811)" fill="#fff"/>
            <path id="Tracciato_981" data-name="Tracciato 981" d="M394.193,277.053l-.829-1.74c.134-.063,13.285-6.363,17.572-12.631l1.592,1.088c-4.578,6.7-17.776,13.018-18.336,13.284" transform="translate(281.65 188.081)" fill="#fff"/>
            <path id="Tracciato_982" data-name="Tracciato 982" d="M389.625,288.725c-.067-.142-6.51-14.406-15.1-20.034l1.057-1.613c9.067,5.939,15.533,20.254,15.8,20.86Z" transform="translate(268.159 191.229)" fill="#fff"/>
            <path id="Tracciato_983" data-name="Tracciato 983" d="M87.655,81.257h0a24.033,24.033,0,0,0-6.845,11.76,21.838,21.838,0,0,0,1.225,13.393l-2.315-3.176c-1.421-1.884-3.2-4.477-4.934-7.1l-4.827-7.173c-.673-.968-1.182-1.809-1.538-2.4l-.563-.921a26.3,26.3,0,0,0,7.231-12.11,22.466,22.466,0,0,0,.7-6.65,25.838,25.838,0,0,0-1-6.907A24.1,24.1,0,0,0,66.9,71.111a22.6,22.6,0,0,0,.266,13.4l-3.655-5.977c-.9-1.5-1.855-2.974-2.486-4.124l-1.047-1.924a25.342,25.342,0,0,0-2.761-13.587A24.839,24.839,0,0,0,47.684,48.7a24.587,24.587,0,0,0,1.807,14.052A23.617,23.617,0,0,0,59.4,72.8l.575,1.059c.36.678.884,1.64,1.587,2.751,1.371,2.241,3.2,5.23,5.028,8.22,1.776,3.024,3.77,5.9,5.236,8.086l2.445,3.633a26.352,26.352,0,0,0-12.194-6.183,25.544,25.544,0,0,0-13.735,1.012,28.743,28.743,0,0,0,5.908,5A22.014,22.014,0,0,0,60.9,99.04a23.362,23.362,0,0,0,14.123-1.38l2.205,3.262,5.1,7c3.64,5.141,7.581,10.056,7.581,10.056a26.938,26.938,0,0,0-6.094-3.568,23.46,23.46,0,0,0-6.426-1.822,25.59,25.59,0,0,0-13.644,2.063,24.832,24.832,0,0,0,12.954,6.687,23.812,23.812,0,0,0,14.03-2.306l2.418,3.106c1.424,1.884,3.439,4.305,5.445,6.732l5.512,6.677,2.577,2.974a24.669,24.669,0,0,0-26.27-1.864,25.274,25.274,0,0,0,13.272,5.884,23.725,23.725,0,0,0,13.874-3.012l2.579,2.974c1.534,1.795,3.612,4.16,5.743,6.476l5.819,6.411,2.7,2.866A24.566,24.566,0,0,0,98.1,157.6c8.542,6.442,18.372,6.976,27.209,1.625,0,0,1.836,1.944,4.594,4.858,2.811,2.864,6.5,6.732,10.325,10.478,3.78,3.784,7.645,7.484,10.571,10.231s4.915,4.542,4.915,4.542l.436-.491s-5.6-5.069-10.994-10.358c-2.725-2.617-5.373-5.314-7.393-7.3l-3.307-3.372a25.248,25.248,0,0,0,4.384-13.393,24.463,24.463,0,0,0-3.676-13.4c-5.869,8.022-6.529,17.352-1.639,25.843,0,0-4.408-4.487-8.692-9.095-2.172-2.275-4.293-4.6-5.867-6.354l-2.639-2.912c5.973-8.348,6.629-17.946,1.872-26.718-6.248,7.765-7.264,17.011-2.768,25.73l-2.625-2.926c-1.544-1.783-3.605-4.16-5.666-6.535-2.082-2.358-4.084-4.782-5.577-6.608l-2.5-3.032a25.5,25.5,0,0,0,5.556-12.93,24.056,24.056,0,0,0-2.363-13.608,24.014,24.014,0,0,0-6.035,12.178,22.453,22.453,0,0,0,1.994,13.33l-2.5-3.032c-1.452-1.858-3.386-4.338-5.321-6.816-3.93-4.913-7.569-10.044-7.569-10.044A25.547,25.547,0,0,0,89.1,94.9a25.125,25.125,0,0,0-1.448-13.647" transform="translate(33.912 34.872)" fill="#27bf76"/>
            <path id="Tracciato_984" data-name="Tracciato 984" d="M575.814,324.8c0,135.47-109.821,245.291-245.291,245.291S85.234,460.266,85.234,324.8,195.053,79.505,330.523,79.505,575.814,189.326,575.814,324.8" transform="translate(61.028 56.926)" fill="#9fc4ed"/>
            <circle id="Ellisse_31" data-name="Ellisse 31" cx="245.29" cy="245.29" r="245.29" transform="translate(146.262 136.431)" fill="none" stroke="#00570e" stroke-width="2"/>
            <g id="Raggruppa_1687" data-name="Raggruppa 1687" transform="translate(146.262 143.638)" opacity="0.26">
              <g id="Raggruppa_1686" data-name="Raggruppa 1686">
                <g id="Raggruppa_1685" data-name="Raggruppa 1685" clip-path="url(#clip-path-3)">
                  <path id="Tracciato_985" data-name="Tracciato 985" d="M379.869,493.525c-121.1,0-219.264-98.167-219.264-219.264A219.18,219.18,0,0,1,271.336,83.705c-106.873,26.481-186.1,123.022-186.1,238.084,0,135.47,109.821,245.291,245.291,245.291,111.889,0,206.272-74.919,235.743-177.327a219.109,219.109,0,0,1-186.4,103.772" transform="translate(-85.234 -83.705)" fill="#68a7e0"/>
                </g>
              </g>
            </g>
            <path id="Tracciato_986" data-name="Tracciato 986" d="M352,142.975c-9.764-3.03-16.834-3.981-22.557-7.209s-11.448-5.615-15.825-5.431-13.467-2.2-18.854,0-11.089,13.3-19.348,15.326-29-2.349-34.789-6.052S233.2,128.5,234.86,124.794a31.224,31.224,0,0,0,2-12.731c-.336-2.42,8.417-7.168,11.447-10.348s5.894-13.543-1.275-18.725a244.243,244.243,0,0,0-93.2,43.1,15.027,15.027,0,0,0,2.229,5.776c2.02,3.365-1.218,5.387-1.115,6.4s1.908.894.333,2.8.027,1.574-1.447,2.921A43.206,43.206,0,0,1,150,147.352c-1.009.673-.673,2.692-2.692,5.05s-5.725,4.376-5.725,8.079-5.723,8.753-6.4,10.775-6.4,9.762-6.732,14.813a88.418,88.418,0,0,0,0,13.467,31.7,31.7,0,0,1-.254,10.1,78.622,78.622,0,0,0-1.767,13.8c-.336,6.734,2.358,9.764,8.753,11.784s18.5,7.744,21.539,12.122,4.722,9.762,7.078,10.437,4.378,7.743,12.12,13.129,22.222,6.069,28.618,12.966,18.181,23.707,21.212,32.978,8.079,12.686,13.467,17.208,12.12,9.57,17.17,9.907,7.109-1.781,6.921-3.583-6.584-7.19-7.6-8.537-3.029-10.437-6.059-16.834-3.367-6.658-2.358-9.726,3.03-9.792,6.061-11.478,5.387-.456,7.406-3.43,2.734-4.647,2.545-6.5-3.217-3.006-6.248-3.272-4.039-2.96-8.081-3.633-9.762-2.358-11.109-4.714-4.378-3.03-6.4-2.694-8.081,1.347-12.12-2.692-4.378-11.784-5.05-15.823-1.347-5.388-.336-8.417,1.009-5.407,5.723-7.586,12.456-3.88,17.17,0,14.142.853,16.161-1.5,7.743-9.426,12.456-9.762,12.456,0,15.487-2.694,14.478-8.372,16.5-12.94,9.764-17.816,9.764-22.133,14.14-12.734,18.179-11.387,9.428-5.05,11.447-5.05,8.081,1.009,11.448-3.03,6.059-6.754,8.753-10.615,4.714-9.922-5.05-12.952" transform="translate(90.505 59.421)" fill="#00570e"/>
            <path id="Tracciato_987" data-name="Tracciato 987" d="M263.582,354.606a178.292,178.292,0,0,0-21-11.168c-9.644-4.062-16.752-18.433-19.29-21.4s-4.568-28.856,0-33.426,9.169-12.182,12.961-18.274,5.314-10.154,3.791-12.692-1.522-16.952,0-19.391,9.138-7.006,12.692-6.5,14.722-2.617,19.29-.039,21.829,11.7,29.443,12.216,15.23,7.113,21.321,3.559S337.823,248,343,255.617s11.266,15.362,19.9,20.371,7.88,9.579,12.824,10.595,15.988,4.029,21.972,8.122,4.021,9.138-.92,15.23-11.084,15.737-15.12,21.829-2.564,15.23,0,17.767.535,13.2-3.018,16.244-11.168,8.122-14.214,13.706-2.752,9.726-9.752,12.225-22.737,9.6-32.383,11.888-17.768,2.825-24.366,8.393-7.53,20.688-13.74,23.281-24.841,14.253-31.949,13.5-7.1-2.176-3.041-7.3,14.322-14.155,20.1-22.387-1.834-16.18,3.242-19.513,5.965-13.23,7.55-16.149,1.16-19.13-16.5-28.808" transform="translate(157.934 165.172)" fill="#00570e"/>
            <path id="Tracciato_989" data-name="Tracciato 989" d="M236.811,216.278a11.324,11.324,0,0,1-3.384,7.7c-3.384,3.046-6.77,8.462-3.384,9.138s10.49,1.675,12.184,2.7,10.49,5.761,12.86,4.069,4.06-5.754,6.43-6.092,3.046-6.337,5.076-8.245,9.138-8.676,9.816-14.09,1.352-13.538,0-15.568-10.83-3.384-11.846-6.092-7.051-4.738-11.648-2.03-6.627,8.8-7.3,13.2-9.138,7.617-8.8,15.315" transform="translate(163.708 133.525)" fill="#00570e"/>
            <path id="Tracciato_1007" data-name="Tracciato 1007" d="M1306.445,280.085c230.146,65.83,200.113,282.087,200.113,282.087S1567.95,312.621,1306.445,280.085Z" transform="translate(-906.662 -132.164)" fill="#fff" opacity="0.219"/>
            <path id="Tracciato_990" data-name="Tracciato 990" d="M262.591,211.344a53.29,53.29,0,0,0-6.79,7.6c-2.8,3.983,4.793,1.987,6.79,2.385s2.4,3.284,6.39,2.241.4.156,3.995-1.042,4.793-.8,8.388-1.2,2.888-3.01,4.839-5.3,2.044-4.287,0-6.284-3.242,3.995-7.235,0-3.861-7.425-7.523-5.711-2.711,2.32-4.384,3.816-4.47,3.492-4.47,3.492" transform="translate(182.717 145.767)" fill="#00570e"/>
            <path id="Tracciato_1006" data-name="Tracciato 1006" d="M346.153,212.561c1.016,2.07,6.43,4.438,10.492,6.469s7.877-1.093,9.522-6.469,8.753-6.392,12.475-4.36,7.784,3.046,10.492,2.368c2.672-.668,7.856-2.66,7.99-2.711A245.961,245.961,0,0,0,326.261,112.1a52.887,52.887,0,0,1-7.181,8.129,25.4,25.4,0,0,0-6.638,9.46c-1.146,2.37-4.532,12.522-3.178,16.922s.791,7.446,5.81,11.168,9.486,4.987,7.252,11.8-.541,14.092-2.909,17.728-2.641,10.744,2.909,15.482,12.659,3.724,14.351,4.062,8.46,3.645,9.476,5.714" transform="translate(221.209 80.261)" fill="#00570e"/>
          </g>
        </g>
      </g>
    </g>
  </g>
</svg>
