<svg xmlns="http://www.w3.org/2000/svg" xmlns:xlink="http://www.w3.org/1999/xlink" width="474.47" height="477.63" viewBox="0 0 474.47 477.63">
  <defs>
    <clipPath id="clip-path">
      <rect id="Rettangolo_726" data-name="Rettangolo 726" width="363.556" height="314.826" fill="none"/>
    </clipPath>
  </defs>
  <g id="Raggruppa_1977" data-name="Raggruppa 1977" transform="matrix(0.946, -0.326, 0.326, 0.946, -1361.754, -1452.765)" opacity="0.278">
    <g id="Raggruppa_1842" data-name="Raggruppa 1842" transform="translate(782.688 1996.301)">
      <rect id="Rettangolo_722" data-name="Rettangolo 722" width="89.71" height="89.682" transform="translate(136.926 204.714)" fill="#c6def5"/>
      <rect id="Rettangolo_723" data-name="Rettangolo 723" width="89.71" height="89.682" transform="translate(136.926 204.714)" fill="none" stroke="#000" stroke-width="1"/>
      <rect id="Rettangolo_724" data-name="Rettangolo 724" width="149.519" height="21.606" transform="translate(107.019 292.751)" fill="#c6def5"/>
      <g id="Raggruppa_1839" data-name="Raggruppa 1839">
        <g id="Raggruppa_1838" data-name="Raggruppa 1838" clip-path="url(#clip-path)">
          <rect id="Rettangolo_725" data-name="Rettangolo 725" width="149.52" height="21.606" transform="translate(107.018 292.751)" fill="none" stroke="#000" stroke-width="1"/>
        </g>
      </g>
      <rect id="Rettangolo_727" data-name="Rettangolo 727" width="89.71" height="62.107" transform="translate(136.926 204.713)" fill="#7fabbc"/>
      <rect id="Rettangolo_728" data-name="Rettangolo 728" width="89.71" height="62.107" transform="translate(136.926 204.713)" fill="none" stroke="#000" stroke-width="1"/>
      <rect id="Rettangolo_729" data-name="Rettangolo 729" width="362.618" height="249.836" transform="translate(0.469 0.469)" fill="#c6def5"/>
      <g id="Raggruppa_1841" data-name="Raggruppa 1841">
        <g id="Raggruppa_1840" data-name="Raggruppa 1840" clip-path="url(#clip-path)">
          <rect id="Rettangolo_730" data-name="Rettangolo 730" width="362.618" height="249.835" transform="translate(0.469 0.47)" fill="none" stroke="#000" stroke-width="1"/>
        </g>
      </g>
      <rect id="Rettangolo_732" data-name="Rettangolo 732" width="349.837" height="212.386" transform="translate(6.86 8.452)" fill="#f4f4f4"/>
      <rect id="Rettangolo_733" data-name="Rettangolo 733" width="349.837" height="212.386" transform="translate(6.86 8.452)" fill="none" stroke="#000" stroke-width="1"/>
      <line id="Linea_67" data-name="Linea 67" y1="96.213" x2="96.213" transform="translate(223.659 28.089)" fill="#f4f4f4"/>
      <line id="Linea_68" data-name="Linea 68" y1="96.213" x2="96.213" transform="translate(223.659 28.089)" fill="none" stroke="#000" stroke-width="1"/>
      <line id="Linea_69" data-name="Linea 69" y1="96.213" x2="96.213" transform="translate(240.173 25.217)" fill="#f4f4f4"/>
      <line id="Linea_70" data-name="Linea 70" y1="96.213" x2="96.213" transform="translate(240.173 25.217)" fill="none" stroke="#000" stroke-width="1"/>
    </g>
    <path id="Tracciato_1318" data-name="Tracciato 1318" d="M0,14.431C11.745,14.431,11.745,0,23.49,0S35.234,14.431,46.979,14.431,58.723,0,70.468,0,82.213,14.431,93.957,14.431,105.7,0,117.446,0s11.745,14.431,23.49,14.431S152.681,0,164.425,0s11.746,14.431,23.493,14.431S199.664,0,211.41,0" transform="translate(688.312 2184.699)" fill="none" stroke="#03d06d" stroke-width="2"/>
    <g id="Ellisse_62" data-name="Ellisse 62" transform="translate(1048.125 1918)" fill="none" stroke="#5dbc7c" stroke-width="2">
      <ellipse cx="29.952" cy="29.952" rx="29.952" ry="29.952" stroke="none"/>
      <ellipse cx="29.952" cy="29.952" rx="28.952" ry="28.952" fill="none"/>
    </g>
  </g>
</svg>
