<svg xmlns="http://www.w3.org/2000/svg" width="245.038" height="173.392" viewBox="0 0 245.038 173.392">
  <g id="Raggruppa_2002" data-name="Raggruppa 2002" transform="matrix(0.94, 0.342, -0.342, 0.94, -507.618, -2824.407)" opacity="0.217">
    <path id="Tracciato_1317" data-name="Tracciato 1317" d="M0,7.78C6.332,7.78,6.332,0,12.664,0S19,7.78,25.328,7.78,31.66,0,37.993,0s6.332,7.78,12.664,7.78S56.988,0,63.32,0s6.332,7.78,12.665,7.78S82.317,0,88.649,0s6.333,7.78,12.666,7.78S107.647,0,113.98,0" transform="translate(1485.083 2587.277)" fill="none" stroke="#03d06d" stroke-width="2"/>
    <g id="Ellisse_61" data-name="Ellisse 61" transform="translate(1648.499 2417.332)" fill="none" stroke="#5dbc7c" stroke-width="2">
      <ellipse cx="16.148" cy="16.148" rx="16.148" ry="16.148" stroke="none"/>
      <ellipse cx="16.148" cy="16.148" rx="15.148" ry="15.148" fill="none"/>
    </g>
    <rect id="Rettangolo_736" data-name="Rettangolo 736" width="188.612" height="114.507" rx="5" transform="translate(1503.072 2459.28)" fill="none" stroke="#000" stroke-width="1"/>
    <path id="Tracciato_1316" data-name="Tracciato 1316" d="M1431.321,2464.334h188.347" transform="translate(71.751 5.344)" fill="none" stroke="#000" stroke-width="1"/>
    <g id="Raggruppa_1850" data-name="Raggruppa 1850" transform="translate(1526.102 2479.329)">
      <g id="Rettangolo_737" data-name="Rettangolo 737" transform="translate(0 36.752)" fill="#c6def5" stroke="#000" stroke-width="1">
        <rect width="8.909" height="44.547" stroke="none"/>
        <rect x="0.5" y="0.5" width="7.909" height="43.547" fill="none"/>
      </g>
      <g id="Rettangolo_738" data-name="Rettangolo 738" transform="translate(13.364 51.23)" fill="#c6def5" stroke="#000" stroke-width="1">
        <rect width="8.909" height="30.07" stroke="none"/>
        <rect x="0.5" y="0.5" width="7.909" height="29.07" fill="none"/>
      </g>
      <g id="Rettangolo_739" data-name="Rettangolo 739" transform="translate(26.728 35.638)" fill="#c6def5" stroke="#000" stroke-width="1">
        <rect width="8.909" height="45.661" stroke="none"/>
        <rect x="0.5" y="0.5" width="7.909" height="44.661" fill="none"/>
      </g>
      <g id="Rettangolo_740" data-name="Rettangolo 740" transform="translate(40.093 35.638)" fill="#c6def5" stroke="#000" stroke-width="1">
        <rect width="8.909" height="45.661" stroke="none"/>
        <rect x="0.5" y="0.5" width="7.909" height="44.661" fill="none"/>
      </g>
      <g id="Rettangolo_744" data-name="Rettangolo 744" transform="translate(93.55 26.728)" fill="#c6def5" stroke="#000" stroke-width="1">
        <rect width="8.909" height="54.571" stroke="none"/>
        <rect x="0.5" y="0.5" width="7.909" height="53.571" fill="none"/>
      </g>
      <g id="Rettangolo_745" data-name="Rettangolo 745" transform="translate(106.914 21.16)" fill="#c6def5" stroke="#000" stroke-width="1">
        <rect width="8.909" height="60.139" stroke="none"/>
        <rect x="0.5" y="0.5" width="7.909" height="59.139" fill="none"/>
      </g>
      <g id="Rettangolo_741" data-name="Rettangolo 741" transform="translate(53.457 17.819)" fill="#c6def5" stroke="#000" stroke-width="1">
        <rect width="8.909" height="63.48" stroke="none"/>
        <rect x="0.5" y="0.5" width="7.909" height="62.48" fill="none"/>
      </g>
      <g id="Rettangolo_746" data-name="Rettangolo 746" transform="translate(120.278 17.819)" fill="#c6def5" stroke="#000" stroke-width="1">
        <rect width="8.909" height="63.48" stroke="none"/>
        <rect x="0.5" y="0.5" width="7.909" height="62.48" fill="none"/>
      </g>
      <g id="Rettangolo_742" data-name="Rettangolo 742" transform="translate(66.821 8.909)" fill="#c6def5" stroke="#000" stroke-width="1">
        <rect width="8.909" height="72.39" stroke="none"/>
        <rect x="0.5" y="0.5" width="7.909" height="71.39" fill="none"/>
      </g>
      <g id="Rettangolo_743" data-name="Rettangolo 743" transform="translate(80.185 8.909)" fill="#c6def5" stroke="#000" stroke-width="1">
        <rect width="8.909" height="72.39" stroke="none"/>
        <rect x="0.5" y="0.5" width="7.909" height="71.39" fill="none"/>
      </g>
      <g id="Rettangolo_747" data-name="Rettangolo 747" transform="translate(133.642)" fill="#c6def5" stroke="#000" stroke-width="1">
        <rect width="8.909" height="81.299" stroke="none"/>
        <rect x="0.5" y="0.5" width="7.909" height="80.299" fill="none"/>
      </g>
    </g>
    <g id="Ellisse_58" data-name="Ellisse 58" transform="translate(1512.738 2462.624)" fill="#fff" stroke="red" stroke-width="1">
      <circle cx="2.227" cy="2.227" r="2.227" stroke="none"/>
      <circle cx="2.227" cy="2.227" r="1.727" fill="none"/>
    </g>
    <g id="Ellisse_59" data-name="Ellisse 59" transform="translate(1519.42 2462.624)" fill="#fff" stroke="#ffba00" stroke-width="1">
      <circle cx="2.227" cy="2.227" r="2.227" stroke="none"/>
      <circle cx="2.227" cy="2.227" r="1.727" fill="none"/>
    </g>
    <g id="Ellisse_60" data-name="Ellisse 60" transform="translate(1526.102 2462.624)" fill="#fff" stroke="#03d06d" stroke-width="1">
      <circle cx="2.227" cy="2.227" r="2.227" stroke="none"/>
      <circle cx="2.227" cy="2.227" r="1.727" fill="none"/>
    </g>
  </g>
</svg>
