<svg xmlns="http://www.w3.org/2000/svg" width="470.481" height="493.488" viewBox="0 0 470.481 493.488">
  <g id="Raggruppa_1979" data-name="Raggruppa 1979" transform="matrix(0.966, -0.259, 0.259, 0.966, -2122.064, -1838.379)" opacity="0.217">
    <path id="Tracciato_1317" data-name="Tracciato 1317" d="M0,17.236C14.028,17.236,14.028,0,28.056,0S42.083,17.236,56.111,17.236,70.138,0,84.166,0,98.194,17.236,112.22,17.236,126.248,0,140.275,0,154.3,17.236,168.332,17.236,182.359,0,196.387,0s14.029,17.236,28.059,17.236S238.475,0,252.5,0" transform="translate(1485.083 2793.818)" fill="none" stroke="#03d06d" stroke-width="2"/>
    <g id="Ellisse_61" data-name="Ellisse 61" transform="translate(1847.104 2417.332)" fill="none" stroke="#5dbc7c" stroke-width="2">
      <ellipse cx="35.774" cy="35.774" rx="35.774" ry="35.774" stroke="none"/>
      <ellipse cx="35.774" cy="35.774" rx="34.774" ry="34.774" fill="none"/>
    </g>
    <rect id="Rettangolo_736" data-name="Rettangolo 736" width="417.839" height="253.671" rx="5" transform="translate(1524.934 2510.261)" fill="none" stroke="#000" stroke-width="1"/>
    <path id="Tracciato_1316" data-name="Tracciato 1316" d="M1431.321,2464.334h417.251" transform="translate(93.613 68.961)" fill="none" stroke="#000" stroke-width="1"/>
    <g id="Raggruppa_1850" data-name="Raggruppa 1850" transform="translate(1575.954 2554.676)">
      <g id="Rettangolo_737" data-name="Rettangolo 737" transform="translate(0 81.417)" fill="#c6def5" stroke="#000" stroke-width="1">
        <rect width="19.737" height="98.687" stroke="none"/>
        <rect x="0.5" y="0.5" width="18.737" height="97.687" fill="none"/>
      </g>
      <g id="Rettangolo_738" data-name="Rettangolo 738" transform="translate(29.606 113.491)" fill="#c6def5" stroke="#000" stroke-width="1">
        <rect width="19.737" height="66.614" stroke="none"/>
        <rect x="0.5" y="0.5" width="18.737" height="65.614" fill="none"/>
      </g>
      <g id="Rettangolo_739" data-name="Rettangolo 739" transform="translate(59.212 78.95)" fill="#c6def5" stroke="#000" stroke-width="1">
        <rect width="19.737" height="101.155" stroke="none"/>
        <rect x="0.5" y="0.5" width="18.737" height="100.155" fill="none"/>
      </g>
      <g id="Rettangolo_740" data-name="Rettangolo 740" transform="translate(88.819 78.95)" fill="#c6def5" stroke="#000" stroke-width="1">
        <rect width="19.737" height="101.155" stroke="none"/>
        <rect x="0.5" y="0.5" width="18.737" height="100.155" fill="none"/>
      </g>
      <g id="Rettangolo_744" data-name="Rettangolo 744" transform="translate(207.244 59.212)" fill="#c6def5" stroke="#000" stroke-width="1">
        <rect width="19.737" height="120.892" stroke="none"/>
        <rect x="0.5" y="0.5" width="18.737" height="119.892" fill="none"/>
      </g>
      <g id="Rettangolo_745" data-name="Rettangolo 745" transform="translate(236.85 46.877)" fill="#c6def5" stroke="#000" stroke-width="1">
        <rect width="19.737" height="133.228" stroke="none"/>
        <rect x="0.5" y="0.5" width="18.737" height="132.228" fill="none"/>
      </g>
      <g id="Rettangolo_741" data-name="Rettangolo 741" transform="translate(118.425 39.475)" fill="#c6def5" stroke="#000" stroke-width="1">
        <rect width="19.737" height="140.63" stroke="none"/>
        <rect x="0.5" y="0.5" width="18.737" height="139.63" fill="none"/>
      </g>
      <g id="Rettangolo_746" data-name="Rettangolo 746" transform="translate(266.456 39.475)" fill="#c6def5" stroke="#000" stroke-width="1">
        <rect width="19.737" height="140.63" stroke="none"/>
        <rect x="0.5" y="0.5" width="18.737" height="139.63" fill="none"/>
      </g>
      <g id="Rettangolo_742" data-name="Rettangolo 742" transform="translate(148.031 19.737)" fill="#c6def5" stroke="#000" stroke-width="1">
        <rect width="19.737" height="160.367" stroke="none"/>
        <rect x="0.5" y="0.5" width="18.737" height="159.367" fill="none"/>
      </g>
      <g id="Rettangolo_743" data-name="Rettangolo 743" transform="translate(177.637 19.737)" fill="#c6def5" stroke="#000" stroke-width="1">
        <rect width="19.737" height="160.367" stroke="none"/>
        <rect x="0.5" y="0.5" width="18.737" height="159.367" fill="none"/>
      </g>
      <g id="Rettangolo_747" data-name="Rettangolo 747" transform="translate(296.062)" fill="#c6def5" stroke="#000" stroke-width="1">
        <rect width="19.737" height="180.105" stroke="none"/>
        <rect x="0.5" y="0.5" width="18.737" height="179.105" fill="none"/>
      </g>
    </g>
    <g id="Ellisse_58" data-name="Ellisse 58" transform="translate(1546.348 2517.668)" fill="#fff" stroke="red" stroke-width="1">
      <circle cx="4.934" cy="4.934" r="4.934" stroke="none"/>
      <circle cx="4.934" cy="4.934" r="4.434" fill="none"/>
    </g>
    <g id="Ellisse_59" data-name="Ellisse 59" transform="translate(1561.151 2517.668)" fill="#fff" stroke="#ffba00" stroke-width="1">
      <circle cx="4.934" cy="4.934" r="4.934" stroke="none"/>
      <circle cx="4.934" cy="4.934" r="4.434" fill="none"/>
    </g>
    <g id="Ellisse_60" data-name="Ellisse 60" transform="translate(1575.954 2517.668)" fill="#fff" stroke="#03d06d" stroke-width="1">
      <circle cx="4.934" cy="4.934" r="4.934" stroke="none"/>
      <circle cx="4.934" cy="4.934" r="4.434" fill="none"/>
    </g>
  </g>
</svg>
