<svg xmlns="http://www.w3.org/2000/svg" xmlns:xlink="http://www.w3.org/1999/xlink" width="241.42" height="205.38" viewBox="0 0 241.42 205.38">
  <defs>
    <clipPath id="clip-path">
      <rect id="Rettangolo_701" data-name="Rettangolo 701" width="194.786" height="118.691" rx="13" transform="translate(0 0)" fill="none"/>
    </clipPath>
  </defs>
  <g id="Raggruppa_2001" data-name="Raggruppa 2001" transform="translate(0 0)" opacity="0.231">
    <g id="Raggruppa_1849" data-name="Raggruppa 1849" transform="translate(57.247 29.739) rotate(19)">
      <g id="Raggruppa_1806" data-name="Raggruppa 1806" transform="translate(0)" clip-path="url(#clip-path)">
        <path id="Tracciato_1280" data-name="Tracciato 1280" d="M187.341,118.187H6.94A6.94,6.94,0,0,1,0,111.247V6.94A6.94,6.94,0,0,1,6.94,0h180.4a6.94,6.94,0,0,1,6.94,6.94V111.247a6.94,6.94,0,0,1-6.94,6.94" transform="translate(0.252 0.252)" fill="#c6def5"/>
        <rect id="Rettangolo_700" data-name="Rettangolo 700" width="194.281" height="118.187" rx="13.748" transform="translate(0.253 0.252)" fill="none" stroke="#000" stroke-width="1"/>
        <path id="Tracciato_1281" data-name="Tracciato 1281" d="M34.863,8.845H.951A.95.95,0,0,1,0,7.895V.95A.95.95,0,0,1,.951,0H34.863a.95.95,0,0,1,.95.95V7.895a.95.95,0,0,1-.95.95" transform="translate(13.239 73.357)" fill="#f8f8f8"/>
        <path id="Tracciato_1282" data-name="Tracciato 1282" d="M31.891,23.806H4.427A4.432,4.432,0,0,1,0,19.379V4.427A4.432,4.432,0,0,1,4.427,0H31.891a4.432,4.432,0,0,1,4.427,4.427V19.379a4.432,4.432,0,0,1-4.427,4.427M4.427.5A3.927,3.927,0,0,0,.5,4.427V19.379A3.927,3.927,0,0,0,4.427,23.3H31.891a3.927,3.927,0,0,0,3.922-3.922V4.427A3.927,3.927,0,0,0,31.891.5Z" transform="translate(12.987 16.429)" fill="#f8f8f8"/>
        <path id="Tracciato_1283" data-name="Tracciato 1283" d="M34.863,8.845H.951A.95.95,0,0,1,0,7.895V.95A.95.95,0,0,1,.951,0H34.863a.95.95,0,0,1,.95.95V7.895a.95.95,0,0,1-.95.95" transform="translate(58.021 73.357)" fill="#f8f8f8"/>
        <path id="Tracciato_1284" data-name="Tracciato 1284" d="M34.863,8.845H.951A.95.95,0,0,1,0,7.895V.95A.95.95,0,0,1,.951,0H34.863a.95.95,0,0,1,.95.95V7.895a.95.95,0,0,1-.95.95" transform="translate(102.803 73.357)" fill="#f8f8f8"/>
        <path id="Tracciato_1285" data-name="Tracciato 1285" d="M34.863,8.845H.951A.95.95,0,0,1,0,7.895V.95A.95.95,0,0,1,.951,0H34.863a.95.95,0,0,1,.95.95V7.895a.95.95,0,0,1-.95.95" transform="translate(147.585 73.357)" fill="#f8f8f8"/>
        <path id="Tracciato_1286" data-name="Tracciato 1286" d="M79.807,8.845H.95A.95.95,0,0,1,0,7.895V.95A.95.95,0,0,1,.95,0H79.807a.95.95,0,0,1,.95.95V7.895a.95.95,0,0,1-.95.95" transform="translate(102.64 90.579)" fill="#f8f8f8"/>
        <path id="Tracciato_1287" data-name="Tracciato 1287" d="M5.245,5.245H3.73A3.734,3.734,0,0,0,0,1.514V0A5.251,5.251,0,0,1,5.245,5.245" transform="translate(154.691 24.474)" fill="#f8f8f8"/>
        <path id="Tracciato_1288" data-name="Tracciato 1288" d="M9.691,9.691H8.177A8.186,8.186,0,0,0,0,1.514V0A9.7,9.7,0,0,1,9.691,9.691" transform="translate(154.958 19.762)" fill="#f8f8f8"/>
        <path id="Tracciato_1289" data-name="Tracciato 1289" d="M14.269,14.269H12.755A12.769,12.769,0,0,0,0,1.514V0A14.285,14.285,0,0,1,14.269,14.269" transform="translate(155.68 14.461)" fill="#f8f8f8"/>
      </g>
    </g>
    <path id="Tracciato_1310" data-name="Tracciato 1310" d="M0,8.013C6.522,8.013,6.522,0,13.044,0s6.522,8.013,13.044,8.013S32.609,0,39.131,0s6.522,8.013,13.043,8.013S58.7,0,65.218,0,71.74,8.013,78.262,8.013,84.784,0,91.305,0s6.523,8.013,13.046,8.013S110.874,0,117.4,0" transform="translate(0 165.767)" fill="none" stroke="#03d06d" stroke-width="2"/>
    <g id="Ellisse_56" data-name="Ellisse 56" transform="translate(83.736 0)" fill="none" stroke="#5dbc7c" stroke-width="2">
      <circle cx="16.632" cy="16.632" r="16.632" stroke="none"/>
      <circle cx="16.632" cy="16.632" r="15.632" fill="none"/>
    </g>
  </g>
</svg>
