<svg id="Raggruppa_1939" data-name="Raggruppa 1939" xmlns="http://www.w3.org/2000/svg" xmlns:xlink="http://www.w3.org/1999/xlink" width="34.207" height="33.396" viewBox="0 0 34.207 33.396">
  <defs>
    <clipPath id="clip-path">
      <rect id="Rettangolo_90" data-name="Rettangolo 90" width="34.207" height="33.396" fill="#03d06d"/>
    </clipPath>
  </defs>
  <g id="Raggruppa_196" data-name="Raggruppa 196" clip-path="url(#clip-path)">
    <path id="Tracciato_69" data-name="Tracciato 69" d="M17.971,0c.561.067,1.124.122,1.683.2a16.564,16.564,0,0,1,8.3,3.684,16.831,16.831,0,0,1,5.666,8.722,17.164,17.164,0,0,1,.471,6.512,16.234,16.234,0,0,1-2.27,6.729,16.955,16.955,0,0,1-7.2,6.651,19.688,19.688,0,0,1-1.939.8c-.8.286-1.325-.068-1.332-.919-.013-1.614-.005-3.228-.02-4.842a3.815,3.815,0,0,0-1.1-2.841,3.985,3.985,0,0,1,.951-.172,9.411,9.411,0,0,0,3.984-1.5,5.949,5.949,0,0,0,2.351-3.344,10.062,10.062,0,0,0,.284-5.167,5.846,5.846,0,0,0-1.3-2.559.6.6,0,0,1-.135-.673,5.963,5.963,0,0,0-.241-4.043c-.056-.15-.17-.153-.293-.164a3.624,3.624,0,0,0-1.651.324,12.805,12.805,0,0,0-2.54,1.314.592.592,0,0,1-.526.1,15.582,15.582,0,0,0-5.422-.457,13.607,13.607,0,0,0-2.492.427.779.779,0,0,1-.708-.119A11.2,11.2,0,0,0,9.042,7.113c-.032-.008-.064-.021-.1-.026-.705-.118-.86-.022-1.057.66a5.823,5.823,0,0,0,.017,3.732c.062.169-.019.249-.1.347a5.861,5.861,0,0,0-1.473,3.086,9.423,9.423,0,0,0,1.387,6.824,6.4,6.4,0,0,0,3.007,2.187,11.089,11.089,0,0,0,2.709.662l.516.075c-.093.235-.3.366-.422.559a3.9,3.9,0,0,0-.568,1.48c-.021.131-.032.264-.188.322a4.208,4.208,0,0,1-3.146.157A3.294,3.294,0,0,1,8.03,25.711,3.857,3.857,0,0,0,5.853,23.9a1.726,1.726,0,0,0-1.08-.049c-.212.068-.293.179-.154.4a1.526,1.526,0,0,0,.509.521A4.556,4.556,0,0,1,6.96,27.033,4.191,4.191,0,0,0,7.853,28.5a4.1,4.1,0,0,0,2.6.965,8.675,8.675,0,0,0,2.409-.13c0,.227,0,.423,0,.619.006.8.017,1.6.019,2.4,0,.85-.543,1.224-1.354.944a16.8,16.8,0,0,1-8.037-5.821,16.724,16.724,0,0,1-3.34-7.957A9.125,9.125,0,0,0,0,18.371V15.9a2.475,2.475,0,0,0,.066-.322,15.03,15.03,0,0,1,.511-2.948,16.922,16.922,0,0,1,5.7-8.768A16.561,16.561,0,0,1,14.551.2c.559-.079,1.122-.135,1.683-.2Z" transform="translate(0 0)" fill="#03d06d"/>
  </g>
</svg>
