<svg id="Raggruppa_1938" data-name="Raggruppa 1938" xmlns="http://www.w3.org/2000/svg" xmlns:xlink="http://www.w3.org/1999/xlink" width="34.207" height="27" viewBox="0 0 34.207 27">
  <defs>
    <clipPath id="clip-path">
      <rect id="Rettangolo_91" data-name="Rettangolo 91" width="34.207" height="27" fill="#03d06d"/>
    </clipPath>
  </defs>
  <g id="Raggruppa_198" data-name="Raggruppa 198" clip-path="url(#clip-path)">
    <path id="Tracciato_70" data-name="Tracciato 70" d="M34.207,17.562v3.525a.44.44,0,0,0-.058.3,9.4,9.4,0,0,1-.086,1.059.917.917,0,0,1-.254.231q-.918.689-1.887,1.3a27.693,27.693,0,0,1-6.163,2.913c-.131.043-.266.138-.415.049a12.608,12.608,0,0,1-1.739-3.09c.459-.206.93-.4,1.389-.63a9.479,9.479,0,0,0,1.374-.773,2.407,2.407,0,0,0-.619-.557,19.712,19.712,0,0,1-17.291,0,3.991,3.991,0,0,0-.649.542,11.268,11.268,0,0,0,1.388.778c.475.235.963.444,1.47.675A19.968,19.968,0,0,1,8.815,27,27.771,27.771,0,0,1,.167,22.489a11.345,11.345,0,0,1-.139-1.683,31.952,31.952,0,0,1,.264-5.784,30.326,30.326,0,0,1,.962-4.359,32.915,32.915,0,0,1,3.74-8.088,1.259,1.259,0,0,1,.564-.5A27.8,27.8,0,0,1,11.279.167,3.637,3.637,0,0,1,12.3.006c.361.6.623,1.241.926,1.872a25.723,25.723,0,0,1,7.776,0A18.511,18.511,0,0,1,21.9.018a1.483,1.483,0,0,1,.658.071,27.758,27.758,0,0,1,6.232,2.047.793.793,0,0,1,.342.309,33.049,33.049,0,0,1,2.513,4.626,29.269,29.269,0,0,1,2.5,10.226.606.606,0,0,0,.059.266m-19.7-2.718a3.934,3.934,0,0,0-.753-2.354,2.781,2.781,0,0,0-4.229-.424,3.569,3.569,0,0,0-1.111,2.358A3.758,3.758,0,0,0,9.351,17.4a2.736,2.736,0,0,0,4.12.076,3.866,3.866,0,0,0,1.034-2.637m5.242-.037a3.8,3.8,0,0,0,1.21,2.837,2.721,2.721,0,0,0,3.832-.113,3.984,3.984,0,0,0,.323-5.041,2.762,2.762,0,0,0-3.995-.616,3.55,3.55,0,0,0-1.37,2.934" transform="translate(0 0)" fill="#03d06d"/>
  </g>
</svg>
