<svg xmlns="http://www.w3.org/2000/svg" xmlns:xlink="http://www.w3.org/1999/xlink" width="793.726" height="704.963" viewBox="0 0 793.726 704.963">
  <defs>
    <linearGradient id="linear-gradient" x1="0.239" y1="0.909" x2="1.206" y2="0.092" gradientUnits="objectBoundingBox">
      <stop offset="0" stop-color="#f2fffe"/>
      <stop offset="0.286" stop-color="#e0fee3"/>
      <stop offset="0.774" stop-color="#c8e0fb"/>
      <stop offset="1" stop-color="#c3e8ff"/>
    </linearGradient>
    <clipPath id="clip-path">
      <rect id="Rettangolo_650" data-name="Rettangolo 650" width="402.955" height="380.106" fill="none"/>
    </clipPath>
    <clipPath id="clip-path-2">
      <rect id="Rettangolo_651" data-name="Rettangolo 651" width="127.648" height="127.657" fill="none"/>
    </clipPath>
  </defs>
  <g id="Raggruppa_1797" data-name="Raggruppa 1797" transform="translate(-191.955 -3164.269)">
    <path id="Tracciato_1041" data-name="Tracciato 1041" d="M385.059,82.262c40.2.508,108.18,15.626,144.824,32.162,37.061,16.724,86.865,65.767,111.942,97.772,24.985,31.887,28.63,103.242,38.538,142.522,10.046,39.824,17.954,81.039,9.737,121.28-8.285,40.574-35.281,79.871-63.131,110.518-27.138,29.863-56.3,122.7-92.511,140.5-36.426,17.905-94.665-51.266-135.236-50.058-40.915,1.218-124.6,96.835-160.551,77.26-35.073-19.1-63.009-47.634-88.957-77.991-26.542-31.051,56.4-135.592,46.983-175.341-9.431-39.827-53.7-104.689-41.7-143.821,11.533-37.63,12.236-102,35.78-133.534,24.056-32.222,69.591-27.935,105.35-46.326,36.021-18.525,48.432-95.456,88.934-94.944" transform="matrix(-0.259, -0.966, 0.966, -0.259, 291.995, 4030.05)" fill="url(#linear-gradient)"/>
    <g id="Raggruppa_1717" data-name="Raggruppa 1717" transform="translate(541.045 3326.44)">
      <g id="Raggruppa_1716" data-name="Raggruppa 1716" clip-path="url(#clip-path)">
        <path id="Tracciato_1043" data-name="Tracciato 1043" d="M268.7,320.3H12.463A11.963,11.963,0,0,0,.5,332.263V518.3a11.963,11.963,0,0,0,11.963,11.963H249.883A11.963,11.963,0,0,0,261.846,518.3v-1.156H268.7a11.963,11.963,0,0,0,11.963-11.963V332.263A11.963,11.963,0,0,0,268.7,320.3" transform="translate(-0.237 -152.036)" fill="#c6def5"/>
        <path id="Tracciato_1044" data-name="Tracciato 1044" d="M268.7,320.3H12.463A11.963,11.963,0,0,0,.5,332.263V518.3a11.963,11.963,0,0,0,11.963,11.963H249.883A11.963,11.963,0,0,0,261.846,518.3v-1.156H268.7a11.963,11.963,0,0,0,11.963-11.963V332.263A11.963,11.963,0,0,0,268.7,320.3Z" transform="translate(-0.237 -152.036)" fill="none" stroke="#000" stroke-width="1"/>
        <path id="Tracciato_1045" data-name="Tracciato 1045" d="M280.9,335.781a6.334,6.334,0,0,0-6.334-6.334H22.736a6.471,6.471,0,0,0-6.542,6.215,6.334,6.334,0,0,0,6.332,6.453H261.31a6.869,6.869,0,0,1,6.869,6.869V515.945h5.22a7.448,7.448,0,0,0,7.448-7.448V336.587a6.386,6.386,0,0,0,.057-.806" transform="translate(-7.686 -156.378)" fill="#29468b"/>
        <path id="Tracciato_1046" data-name="Tracciato 1046" d="M455.917,466.309H406.891a25.327,25.327,0,1,0,0,50.653h48.984a6.081,6.081,0,0,0,3.694-1.251l2.278-1.741V462.579l-2.454,2.339a5.036,5.036,0,0,1-3.475,1.391" transform="translate(-181.116 -219.571)" fill="#395aa4"/>
        <path id="Tracciato_1047" data-name="Tracciato 1047" d="M455.917,466.309H406.891a25.327,25.327,0,1,0,0,50.653h48.984a6.081,6.081,0,0,0,3.694-1.251l2.278-1.741V462.579l-2.454,2.339A5.036,5.036,0,0,1,455.917,466.309Z" transform="translate(-181.116 -219.571)" fill="none" stroke="#000" stroke-width="1"/>
        <path id="Tracciato_1048" data-name="Tracciato 1048" d="M412.988,518.789a11.14,11.14,0,1,0-11.152-11.147,11.18,11.18,0,0,0,11.152,11.147" transform="translate(-190.738 -235.676)" fill="#c6def5"/>
        <path id="Tracciato_1049" data-name="Tracciato 1049" d="M412.988,518.789a11.14,11.14,0,1,0-11.152-11.147A11.18,11.18,0,0,0,412.988,518.789Z" transform="translate(-190.738 -235.676)" fill="none" stroke="#000" stroke-width="1"/>
        <path id="Tracciato_1050" data-name="Tracciato 1050" d="M567.338,606.224a60.538,60.538,0,0,0,82.381-22.4c16.506-28.915,6.394-65.972-22.456-82.3a60.329,60.329,0,0,0-82.15,22.267c-16.553,28.819-6.523,66.021,22.225,82.43" transform="translate(-254.957 -234.303)" fill="#ffc13b"/>
        <path id="Tracciato_1051" data-name="Tracciato 1051" d="M567.338,606.224a60.538,60.538,0,0,0,82.381-22.4c16.506-28.915,6.394-65.972-22.456-82.3a60.329,60.329,0,0,0-82.15,22.267C528.56,552.613,538.591,589.815,567.338,606.224Z" transform="translate(-254.957 -234.303)" fill="none" stroke="#000" stroke-width="1"/>
        <path id="Tracciato_1052" data-name="Tracciato 1052" d="M585.13,606.679a47.609,47.609,0,1,0-17.542-65.063,47.783,47.783,0,0,0,17.542,65.063" transform="translate(-266.423 -245.781)" fill="#ffe8b6"/>
        <path id="Tracciato_1053" data-name="Tracciato 1053" d="M634.71,571.307a9.551,9.551,0,0,0-8.209,4.915,8.869,8.869,0,0,0-.114,9.546,24.981,24.981,0,0,0,4.152,5.031c.4.395.793.779,1.177,1.159l-4.044,7.027a4.283,4.283,0,0,1-.939-1.573,3.993,3.993,0,0,1-.075-2.153,1.712,1.712,0,0,0-.794-1.874l-2.9-1.669-1.386-.8a2.531,2.531,0,0,0-3.752,1.7,9.962,9.962,0,0,0,.94,6.387,15.338,15.338,0,0,0,4.164,5.01c.407.336.837.659,1.284.972l-1.28,2.224a1.643,1.643,0,1,0,2.847,1.639l1.255-2.181a14.513,14.513,0,0,0,9.414,1.729,9.879,9.879,0,0,0,5.38-2.9,10.054,10.054,0,0,0,1.437-1.927,8.9,8.9,0,0,0-.524-10.306,41.258,41.258,0,0,0-4.851-5.461l3.969-6.9a3.73,3.73,0,0,1,.878,3.078,2.107,2.107,0,0,0,1.016,2.157l3.9,2.243a2.671,2.671,0,0,0,3.969-1.936c.679-4.472-1.61-8.508-6.226-11.68l1.255-2.181a1.643,1.643,0,0,0-2.847-1.639l-1.255,2.181c-.49-.239-.981-.457-1.471-.65a15.413,15.413,0,0,0-6.367-1.182m-.632,23.134c1.351,1.666,2,3.22,1.073,4.822a3.661,3.661,0,0,1-4.709,1.494Zm1.506-9.2a7.938,7.938,0,0,1-.932-1.584,3.34,3.34,0,0,1,.107-3.156,3.145,3.145,0,0,1,2.721-1.758,4.391,4.391,0,0,1,1.664.314Z" transform="translate(-293.18 -270.624)" fill="#ffc13b"/>
        <path id="Tracciato_1054" data-name="Tracciato 1054" d="M361.251,307.117H280.984c-.094-.4-.18-.793-.262-1.2A41.231,41.231,0,0,1,296.095,265.1,41.176,41.176,0,0,1,361.5,289.562a40.7,40.7,0,0,1-.251,17.556" transform="translate(-132.86 -121.787)" fill="#ffc13b"/>
        <path id="Tracciato_1055" data-name="Tracciato 1055" d="M361.251,307.117H280.984c-.094-.4-.18-.793-.262-1.2A41.231,41.231,0,0,1,296.095,265.1,41.176,41.176,0,0,1,361.5,289.562,40.7,40.7,0,0,1,361.251,307.117Z" transform="translate(-132.86 -121.787)" fill="none" stroke="#000" stroke-width="1"/>
        <path id="Tracciato_1056" data-name="Tracciato 1056" d="M360.119,314.969H297.806c-.133-.456-.262-.912-.377-1.378-.129-.5-.244-1.012-.348-1.526a32.287,32.287,0,0,1,4.416-23.8v0a32.527,32.527,0,0,1,59.347,10.892,32.158,32.158,0,0,1-.725,15.818" transform="translate(-140.706 -129.639)" fill="#ffe8b6"/>
        <path id="Tracciato_1057" data-name="Tracciato 1057" d="M358.293,324.97a6.075,6.075,0,0,0-4.919-5.055,27.943,27.943,0,0,0-4.951-.617l-1.073-5.332a2.549,2.549,0,0,1,1.838,1.185,1.439,1.439,0,0,0,1.493.65l3.012-.607a1.827,1.827,0,0,0,1.167-2.783c-1.669-2.6-4.667-3.644-8.465-3.191l-.341-1.684a1.122,1.122,0,0,0-2.2.441l.342,1.687c-.359.1-.711.209-1.049.33a10.581,10.581,0,0,0-3.8,2.262,6.532,6.532,0,0,0-2,6.229,6.062,6.062,0,0,0,4.247,4.951,17.023,17.023,0,0,0,4.4.711l1.127.065,1.092,5.431a2.936,2.936,0,0,1-1.188-.384,2.763,2.763,0,0,1-1.012-1.073,1.171,1.171,0,0,0-1.253-.6l-2.24.452-1.073.215a1.73,1.73,0,0,0-1.156,2.567.348.348,0,0,0,.04.061H356.67c.1-.118.2-.237.3-.359a6.733,6.733,0,0,0,1.457-3.913,6.842,6.842,0,0,0-.132-1.637m-13.409-6.343a2.292,2.292,0,0,1-1.372-1.669,2.151,2.151,0,0,1,.607-2.129,3,3,0,0,1,.994-.593l.962,4.782a5.359,5.359,0,0,1-1.191-.391m5.55,10.677-.98-4.882c1.444.247,2.477.754,2.725,1.993a2.5,2.5,0,0,1-1.745,2.89" transform="translate(-160.058 -145.55)" fill="#ffc13b"/>
        <path id="Tracciato_1058" data-name="Tracciato 1058" d="M459.005,119.969a60.538,60.538,0,0,0,47.108-71.2C499.431,16.153,467.378-5.014,434.93,1.763a60.329,60.329,0,0,0-47.024,70.945c6.583,32.576,38.671,53.905,71.1,47.261" transform="translate(-183.555 -0.237)" fill="#ffc13b"/>
        <path id="Tracciato_1059" data-name="Tracciato 1059" d="M459.005,119.969a60.538,60.538,0,0,0,47.108-71.2C499.431,16.153,467.378-5.014,434.93,1.763a60.329,60.329,0,0,0-47.024,70.945C394.49,105.285,426.578,126.614,459.005,119.969Z" transform="translate(-183.555 -0.237)" fill="none" stroke="#000" stroke-width="1"/>
        <path id="Tracciato_1060" data-name="Tracciato 1060" d="M467.967,119a47.608,47.608,0,1,0-56.119-37.3A47.783,47.783,0,0,0,467.967,119" transform="translate(-195.04 -11.727)" fill="#ffe8b6"/>
        <path id="Tracciato_1061" data-name="Tracciato 1061" d="M473.69,81.984a9.553,9.553,0,0,0-2.924,9.11,8.87,8.87,0,0,0,6.215,7.247,24.987,24.987,0,0,0,6.439,1.039c.56.034,1.109.061,1.65.094l1.6,7.948a4.282,4.282,0,0,1-1.744-.562,3.993,3.993,0,0,1-1.477-1.568,1.711,1.711,0,0,0-1.833-.884l-3.281.66-1.568.315a2.531,2.531,0,0,0-1.693,3.757,9.961,9.961,0,0,0,4.921,4.178,15.329,15.329,0,0,0,6.435,1.016c.527-.017,1.064-.057,1.607-.118l.506,2.516a1.642,1.642,0,1,0,3.22-.648l-.5-2.467a14.513,14.513,0,0,0,8.214-4.914,9.88,9.88,0,0,0,2.131-5.727,10.05,10.05,0,0,0-.192-2.4,8.9,8.9,0,0,0-7.2-7.4,41.2,41.2,0,0,0-7.249-.9l-1.569-7.8a3.728,3.728,0,0,1,2.691,1.733,2.109,2.109,0,0,0,2.187.951l4.408-.887a2.671,2.671,0,0,0,1.7-4.074c-2.441-3.808-6.825-5.329-12.386-4.667l-.5-2.467a1.642,1.642,0,1,0-3.22.648l.5,2.467q-.79.216-1.533.482a15.43,15.43,0,0,0-5.564,3.314m14.793,17.8c2.115.36,3.624,1.1,3.988,2.914a3.659,3.659,0,0,1-2.551,4.229Zm-4.942-7.907A7.929,7.929,0,0,1,481.8,91.3a3.341,3.341,0,0,1-2-2.441,3.145,3.145,0,0,1,.885-3.117,4.376,4.376,0,0,1,1.457-.862Z" transform="translate(-223.357 -35.009)" fill="#ffc13b"/>
        <path id="Tracciato_1062" data-name="Tracciato 1062" d="M199.824,245.91a59.578,59.578,0,0,1-6.64,27.606H85.879A60.265,60.265,0,1,1,199.824,245.91" transform="translate(-37.602 -88.185)" fill="#ffc13b"/>
        <path id="Tracciato_1063" data-name="Tracciato 1063" d="M199.824,245.91a59.578,59.578,0,0,1-6.64,27.606H85.879A60.265,60.265,0,1,1,199.824,245.91Z" transform="translate(-37.602 -88.185)" fill="none" stroke="#000" stroke-width="1"/>
        <path id="Tracciato_1064" data-name="Tracciato 1064" d="M198.594,257.433a47.1,47.1,0,0,1-7.4,25.547Q190.545,284,189.836,285h-77.67a47.556,47.556,0,1,1,84.978-39.085v.005a47.559,47.559,0,0,1,1.45,11.515" transform="translate(-49.08 -99.667)" fill="#ffe8b6"/>
        <path id="Tracciato_1065" data-name="Tracciato 1065" d="M192.888,283.517a9.66,9.66,0,0,0-4.586-4.129,41.279,41.279,0,0,0-6.929-2.317v-7.954a3.742,3.742,0,0,1,2.3,2.227,2.106,2.106,0,0,0,1.954,1.366h4.5a2.672,2.672,0,0,0,2.474-3.656c-1.644-4.218-5.642-6.572-11.226-7.018V259.52a1.642,1.642,0,1,0-3.283,0v2.516c-.541.037-1.077.089-1.6.168a15.452,15.452,0,0,0-6.11,2.154,9.549,9.549,0,0,0-4.665,8.353,8.881,8.881,0,0,0,4.665,8.332,24.967,24.967,0,0,0,6.11,2.285c.541.147,1.077.284,1.6.42v8.106a4.265,4.265,0,0,1-1.6-.893,4.028,4.028,0,0,1-1.14-1.828,1.713,1.713,0,0,0-1.623-1.229h-4.943a2.531,2.531,0,0,0-2.4,3.352,9.967,9.967,0,0,0,4,5.064,15.354,15.354,0,0,0,6.11,2.264c.52.089,1.056.152,1.6.2v2.564a1.642,1.642,0,1,0,3.283,0v-2.516a14.538,14.538,0,0,0,9.025-3.194,9.9,9.9,0,0,0,3.215-5.2,10.054,10.054,0,0,0,.284-2.39,9.617,9.617,0,0,0-1.009-4.539m-14.8-7.523a7.7,7.7,0,0,1-1.6-.909,3.326,3.326,0,0,1-1.481-2.784,3.149,3.149,0,0,1,1.481-2.884,4.385,4.385,0,0,1,1.6-.557Zm3.283,16.012v-7.286c2.007.772,3.336,1.8,3.336,3.646a3.657,3.657,0,0,1-3.336,3.641" transform="translate(-78.661 -122.405)" fill="#ffc13b"/>
      </g>
    </g>
    <g id="Raggruppa_1719" data-name="Raggruppa 1719" transform="translate(321.652 3400.166) rotate(-41)">
      <g id="Raggruppa_1718" data-name="Raggruppa 1718" clip-path="url(#clip-path-2)">
        <path id="Tracciato_1066" data-name="Tracciato 1066" d="M31.859,118.749a63.839,63.839,0,0,0,86.874-23.623c17.406-30.492,6.743-69.57-23.681-86.783A63.619,63.619,0,0,0,8.422,31.823c-17.456,30.391-6.878,69.621,23.437,86.925" transform="translate(0.277 0.277)" fill="#ffc13b"/>
        <path id="Tracciato_1067" data-name="Tracciato 1067" d="M31.859,118.749a63.839,63.839,0,0,0,86.874-23.623c17.406-30.492,6.743-69.57-23.681-86.783A63.619,63.619,0,0,0,8.422,31.823C-9.034,62.214,1.543,101.444,31.859,118.749Z" transform="translate(0.277 0.277)" fill="none" stroke="#000" stroke-width="1"/>
        <path id="Tracciato_1068" data-name="Tracciato 1068" d="M25.147,93.729a50.2,50.2,0,1,0-18.5-68.611c-13.779,23.988-5.43,54.953,18.5,68.611" transform="translate(13.659 13.673)" fill="#ffe8b6"/>
        <path id="Tracciato_1069" data-name="Tracciato 1069" d="M17.986,1.236A10.072,10.072,0,0,0,9.329,6.419a9.352,9.352,0,0,0-.12,10.067,26.348,26.348,0,0,0,4.379,5.3c.419.416.836.821,1.241,1.222l-4.265,7.41a4.518,4.518,0,0,1-.991-1.659,4.21,4.21,0,0,1-.079-2.27,1.805,1.805,0,0,0-.837-1.976L5.6,22.757l-1.461-.841a2.669,2.669,0,0,0-3.957,1.8,10.506,10.506,0,0,0,.991,6.735,16.176,16.176,0,0,0,4.391,5.283c.429.354.882.7,1.354,1.025L5.568,39.1a1.732,1.732,0,1,0,3,1.728l1.323-2.3a15.3,15.3,0,0,0,9.927,1.823A10.418,10.418,0,0,0,25.495,37.3a10.6,10.6,0,0,0,1.516-2.033,10.161,10.161,0,0,0,1.464-4.683A10.2,10.2,0,0,0,26.458,24.4a43.51,43.51,0,0,0-5.116-5.759l4.185-7.272a3.931,3.931,0,0,1,.926,3.246,2.222,2.222,0,0,0,1.071,2.275l4.109,2.365a2.816,2.816,0,0,0,4.185-2.041c.716-4.716-1.7-8.972-6.565-12.317l1.323-2.3a1.732,1.732,0,0,0-3-1.728l-1.323,2.3c-.517-.252-1.034-.482-1.551-.685a16.256,16.256,0,0,0-6.714-1.247m-.667,24.4c1.425,1.757,2.1,3.4,1.132,5.085a3.86,3.86,0,0,1-4.965,1.576Zm1.588-9.7a8.368,8.368,0,0,1-.983-1.671,3.522,3.522,0,0,1,.112-3.328,3.317,3.317,0,0,1,2.87-1.854,4.629,4.629,0,0,1,1.755.331Z" transform="translate(44.888 42.667)" fill="#ffc13b"/>
      </g>
    </g>
  </g>
</svg>
