<svg id="Raggruppa_1986" data-name="Raggruppa 1986" xmlns="http://www.w3.org/2000/svg" xmlns:xlink="http://www.w3.org/1999/xlink" width="77.568" height="103.247" viewBox="0 0 77.568 103.247">
  <defs>
    <clipPath id="clip-path">
      <rect id="Rettangolo_587" data-name="Rettangolo 587" width="77.568" height="103.247" fill="#fff"/>
    </clipPath>
  </defs>
  <g id="Raggruppa_1700" data-name="Raggruppa 1700" clip-path="url(#clip-path)">
    <path id="Tracciato_1008" data-name="Tracciato 1008" d="M36.172,140.666c-1.424-.36-2.89-.523-4.292-1a18.859,18.859,0,0,1-7.255-4.218c-3.971-3.864-8.052-7.633-11.629-11.875a19.729,19.729,0,0,1-4.3-9.428,1.99,1.99,0,0,1,1.533-2.521A2.046,2.046,0,0,1,12.6,113.3a19.833,19.833,0,0,0,6.119,10.645c2.711,2.608,5.31,5.333,8,7.963a16.014,16.014,0,0,0,22.878-.146q11.221-11.3,22.428-22.616a4.748,4.748,0,0,0,1.508-3.3A3.914,3.914,0,0,0,67.5,102.33c-.426.266-.809.6-1.221.888a2.021,2.021,0,0,1-2.664-.18,1.966,1.966,0,0,1-.036-2.74c.642-.731,1.364-1.39,2.038-2.094a3.914,3.914,0,0,0,.473-5.219c-1.168-1.543-3.116-1.827-5.071-.777a12.01,12.01,0,0,0-2.586,2.224c-1.055,1.03-2.238,1.151-3.11.315-.9-.864-.8-2.083.269-3.183.632-.65,1.327-1.248,1.894-1.951a4.176,4.176,0,0,0,.623-4.539A3.372,3.372,0,0,0,55.083,82.9a4.39,4.39,0,0,0-3.394,1.257c-.587.552-1.138,1.142-1.712,1.709-1.122,1.11-2.275,1.211-3.171.286-.849-.876-.745-2.051.3-3.106q6.416-6.484,12.841-12.959,5.783-5.835,11.568-11.667a4.59,4.59,0,0,0,1.649-3.836,4.109,4.109,0,0,0-7.005-2.429c-2.172,2.151-4.311,4.336-6.465,6.507L29.381,89.216c-1.449,1.46-2.217,1.583-3.975.47-3.033-1.918-4.753-4.88-6.115-8.058C18.421,79.6,17.767,77.473,17,75.4A15.26,15.26,0,0,0,6.162,65.357c-.639-.173-1.449-.525-1.914-.009s.182,1.181.42,1.732C6.531,71.39,8.786,75.53,10.274,80a44.355,44.355,0,0,1,2.711,15.187c-.044,1.726-1.412,2.721-2.819,2.1a1.826,1.826,0,0,1-1.2-1.813c.23-6.828-1.948-13.091-4.552-19.239C3.314,73.642,2.1,71.095.861,68.564c-.928-1.9-1.347-3.776-.005-5.6C2.29,61,4.416,60.833,6.511,61.328A18.966,18.966,0,0,1,20.854,74.263a54.121,54.121,0,0,0,3.7,8.8A9.3,9.3,0,0,0,26.9,85.807c.436-.109.644-.48.916-.754Q45.428,67.317,63.029,49.567a8.05,8.05,0,0,1,7.2-2.576,7.758,7.758,0,0,1,6.546,5.42,7.667,7.667,0,0,1-1.838,8.21c-3.605,3.8-7.328,7.495-11.033,11.2-2.374,2.375-4.8,4.694-7.328,7.154,3.865,1.669,5.928,4.366,5.989,8.411,5.907.128,9.51,4.991,8.068,10.233a4.021,4.021,0,0,0,.449.148c7.031,1.466,8.37,9.736,3.921,14.12-3.686,3.631-7.29,7.345-10.933,11.019-3.762,3.793-7.558,7.553-11.282,11.383a20.025,20.025,0,0,1-12.216,6.221,1.431,1.431,0,0,0-.364.156Z" transform="translate(0 -37.419)" fill="#fff"/>
    <path id="Tracciato_1009" data-name="Tracciato 1009" d="M155.068,8.458c0-2.045-.008-4.091,0-6.136a2.033,2.033,0,1,1,4.024.01q.013,6.237,0,12.474a2.034,2.034,0,1,1-4.024-.01c-.011-2.112,0-4.225,0-6.337" transform="translate(-123.732 0)" fill="#fff"/>
    <path id="Tracciato_1010" data-name="Tracciato 1010" d="M85.5,23.357a1.9,1.9,0,0,1-1.494,1.622,1.864,1.864,0,0,1-2.231-.941c-.856-1.477-1.649-2.991-2.467-4.49-1.139-2.087-2.282-4.172-3.412-6.263-.725-1.341-.47-2.531.644-3.115,1.076-.564,2.174-.132,2.887,1.169q2.847,5.2,5.673,10.408a2.67,2.67,0,0,1,.4,1.61" transform="translate(-60.234 -7.921)" fill="#fff"/>
    <path id="Tracciato_1011" data-name="Tracciato 1011" d="M215.149,11.672a2.741,2.741,0,0,1-.422,1.585q-2.832,5.207-5.673,10.408c-.706,1.289-1.834,1.715-2.9,1.13a2.069,2.069,0,0,1-.65-3.041q2.874-5.3,5.776-10.581A2.01,2.01,0,0,1,213.68,10a1.933,1.933,0,0,1,1.469,1.67" transform="translate(-163.677 -7.909)" fill="#fff"/>
    <path id="Tracciato_1012" data-name="Tracciato 1012" d="M44.639,324.158a2.006,2.006,0,0,1-1.928,2.053,2.073,2.073,0,0,1-2.078-2.032,2.008,2.008,0,0,1,2.006-1.974,1.947,1.947,0,0,1,2,1.953" transform="translate(-32.422 -257.1)" fill="#fff"/>
  </g>
</svg>
